<svg xmlns="http://www.w3.org/2000/svg" xmlns:xlink="http://www.w3.org/1999/xlink" width="200" zoomAndPan="magnify" viewBox="0 0 150 149.999998" height="200" preserveAspectRatio="xMidYMid meet" version="1.0"><path fill="#f26e24" d="M 98.3125 24.144531 L 90.734375 26.027344 L 83.210938 23.480469 L 81.785156 24.414062 L 80.511719 28.261719 L 86.195312 34.859375 L 93.566406 34.859375 L 98.941406 28.570312 Z M 98.3125 24.144531 " fill-opacity="1" fill-rule="nonzero"/><path fill="#f26e24" d="M 79.816406 25.882812 L 73.320312 46.671875 L 80 50.925781 L 98.738281 53.730469 L 122.542969 66.847656 L 125.960938 63.09375 L 112.175781 45.207031 L 96.972656 33.269531 L 90.578125 31.585938 L 86.929688 34.503906 L 82.949219 28.417969 L 81.785156 24.414062 Z M 79.816406 25.882812 " fill-opacity="1" fill-rule="nonzero"/><path fill="#b45227" d="M 76.789062 55.269531 C 72.808594 59.273438 68.78125 63.335938 65.953125 68.226562 C 64.878906 70.082031 63.988281 72.042969 63.070312 73.980469 C 57.507812 85.703125 51.054688 96.53125 43.253906 106.890625 C 39.675781 106.039062 36.378906 104.722656 32.800781 103.867188 C 34.464844 98.542969 36.511719 93.34375 38.925781 88.316406 C 39.929688 86.226562 40.996094 84.164062 42.199219 82.183594 C 43.289062 80.386719 44.492188 78.660156 45.675781 76.925781 C 52.488281 66.933594 58.691406 56.546875 64.867188 46.152344 " fill-opacity="1" fill-rule="nonzero"/><path fill="#f26e24" d="M 49.523438 94.691406 C 48.679688 96.59375 48.945312 99.132812 48.582031 101.183594 C 47.628906 106.535156 43.410156 110.894531 42.628906 116.273438 C 42.296875 118.574219 42.621094 120.929688 42.320312 123.238281 C 42.226562 123.96875 41.863281 124.871094 41.128906 124.855469 C 40.367188 124.84375 40.054688 123.875 39.972656 123.117188 C 39.695312 120.617188 39.542969 118.105469 39.519531 115.589844 C 37.882812 117.894531 37.214844 120.503906 36.453125 123.226562 C 36.296875 123.789062 36.125 124.359375 35.78125 124.832031 C 35.4375 125.300781 34.886719 125.660156 34.304688 125.613281 C 33.726562 125.570312 33.1875 125.011719 33.296875 124.441406 C 33.554688 125.152344 32.792969 125.933594 32.042969 125.878906 C 31.289062 125.820312 30.691406 125.160156 30.46875 124.4375 C 30.246094 123.714844 30.320312 122.9375 30.394531 122.183594 C 30.78125 118.292969 31.199219 114.296875 32.96875 110.8125 C 30.542969 113.953125 29.9375 117.9375 28.425781 121.613281 C 28.117188 122.371094 27.53125 123.242188 26.722656 123.109375 C 26.214844 123.027344 25.851562 122.535156 25.75 122.027344 C 25.652344 121.519531 25.757812 120.996094 25.867188 120.488281 C 26.644531 116.847656 27.417969 113.207031 28.195312 109.566406 C 28.355469 108.796875 28.523438 108.027344 28.785156 107.285156 C 29.113281 106.371094 29.589844 105.519531 30.066406 104.671875 C 32.363281 100.5625 35.074219 95.71875 37.371094 91.609375 C 38.703125 91.867188 39.691406 92.105469 41.046875 92.109375 C 42.488281 92.117188 43.910156 92.4375 45.320312 92.757812 C 46.957031 93.125 48.609375 93.28125 49.523438 94.691406 Z M 49.523438 94.691406 " fill-opacity="1" fill-rule="nonzero"/><path fill="#b45227" d="M 53.261719 128.800781 C 52.328125 135.144531 53.855469 141.574219 53.800781 147.984375 C 53.796875 148.195312 53.789062 148.421875 53.660156 148.589844 C 53.492188 148.808594 53.183594 148.847656 52.910156 148.867188 C 41.433594 149.710938 29.929688 150.136719 18.425781 150.136719 C 17.734375 150.136719 16.859375 150.007812 16.660156 149.339844 C 16.484375 148.742188 17.011719 148.175781 17.53125 147.828125 C 18.191406 147.390625 18.914062 147.058594 19.636719 146.730469 C 22.527344 145.410156 25.421875 144.105469 28.359375 142.898438 C 31.234375 141.71875 33.996094 140.695312 36.421875 138.683594 C 38.15625 137.246094 39.839844 135.679688 40.957031 133.71875 C 42.078125 131.761719 42.570312 129.339844 41.808594 127.214844 C 45.84375 127.417969 49.398438 127.625 53.261719 128.800781 Z M 53.261719 128.800781 " fill-opacity="1" fill-rule="nonzero"/><path fill="#472714" d="M 92.8125 11.089844 C 93.113281 11.546875 93.5 11.9375 93.878906 12.335938 C 94.761719 13.269531 95.648438 14.402344 95.546875 15.6875 C 95.5 16.285156 95.238281 16.855469 95.253906 17.457031 C 95.292969 18.648438 96.414062 19.589844 96.484375 20.78125 C 96.53125 21.546875 96.105469 22.296875 95.492188 22.753906 C 94.875 23.210938 94.09375 23.398438 93.328125 23.40625 C 92.78125 23.410156 92.222656 23.324219 91.75 23.054688 C 91.328125 22.816406 91 22.445312 90.65625 22.109375 C 89.71875 21.195312 88.613281 20.472656 87.695312 19.539062 C 86.871094 18.703125 86.199219 17.691406 85.886719 16.558594 C 85.570312 15.425781 85.636719 14.167969 86.183594 13.128906 C 86.390625 12.730469 86.667969 12.371094 86.878906 11.972656 C 87.066406 11.613281 87.203125 11.230469 87.277344 10.832031 C 87.347656 10.449219 87.363281 10.058594 87.476562 9.6875 C 87.777344 8.695312 88.726562 8.023438 89.714844 7.726562 C 90.550781 7.480469 91.734375 6.628906 91.890625 7.9375 C 92.019531 9.042969 92.1875 10.144531 92.8125 11.089844 Z M 92.8125 11.089844 " fill-opacity="1" fill-rule="nonzero"/><path fill="#998831" d="M 127.089844 71.191406 C 128.535156 80.109375 126.980469 91.257812 123.464844 99.574219 C 119.945312 107.894531 114.914062 115.460938 109.914062 122.976562 C 114.628906 121.789062 119.671875 121.527344 124.53125 121.335938 C 141.261719 120.6875 157.609375 125.996094 174.257812 127.792969 C 175.582031 132.761719 175.511719 138.03125 174.3125 143.035156 C 155.546875 143.132812 136.332031 144.179688 117.640625 145.851562 C 113.183594 146.25 108.65625 146.691406 104.257812 145.855469 C 101.726562 145.375 99.292969 144.480469 96.921875 143.480469 C 93.140625 141.882812 89.351562 139.894531 86.863281 136.625 C 83.503906 132.207031 83.09375 126.21875 83.503906 120.679688 C 84.171875 111.703125 86.664062 102.871094 90.777344 94.875 C 78.40625 89.792969 68.066406 89.578125 57.292969 81.636719 C 62.53125 99.511719 56.800781 112.457031 56.105469 130.03125 L 40.601562 130.03125 C 38.695312 113.960938 37.015625 97.769531 37.148438 81.582031 C 37.175781 78.25 37.296875 74.875 38.203125 71.667969 C 39.109375 68.460938 40.886719 65.394531 43.640625 63.527344 C 45.167969 62.492188 46.925781 61.863281 48.6875 61.328125 C 62.339844 57.179688 80.339844 66.039062 94.566406 67.121094 C 107.101562 68.078125 114.523438 70.949219 127.089844 71.191406 Z M 127.089844 71.191406 " fill-opacity="1" fill-rule="nonzero"/><path fill="#b45227" d="M 89.722656 11.574219 C 89.632812 11.621094 89.542969 11.664062 89.453125 11.722656 C 89.441406 11.652344 89.449219 11.585938 89.484375 11.53125 C 89.546875 11.445312 89.726562 11.46875 89.722656 11.574219 Z M 89.722656 11.574219 " fill-opacity="1" fill-rule="nonzero"/><path fill="#b45227" d="M 98.3125 24.144531 C 96.339844 24.644531 94.554688 25.789062 93.234375 27.328125 C 92.554688 28.117188 92 29.007812 91.503906 29.921875 C 91.226562 30.421875 90.96875 30.925781 90.734375 31.441406 C 90.679688 31.492188 90.625 31.535156 90.566406 31.578125 C 89.386719 32.460938 87.695312 32.554688 86.402344 31.871094 C 84.390625 30.804688 83.875 28.128906 83.5 26.089844 C 83.433594 25.714844 82.898438 23.675781 83.3125 23.414062 C 83.277344 23.4375 83.242188 23.457031 83.210938 23.480469 C 84.3125 21.695312 84.570312 19.460938 83.972656 17.324219 C 84.800781 15.308594 87.4375 12.804688 89.453125 11.722656 C 89.453125 11.761719 89.464844 11.800781 89.476562 11.839844 C 90.132812 14.410156 91.042969 16.910156 92.191406 19.300781 C 92.640625 20.242188 93.132812 21.171875 93.84375 21.9375 C 95.019531 23.195312 96.601562 23.824219 98.3125 24.144531 Z M 98.3125 24.144531 " fill-opacity="1" fill-rule="nonzero"/><path fill="#b45227" d="M 76.621094 8.546875 C 77.359375 11.058594 78.097656 13.570312 78.835938 16.078125 C 79.09375 16.953125 79.359375 17.851562 79.910156 18.574219 C 80.929688 19.917969 82.816406 20.429688 84.449219 20.027344 C 86.082031 19.625 87.441406 18.421875 88.292969 16.96875 C 89.144531 15.515625 89.535156 13.832031 89.699219 12.152344 C 90.152344 12.496094 90.832031 12.4375 91.308594 12.125 C 91.78125 11.808594 92.078125 11.277344 92.242188 10.730469 C 92.386719 10.25 92.441406 9.734375 92.300781 9.253906 C 92.164062 8.773438 91.8125 8.339844 91.335938 8.1875 C 90.773438 8.011719 90.097656 8.296875 89.835938 8.828125 C 89.929688 8.136719 89.355469 7.605469 88.914062 7.066406 C 88.472656 6.527344 87.882812 6.128906 87.289062 5.769531 C 85.453125 4.648438 83.210938 3.777344 81.1875 4.507812 C 80.753906 4.664062 80.347656 4.890625 79.953125 5.136719 C 78.605469 5.984375 77.589844 7.28125 76.621094 8.546875 Z M 76.621094 8.546875 " fill-opacity="1" fill-rule="nonzero"/><path fill="#f26e24" d="M 79.816406 25.882812 C 79.59375 26.046875 79.347656 26.226562 79.054688 26.429688 C 77.996094 27.15625 77.011719 28.050781 76.070312 28.925781 C 73.472656 31.359375 71.484375 34.15625 69.609375 37.160156 C 67.621094 40.34375 65.800781 43.632812 64.15625 47.007812 C 67.035156 48.617188 69.679688 50.507812 72.359375 52.421875 C 72.933594 52.839844 73.507812 53.253906 74.078125 53.675781 C 75 54.355469 75.929688 55.035156 76.855469 55.714844 C 77.421875 54.882812 77.992188 54.277344 78.46875 53.394531 C 78.816406 52.742188 79.210938 52.128906 79.613281 51.511719 C 79.703125 51.378906 79.789062 51.246094 79.878906 51.113281 C 78.433594 42.625 79 34.378906 79.816406 25.882812 Z M 79.816406 25.882812 " fill-opacity="1" fill-rule="nonzero"/><path fill="#f26e24" d="M 90.265625 37.863281 C 90.265625 35.929688 90.265625 33.582031 90.625 31.53125 C 90.605469 31.546875 90.585938 31.5625 90.566406 31.578125 C 89.386719 32.460938 87.695312 32.554688 86.402344 31.871094 C 84.390625 30.804688 83.875 28.128906 83.5 26.089844 C 83.433594 25.714844 82.894531 23.675781 83.308594 23.414062 C 83.277344 23.4375 83.242188 23.457031 83.210938 23.480469 C 83.183594 23.496094 83.152344 23.515625 83.125 23.53125 C 83.132812 23.46875 83.144531 23.417969 83.164062 23.378906 C 83.121094 23.445312 83.082031 23.515625 83.042969 23.582031 C 82.527344 23.910156 82.128906 24.175781 81.785156 24.414062 C 81.554688 29.960938 83.46875 37.335938 90.265625 37.863281 Z M 90.265625 37.863281 " fill-opacity="1" fill-rule="nonzero"/><path fill="#998831" d="M 81.785156 24.414062 C 80.984375 24.972656 80.523438 25.359375 79.816406 25.882812 C 79 34.378906 78.433594 42.621094 79.878906 51.113281 C 79.917969 51.050781 79.960938 50.988281 80 50.921875 C 80.445312 52.808594 81.183594 54.527344 82.390625 55.871094 C 83.621094 57.234375 85.257812 58.164062 86.617188 59.398438 C 88.488281 52.367188 89.675781 45.273438 90.183594 37.851562 C 83.453125 37.273438 81.554688 29.9375 81.785156 24.414062 Z M 81.785156 24.414062 " fill-opacity="1" fill-rule="nonzero"/><path fill="#f26e24" d="M 125.960938 63.09375 C 123.769531 52.503906 119.234375 42.761719 113.375 33.332031 C 112.085938 31.253906 110.746094 29.175781 108.988281 27.488281 C 108.175781 26.710938 107.269531 26.027344 106.28125 25.488281 C 103.847656 24.171875 101.238281 23.464844 98.5 24.097656 C 98.441406 24.117188 98.371094 24.125 98.3125 24.144531 C 96.339844 24.644531 94.554688 25.789062 93.234375 27.328125 C 92.554688 28.117188 92 29.007812 91.503906 29.921875 C 91.226562 30.421875 90.972656 30.925781 90.734375 31.445312 C 90.699219 31.476562 90.660156 31.503906 90.625 31.53125 C 90.265625 33.582031 90.265625 35.929688 90.265625 37.863281 C 90.238281 37.859375 90.210938 37.855469 90.183594 37.851562 C 89.675781 45.273438 88.488281 52.367188 86.617188 59.398438 C 86.730469 59.503906 86.847656 59.605469 86.957031 59.710938 C 90.691406 63.414062 91.015625 69.410156 94.113281 73.667969 C 96.53125 73.65625 98.972656 73.71875 101.425781 73.816406 C 104.324219 67.390625 104.914062 60.488281 106.503906 53.585938 C 111.164062 60.601562 118.523438 62.207031 125.960938 63.09375 Z M 125.960938 63.09375 " fill-opacity="1" fill-rule="nonzero"/><path fill="#998831" d="M 106.503906 53.585938 C 104.914062 60.488281 102.570312 66.550781 101.425781 73.816406 C 110.0625 74.152344 118.851562 74.90625 127.355469 74.386719 C 127.199219 70.507812 126.71875 66.75 125.960938 63.09375 C 118.523438 62.207031 111.164062 60.601562 106.503906 53.585938 Z M 106.503906 53.585938 " fill-opacity="1" fill-rule="nonzero"/><path fill="#b45227" d="M 88.277344 53.125 C 88.878906 53.257812 89.480469 53.398438 90.078125 53.542969 C 89.484375 53.378906 88.882812 53.238281 88.277344 53.125 Z M 88.277344 53.125 " fill-opacity="1" fill-rule="nonzero"/><path fill="#b45227" d="M 87.453125 54.25 C 86.535156 60.160156 85.617188 66.070312 84.699219 71.976562 C 84.359375 74.167969 84.015625 76.375 83.277344 78.460938 C 82.382812 80.996094 80.929688 83.292969 79.3125 85.4375 C 76.894531 88.648438 74.726562 92.089844 72.09375 95.121094 C 69.585938 98.019531 67.054688 100.902344 64.558594 103.808594 C 63.941406 104.527344 58.222656 112.277344 58.183594 112.253906 C 61.707031 114.472656 72.019531 107.625 75.421875 110.03125 C 85.511719 99.910156 89.734375 100.808594 96 88.304688 C 100.519531 79.289062 102.222656 69.1875 104.953125 59.457031 C 99.21875 57.402344 93.40625 55.550781 87.453125 54.25 Z M 87.453125 54.25 " fill-opacity="1" fill-rule="nonzero"/><path fill="#472714" d="M 76.738281 8.4375 C 79.136719 9.882812 82.34375 9.847656 84.707031 8.351562 C 84.796875 8.292969 84.898438 8.234375 85 8.253906 C 85.101562 8.273438 85.171875 8.363281 85.238281 8.445312 C 86.371094 9.867188 88.710938 10.09375 90.089844 8.914062 C 90.929688 8.199219 89.984375 6.726562 89.359375 5.820312 C 88.734375 4.910156 87.777344 4.28125 86.769531 3.839844 C 84.722656 2.949219 82.304688 2.804688 80.261719 3.707031 C 78.222656 4.609375 76.855469 6.203125 76.738281 8.4375 Z M 76.738281 8.4375 " fill-opacity="1" fill-rule="nonzero"/><path fill="#f26e24" d="M 77.53125 10.964844 C 76.773438 10.464844 76.347656 9.578125 76.167969 8.6875 C 75.695312 6.355469 76.777344 3.863281 78.609375 2.347656 C 80.441406 0.835938 82.914062 0.242188 85.28125 0.410156 C 85.835938 0.445312 86.390625 0.527344 86.914062 0.707031 C 87.457031 0.898438 87.960938 1.195312 88.425781 1.535156 C 89.601562 2.402344 90.558594 3.574219 91.171875 4.902344 C 91.785156 4.179688 92.09375 3.402344 92.507812 2.546875 C 93.164062 1.183594 94.117188 -0.0351562 95.277344 -1 C 95.878906 0.230469 95.863281 1.742188 95.242188 2.960938 C 94.617188 4.183594 93.402344 5.078125 92.054688 5.304688 C 94.457031 5.671875 96.890625 6.199219 98.777344 7.730469 C 98.054688 8.820312 96.574219 9.207031 95.292969 8.957031 C 94.015625 8.707031 92.898438 7.933594 91.898438 7.09375 C 90.757812 8.921875 88.734375 10.070312 86.617188 10.441406 C 85.777344 10.585938 84.917969 10.59375 84.066406 10.597656 C 81.824219 10.613281 79.773438 10.953125 77.53125 10.964844 Z M 77.53125 10.964844 " fill-opacity="1" fill-rule="nonzero"/><path fill="#472714" d="M 84.277344 20.109375 C 85.339844 19.691406 86.378906 19.050781 86.929688 18.046875 C 86.917969 18.878906 86.359375 19.597656 85.792969 20.207031 C 85.335938 20.695312 84.792969 21.183594 84.128906 21.234375 C 84.199219 21.082031 84.1875 20.90625 84.199219 20.734375 C 84.210938 20.558594 84.261719 20.285156 84.277344 20.109375 Z M 84.277344 20.109375 " fill-opacity="1" fill-rule="nonzero"/><path fill="#472714" d="M 107.972656 42.777344 C 107.464844 46.3125 106.933594 49.847656 106.378906 53.375 C 106.324219 53.730469 106.863281 53.882812 106.917969 53.527344 C 107.472656 49.996094 108.003906 46.460938 108.511719 42.925781 C 108.5625 42.570312 108.023438 42.417969 107.972656 42.777344 Z M 107.972656 42.777344 " fill-opacity="1" fill-rule="nonzero"/><path fill="#472714" d="M 90.578125 31.585938 C 90.234375 33.730469 90.035156 35.894531 89.984375 38.066406 C 89.976562 38.425781 90.535156 38.425781 90.542969 38.066406 C 90.59375 35.945312 90.78125 33.828125 91.117188 31.734375 C 91.175781 31.382812 90.636719 31.230469 90.578125 31.585938 Z M 90.578125 31.585938 " fill-opacity="1" fill-rule="nonzero"/><path fill="#472714" d="M 38.144531 110.429688 C 35.492188 110.308594 32.886719 109.71875 30.4375 108.695312 C 30.105469 108.558594 29.960938 109.101562 30.289062 109.238281 C 32.785156 110.28125 35.445312 110.871094 38.144531 110.988281 C 38.503906 111.007812 38.503906 110.445312 38.144531 110.429688 Z M 38.144531 110.429688 " fill-opacity="1" fill-rule="nonzero"/><path fill="#472714" d="M 35.457031 111.15625 C 34.332031 115.53125 33.214844 119.921875 32.804688 124.429688 C 32.769531 124.789062 33.332031 124.789062 33.363281 124.429688 C 33.769531 119.972656 34.886719 115.628906 35.996094 111.308594 C 36.085938 110.957031 35.546875 110.808594 35.457031 111.15625 Z M 35.457031 111.15625 " fill-opacity="1" fill-rule="nonzero"/><path fill="#472714" d="M 126.605469 75.296875 C 123.578125 76.070312 120.433594 75.980469 117.359375 75.597656 C 114.210938 75.203125 111.089844 74.582031 107.976562 73.992188 C 106.1875 73.65625 104.398438 73.304688 102.613281 72.945312 C 102.261719 72.871094 102.109375 73.414062 102.464844 73.484375 C 105.695312 74.140625 108.9375 74.757812 112.183594 75.332031 C 115.269531 75.882812 118.382812 76.441406 121.527344 76.449219 C 123.285156 76.457031 125.046875 76.277344 126.753906 75.839844 C 127.101562 75.75 126.953125 75.207031 126.605469 75.296875 Z M 126.605469 75.296875 " fill-opacity="1" fill-rule="nonzero"/><path fill="#472714" d="M 174.351562 132.214844 C 165.308594 132.414062 156.261719 132.617188 147.21875 132.816406 C 138.3125 133.007812 129.394531 133.167969 120.496094 132.730469 C 116 132.507812 111.515625 132.132812 107.054688 131.527344 C 105.070312 131.257812 102.941406 131.046875 101.183594 130.003906 C 99.789062 129.179688 98.746094 127.886719 98.0625 126.429688 C 96.488281 123.074219 96.9375 119.304688 98.148438 115.917969 C 98.855469 113.9375 99.800781 112.054688 100.746094 110.179688 C 101.773438 108.152344 102.796875 106.125 103.824219 104.09375 C 105.578125 100.628906 107.332031 97.160156 109.085938 93.691406 C 109.128906 93.75 109.195312 93.785156 109.292969 93.78125 C 111.394531 93.621094 113.058594 92.035156 114.585938 90.730469 C 116.355469 89.21875 118.046875 87.613281 119.65625 85.929688 C 119.90625 85.667969 119.511719 85.269531 119.261719 85.53125 C 117.742188 87.121094 116.152344 88.640625 114.488281 90.074219 C 113.6875 90.769531 112.878906 91.480469 112.007812 92.089844 C 111.203125 92.65625 110.316406 93.128906 109.328125 93.214844 C 111.59375 88.730469 113.859375 84.25 116.125 79.769531 C 116.628906 78.777344 117.128906 77.78125 117.632812 76.789062 C 117.792969 76.46875 117.3125 76.183594 117.148438 76.507812 C 112.964844 84.777344 108.785156 93.046875 104.601562 101.316406 L 101.449219 107.554688 C 100.476562 109.472656 99.472656 111.378906 98.59375 113.34375 C 97.046875 116.800781 95.921875 120.605469 96.785156 124.398438 C 97.140625 125.957031 97.808594 127.453125 98.824219 128.695312 C 99.945312 130.066406 101.457031 130.949219 103.15625 131.410156 C 105.179688 131.957031 107.328125 132.140625 109.402344 132.386719 C 111.675781 132.652344 113.953125 132.863281 116.234375 133.03125 C 125.296875 133.691406 134.394531 133.632812 143.476562 133.453125 C 152.636719 133.277344 161.796875 133.054688 170.957031 132.851562 C 172.089844 132.828125 173.21875 132.804688 174.351562 132.777344 C 174.710938 132.769531 174.710938 132.207031 174.351562 132.214844 Z M 174.351562 132.214844 " fill-opacity="1" fill-rule="nonzero"/><path fill="#472714" d="M 80.738281 14.089844 C 80.707031 14.359375 80.679688 14.628906 80.75 14.894531 C 80.8125 15.132812 80.957031 15.351562 81.175781 15.476562 C 81.277344 15.539062 81.425781 15.503906 81.484375 15.398438 C 81.539062 15.289062 81.511719 15.152344 81.402344 15.089844 C 81.382812 15.078125 81.363281 15.0625 81.34375 15.050781 C 81.390625 15.082031 81.332031 15.035156 81.324219 15.027344 C 81.304688 15.011719 81.289062 14.992188 81.277344 14.976562 C 81.3125 15.019531 81.265625 14.957031 81.257812 14.949219 C 81.246094 14.929688 81.234375 14.90625 81.226562 14.886719 C 81.21875 14.875 81.199219 14.824219 81.21875 14.875 C 81.203125 14.832031 81.1875 14.785156 81.175781 14.738281 C 81.171875 14.714844 81.164062 14.6875 81.164062 14.664062 C 81.164062 14.6875 81.164062 14.683594 81.164062 14.65625 C 81.160156 14.640625 81.160156 14.625 81.160156 14.613281 C 81.15625 14.558594 81.15625 14.507812 81.15625 14.453125 C 81.160156 14.332031 81.175781 14.210938 81.191406 14.089844 C 81.207031 13.972656 81.078125 13.859375 80.964844 13.863281 C 80.832031 13.871094 80.753906 13.964844 80.738281 14.089844 Z M 80.738281 14.089844 " fill-opacity="1" fill-rule="nonzero"/><path fill="#472714" d="M 81.980469 17.257812 C 82.679688 17.351562 83.296875 16.941406 83.839844 16.550781 C 83.9375 16.480469 83.988281 16.355469 83.921875 16.242188 C 83.863281 16.144531 83.710938 16.089844 83.613281 16.160156 C 83.132812 16.507812 82.601562 16.890625 81.980469 16.804688 C 81.859375 16.789062 81.753906 16.921875 81.753906 17.03125 C 81.753906 17.167969 81.859375 17.242188 81.980469 17.257812 Z M 81.980469 17.257812 " fill-opacity="1" fill-rule="nonzero"/><path fill="#472714" d="M 90.714844 9.453125 C 90.445312 9.796875 90.234375 10.179688 90.097656 10.597656 C 90.058594 10.710938 90.140625 10.847656 90.253906 10.875 C 90.378906 10.902344 90.492188 10.839844 90.53125 10.71875 C 90.546875 10.671875 90.5625 10.625 90.582031 10.578125 C 90.589844 10.554688 90.597656 10.535156 90.605469 10.511719 C 90.613281 10.5 90.617188 10.488281 90.621094 10.476562 C 90.609375 10.503906 90.609375 10.503906 90.621094 10.480469 C 90.660156 10.394531 90.699219 10.308594 90.742188 10.222656 C 90.789062 10.140625 90.835938 10.058594 90.890625 9.980469 C 90.914062 9.9375 90.941406 9.898438 90.972656 9.859375 C 90.984375 9.839844 91 9.816406 91.015625 9.800781 C 91.023438 9.789062 91.03125 9.78125 91.035156 9.769531 C 91.019531 9.792969 91.019531 9.792969 91.035156 9.773438 C 91.074219 9.722656 91.101562 9.675781 91.101562 9.613281 C 91.101562 9.554688 91.078125 9.488281 91.035156 9.453125 C 90.953125 9.375 90.792969 9.351562 90.714844 9.453125 Z M 90.714844 9.453125 " fill-opacity="1" fill-rule="nonzero"/><path fill="#472714" d="M 78.472656 12.1875 C 78.546875 12.136719 78.625 12.09375 78.707031 12.054688 C 78.714844 12.050781 78.785156 12.015625 78.734375 12.042969 C 78.75 12.035156 78.769531 12.027344 78.785156 12.023438 C 78.828125 12.007812 78.867188 11.992188 78.910156 11.980469 C 78.992188 11.957031 79.082031 11.929688 79.164062 11.925781 C 79.101562 11.929688 79.183594 11.925781 79.195312 11.921875 C 79.210938 11.921875 79.230469 11.917969 79.246094 11.917969 C 79.292969 11.914062 79.34375 11.914062 79.390625 11.914062 C 79.507812 11.917969 79.621094 11.808594 79.617188 11.6875 C 79.609375 11.566406 79.515625 11.464844 79.390625 11.460938 C 78.988281 11.457031 78.582031 11.574219 78.246094 11.796875 C 78.148438 11.859375 78.097656 12 78.164062 12.105469 C 78.226562 12.203125 78.367188 12.257812 78.472656 12.1875 Z M 78.472656 12.1875 " fill-opacity="1" fill-rule="nonzero"/><path fill="#472714" d="M 82.042969 11.363281 C 82.359375 11.296875 82.675781 11.230469 82.992188 11.164062 C 83.109375 11.136719 83.1875 10.996094 83.148438 10.882812 C 83.109375 10.761719 82.996094 10.699219 82.871094 10.726562 C 82.554688 10.792969 82.238281 10.859375 81.921875 10.925781 C 81.804688 10.953125 81.726562 11.09375 81.765625 11.207031 C 81.804688 11.328125 81.917969 11.390625 82.042969 11.363281 Z M 82.042969 11.363281 " fill-opacity="1" fill-rule="nonzero"/><path fill="#472714" d="M 79.289062 14.132812 C 79.335938 14.214844 79.390625 14.289062 79.464844 14.339844 C 79.539062 14.390625 79.636719 14.414062 79.722656 14.386719 C 79.867188 14.335938 79.929688 14.164062 79.9375 14.011719 C 79.949219 13.738281 79.773438 13.242188 79.414062 13.320312 C 79.042969 13.402344 79.164062 13.90625 79.289062 14.132812 Z M 79.289062 14.132812 " fill-opacity="1" fill-rule="nonzero"/><path fill="#472714" d="M 82.589844 13.210938 C 82.632812 13.292969 82.691406 13.367188 82.765625 13.417969 C 82.839844 13.46875 82.9375 13.492188 83.023438 13.464844 C 83.167969 13.414062 83.230469 13.242188 83.238281 13.089844 C 83.25 12.816406 83.074219 12.320312 82.714844 12.398438 C 82.34375 12.480469 82.464844 12.984375 82.589844 13.210938 Z M 82.589844 13.210938 " fill-opacity="1" fill-rule="nonzero"/><path fill="#472714" d="M 53.144531 103.082031 C 53.070312 102.800781 52.636719 102.917969 52.707031 103.203125 C 53.339844 105.652344 53.421875 108.222656 52.941406 110.710938 C 52.886719 110.992188 53.320312 111.117188 53.375 110.828125 C 53.875 108.261719 53.796875 105.613281 53.144531 103.082031 Z M 53.144531 103.082031 " fill-opacity="1" fill-rule="nonzero"/><path fill="#4f62b4" d="M 19.195312 145.234375 C 18.628906 141.570312 17.621094 137.855469 16.140625 134.457031 C 13.765625 128.992188 9.285156 124.785156 5.714844 120.019531 C 4.488281 118.378906 3.351562 116.640625 2.636719 114.722656 C 2.023438 113.078125 1.730469 111.335938 1.4375 109.609375 C 1 106.988281 0.5625 104.367188 0.121094 101.75 C 2.523438 102.492188 4.929688 103.234375 7.332031 103.976562 C 9.585938 104.675781 11.910156 105.410156 13.679688 106.96875 C 16.554688 109.503906 17.351562 113.601562 17.976562 117.390625 C 18.558594 120.894531 19.136719 124.523438 18.242188 127.960938 C 17.949219 129.085938 17.5 130.179688 17.34375 131.332031 C 17.054688 133.433594 17.742188 135.527344 18.28125 137.578125 C 19.421875 141.894531 20.363281 146.769531 20.347656 151.242188 C 20.347656 150.570312 19.359375 146.296875 19.195312 145.234375 Z M 19.195312 145.234375 " fill-opacity="1" fill-rule="nonzero"/><path fill="#4f62b4" d="M 24.640625 133.132812 C 25.492188 130.914062 26.683594 128.828125 27.402344 126.5625 C 27.9375 124.890625 28.199219 123.140625 28.6875 121.453125 C 30.269531 115.9375 34.171875 111.285156 38.859375 107.996094 C 43.546875 104.703125 48.996094 102.664062 54.511719 101.132812 C 55.1875 105.789062 55.75 110.972656 53.027344 114.804688 C 49.640625 119.574219 42.589844 120.230469 38.664062 124.566406 C 37.730469 125.597656 37.003906 126.8125 36.046875 127.824219 C 34.753906 129.191406 33.050781 130.160156 31.21875 130.566406 C 29.828125 130.878906 28.316406 130.894531 27.117188 131.667969 C 25.429688 132.757812 24.921875 134.957031 24.570312 136.9375 C 23.816406 141.238281 22.785156 145.757812 22.625 150.125 C 22.878906 144.347656 22.515625 138.660156 24.640625 133.132812 Z M 24.640625 133.132812 " fill-opacity="1" fill-rule="nonzero"/><path fill="#f26e24" d="M 75.421875 110.03125 C 73.941406 111.496094 73.265625 113.957031 72.183594 115.734375 C 69.351562 120.367188 63.839844 122.882812 61.160156 127.605469 C 60.011719 129.628906 59.457031 131.941406 58.339844 133.980469 C 57.984375 134.628906 57.320312 135.332031 56.640625 135.050781 C 55.933594 134.761719 55.996094 133.746094 56.195312 133.007812 C 56.84375 130.578125 57.617188 128.183594 58.507812 125.835938 C 56.148438 127.382812 54.574219 129.566406 52.878906 131.824219 C 52.527344 132.289062 52.160156 132.761719 51.667969 133.074219 C 51.179688 133.386719 50.535156 133.519531 50.011719 133.265625 C 49.488281 133.011719 49.1875 132.296875 49.496094 131.800781 C 49.480469 132.558594 48.484375 133.007812 47.804688 132.679688 C 47.125 132.355469 46.8125 131.519531 46.867188 130.765625 C 46.921875 130.011719 47.273438 129.3125 47.617188 128.640625 C 49.390625 125.15625 51.230469 121.589844 54.144531 118.992188 C 50.742188 121.03125 48.734375 124.519531 45.992188 127.386719 C 45.425781 127.980469 44.5625 128.578125 43.859375 128.160156 C 43.417969 127.898438 43.257812 127.304688 43.347656 126.796875 C 43.441406 126.285156 43.730469 125.839844 44.015625 125.40625 C 46.058594 122.300781 48.105469 119.191406 50.152344 116.085938 C 50.582031 115.429688 51.015625 114.773438 51.53125 114.179688 C 52.167969 113.445312 52.921875 112.828125 53.671875 112.210938 C 57.304688 109.222656 61.589844 105.707031 65.222656 102.71875 C 66.367188 103.445312 67.203125 104.027344 68.460938 104.527344 C 69.804688 105.0625 71.011719 105.878906 72.207031 106.691406 C 73.597656 107.636719 75.078125 108.382812 75.421875 110.03125 Z M 75.421875 110.03125 " fill-opacity="1" fill-rule="nonzero"/><path fill="#472714" d="M 54.875 122.765625 C 52.699219 125.472656 50.785156 128.382812 49.175781 131.464844 C 49.011719 131.785156 49.492188 132.070312 49.660156 131.75 C 51.246094 128.710938 53.125 125.832031 55.273438 123.164062 C 55.496094 122.886719 55.101562 122.484375 54.875 122.765625 Z M 54.875 122.765625 " fill-opacity="1" fill-rule="nonzero"/><path fill="#472714" d="M 48.84375 107.332031 C 50.929688 105.660156 52.933594 103.855469 54.449219 101.632812 C 54.617188 101.390625 54.226562 101.164062 54.0625 101.402344 C 51.3125 105.4375 47.011719 107.957031 43.410156 111.125 C 41.722656 112.613281 40.234375 114.304688 38.753906 116 C 39.03125 113.917969 39.269531 111.832031 39.464844 109.742188 C 39.492188 109.453125 39.039062 109.457031 39.011719 109.742188 C 38.804688 111.984375 38.550781 114.222656 38.246094 116.453125 C 38.238281 116.492188 38.246094 116.527344 38.257812 116.5625 C 38.042969 116.808594 37.828125 117.050781 37.613281 117.296875 C 35.625 119.53125 33.632812 121.765625 31.648438 124.003906 C 31.222656 124.484375 30.796875 124.96875 30.375 125.453125 C 30.363281 124.042969 30.773438 122.644531 30.539062 121.234375 C 30.492188 120.949219 30.054688 121.070312 30.105469 121.355469 C 30.359375 122.882812 29.820312 124.40625 29.953125 125.9375 C 28.414062 127.710938 26.914062 129.515625 25.523438 131.410156 C 25.351562 131.644531 25.742188 131.871094 25.914062 131.640625 C 27.273438 129.789062 28.742188 128.023438 30.246094 126.289062 C 30.335938 126.277344 30.414062 126.214844 30.410156 126.101562 C 30.75 125.707031 31.089844 125.316406 31.433594 124.925781 C 32.042969 124.238281 32.660156 123.550781 33.269531 122.863281 C 33.285156 122.859375 33.296875 122.855469 33.308594 122.851562 C 34.582031 122.148438 36.070312 122.1875 37.472656 122.035156 C 39.035156 121.867188 40.566406 121.527344 42.09375 121.183594 C 42.378906 121.121094 42.257812 120.683594 41.976562 120.746094 C 40.382812 121.105469 38.785156 121.460938 37.15625 121.613281 C 36.082031 121.714844 34.980469 121.757812 33.960938 122.085938 C 35.097656 120.808594 36.230469 119.527344 37.371094 118.25 C 38.371094 117.125 39.371094 116 40.371094 114.875 C 40.945312 114.226562 41.523438 113.589844 42.128906 112.972656 C 42.152344 112.972656 42.179688 112.972656 42.210938 112.960938 C 45.535156 111.625 49.007812 110.667969 52.546875 110.109375 C 52.832031 110.0625 52.710938 109.625 52.425781 109.671875 C 49.171875 110.1875 45.980469 111.042969 42.902344 112.210938 C 43.011719 112.109375 43.117188 112 43.230469 111.898438 C 45.007812 110.265625 46.960938 108.84375 48.84375 107.332031 Z M 48.84375 107.332031 " fill-opacity="1" fill-rule="nonzero"/><path fill="#472714" d="M 17.375 134.507812 C 16.386719 132.507812 15.902344 130.316406 15.3125 128.179688 C 15.015625 127.113281 14.691406 126.054688 14.265625 125.035156 C 14.203125 124.886719 14.136719 124.746094 14.070312 124.597656 C 14.15625 124.628906 14.257812 124.609375 14.304688 124.496094 C 15.132812 122.675781 15.839844 120.804688 16.414062 118.886719 C 16.496094 118.605469 16.058594 118.488281 15.976562 118.765625 C 15.417969 120.644531 14.730469 122.480469 13.917969 124.261719 C 13.550781 123.484375 13.132812 122.726562 12.699219 121.980469 C 12.179688 121.085938 11.644531 120.195312 11.117188 119.300781 C 11.390625 118.867188 11.402344 118.320312 11.453125 117.8125 C 11.527344 117.113281 11.582031 116.414062 11.621094 115.714844 C 11.699219 114.3125 11.714844 112.910156 11.671875 111.507812 C 11.664062 111.21875 11.210938 111.214844 11.222656 111.507812 C 11.261719 112.800781 11.253906 114.089844 11.1875 115.382812 C 11.15625 116.007812 11.113281 116.636719 11.054688 117.261719 C 11.027344 117.589844 10.992188 117.921875 10.957031 118.253906 C 10.933594 118.449219 10.910156 118.65625 10.847656 118.84375 C 9.371094 116.355469 7.882812 113.875 6.394531 111.390625 C 6.410156 111.359375 6.421875 111.324219 6.421875 111.28125 C 6.402344 109.507812 6.308594 107.734375 6.144531 105.96875 C 6.121094 105.679688 5.667969 105.679688 5.695312 105.96875 C 5.839844 107.53125 5.925781 109.097656 5.957031 110.667969 C 5.699219 110.230469 5.4375 109.796875 5.175781 109.363281 C 3.753906 106.980469 2.332031 104.597656 0.914062 102.214844 C 0.761719 101.964844 0.371094 102.191406 0.523438 102.441406 C 3.035156 106.652344 5.546875 110.863281 8.058594 115.074219 C 6.804688 114.660156 5.574219 114.179688 4.375 113.625 C 4.113281 113.503906 3.882812 113.894531 4.148438 114.015625 C 5.535156 114.65625 6.957031 115.207031 8.414062 115.667969 C 9.570312 117.605469 10.726562 119.542969 11.882812 121.484375 C 12.476562 122.480469 13.058594 123.484375 13.550781 124.535156 C 14.03125 125.558594 14.394531 126.632812 14.710938 127.71875 C 15.398438 130.078125 15.886719 132.515625 16.984375 134.734375 C 17.113281 134.996094 17.503906 134.765625 17.375 134.507812 Z M 17.375 134.507812 " fill-opacity="1" fill-rule="nonzero"/></svg>