<svg xmlns="http://www.w3.org/2000/svg" xmlns:xlink="http://www.w3.org/1999/xlink" width="200" zoomAndPan="magnify" viewBox="0 0 150 149.999998" height="200" preserveAspectRatio="xMidYMid meet" version="1.0"><defs><clipPath id="id1"><path d="M 66 41 L 130.417969 41 L 130.417969 111 L 66 111 Z M 66 41 " clip-rule="nonzero"/></clipPath><clipPath id="id2"><path d="M 26.917969 80 L 91 80 L 91 150 L 26.917969 150 Z M 26.917969 80 " clip-rule="nonzero"/></clipPath></defs><path fill="#ffffff" d="M 88.082031 31.449219 C 88.082031 46.914062 75.546875 59.449219 60.082031 59.449219 C 44.613281 59.449219 32.078125 46.914062 32.078125 31.449219 C 32.078125 15.984375 44.613281 3.445312 60.082031 3.445312 C 75.546875 3.445312 88.082031 15.984375 88.082031 31.449219 " fill-opacity="1" fill-rule="nonzero"/><path fill="#ffffff" d="M 84.609375 112.710938 C 84.609375 126.113281 73.742188 136.980469 60.339844 136.980469 C 46.9375 136.980469 36.070312 126.113281 36.070312 112.710938 C 36.070312 99.304688 46.9375 88.441406 60.339844 88.441406 C 73.742188 88.441406 84.609375 99.304688 84.609375 112.710938 " fill-opacity="1" fill-rule="nonzero"/><path fill="#ffffff" d="M 121.210938 73.867188 C 121.210938 86.300781 111.128906 96.382812 98.691406 96.382812 C 86.253906 96.382812 76.175781 86.300781 76.175781 73.867188 C 76.175781 61.429688 86.253906 51.347656 98.691406 51.347656 C 111.128906 51.347656 121.210938 61.429688 121.210938 73.867188 " fill-opacity="1" fill-rule="nonzero"/><path fill="#004aad" d="M 78.3125 24.394531 L 77.671875 31.714844 C 77.605469 32.585938 77.457031 33.253906 77.230469 33.71875 C 77 34.183594 76.625 34.417969 76.101562 34.417969 C 75.566406 34.417969 75.195312 34.191406 74.984375 33.742188 C 74.777344 33.292969 74.628906 32.605469 74.542969 31.683594 L 74.066406 24.574219 C 73.976562 23.1875 73.933594 22.191406 73.933594 21.589844 C 73.933594 20.769531 74.148438 20.125 74.578125 19.667969 C 75.007812 19.207031 75.574219 18.976562 76.277344 18.976562 C 77.128906 18.976562 77.699219 19.269531 77.984375 19.859375 C 78.273438 20.449219 78.414062 21.296875 78.414062 22.40625 C 78.414062 23.058594 78.382812 23.722656 78.3125 24.394531 Z M 77.75 40.859375 C 77.304688 41.257812 76.785156 41.453125 76.1875 41.453125 C 75.585938 41.453125 75.058594 41.257812 74.609375 40.867188 C 74.15625 40.476562 73.933594 39.929688 73.933594 39.226562 C 73.933594 38.613281 74.148438 38.089844 74.578125 37.660156 C 75.007812 37.230469 75.535156 37.015625 76.160156 37.015625 C 76.785156 37.015625 77.316406 37.230469 77.753906 37.660156 C 78.195312 38.089844 78.414062 38.613281 78.414062 39.226562 C 78.414062 39.921875 78.195312 40.464844 77.75 40.859375 Z M 68.425781 22.589844 C 68.027344 22.941406 67.558594 23.117188 67.015625 23.117188 C 66.449219 23.117188 65.96875 22.945312 65.566406 22.597656 C 65.164062 22.253906 64.964844 21.761719 64.964844 21.128906 C 64.964844 20.554688 65.171875 20.082031 65.582031 19.710938 C 65.992188 19.339844 66.46875 19.152344 67.015625 19.152344 C 67.539062 19.152344 68.003906 19.324219 68.410156 19.660156 C 68.816406 19.996094 69.019531 20.484375 69.019531 21.128906 C 69.019531 21.753906 68.820312 22.242188 68.425781 22.589844 Z M 69.019531 39.019531 C 69.019531 39.832031 68.824219 40.445312 68.4375 40.859375 C 68.054688 41.277344 67.5625 41.484375 66.96875 41.484375 C 66.375 41.484375 65.894531 41.273438 65.519531 40.847656 C 65.152344 40.417969 64.964844 39.8125 64.964844 39.019531 L 64.964844 27.421875 C 64.964844 26.621094 65.152344 26.019531 65.519531 25.613281 C 65.894531 25.207031 66.375 25.003906 66.96875 25.003906 C 67.5625 25.003906 68.054688 25.207031 68.4375 25.613281 C 68.824219 26.019531 69.019531 26.582031 69.019531 27.304688 Z M 60.511719 38.796875 C 60.511719 39.695312 60.300781 40.371094 59.886719 40.816406 C 59.472656 41.261719 58.9375 41.484375 58.285156 41.484375 C 57.621094 41.484375 57.089844 41.257812 56.695312 40.808594 C 56.300781 40.359375 56.101562 39.6875 56.101562 38.796875 L 56.101562 31.476562 L 46.582031 31.476562 L 46.582031 38.796875 C 46.582031 39.695312 46.375 40.371094 45.960938 40.816406 C 45.542969 41.261719 45.011719 41.484375 44.355469 41.484375 C 43.695312 41.484375 43.164062 41.257812 42.769531 40.808594 C 42.371094 40.359375 42.175781 39.6875 42.175781 38.796875 L 42.175781 21.648438 C 42.175781 20.757812 42.371094 20.089844 42.761719 19.644531 C 43.152344 19.199219 43.683594 18.976562 44.355469 18.976562 C 45.019531 18.976562 45.558594 19.195312 45.96875 19.636719 C 46.378906 20.078125 46.582031 20.746094 46.582031 21.648438 L 46.582031 27.882812 L 56.101562 27.882812 L 56.101562 21.648438 C 56.101562 20.757812 56.300781 20.089844 56.703125 19.644531 C 57.101562 19.199219 57.628906 18.976562 58.285156 18.976562 C 58.945312 18.976562 59.484375 19.195312 59.894531 19.636719 C 60.304688 20.078125 60.511719 20.746094 60.511719 21.648438 Z M 60.296875 -0.00390625 C 42.789062 -0.00390625 28.59375 14.1875 28.59375 31.695312 C 28.59375 37.746094 30.289062 43.402344 33.230469 48.210938 L 28.59375 69.132812 L 48.535156 61.144531 C 52.171875 62.597656 56.140625 63.398438 60.296875 63.398438 C 77.804688 63.398438 91.996094 49.203125 91.996094 31.695312 C 91.996094 14.1875 77.804688 -0.00390625 60.296875 -0.00390625 " fill-opacity="1" fill-rule="nonzero"/><path fill="#304850" d="M 100.195312 81.683594 L 104.613281 81.683594 C 103.835938 80.054688 102.679688 78.773438 101.152344 77.832031 L 103.121094 76.5625 C 105.015625 77.832031 106.246094 79.164062 106.808594 80.5625 L 105.085938 81.683594 L 107.246094 81.683594 C 107.355469 80.566406 107.464844 78.804688 107.570312 76.402344 L 101.023438 76.402344 L 100.195312 81.683594 " fill-opacity="1" fill-rule="nonzero"/><path fill="#304850" d="M 101.625 70.242188 L 103.445312 69.136719 L 101.1875 69.136719 C 101.164062 70.9375 101.121094 72.511719 101.054688 73.867188 L 104.613281 73.867188 C 103.921875 72.488281 102.925781 71.28125 101.625 70.242188 " fill-opacity="1" fill-rule="nonzero"/><path fill="#304850" d="M 89.179688 64.945312 L 86.984375 64.945312 L 86.984375 76.824219 L 89.179688 76.824219 L 89.179688 64.945312 " fill-opacity="1" fill-rule="nonzero"/><g clip-path="url(#id1)"><path fill="#304850" d="M 112.933594 76.402344 L 110.105469 76.402344 L 109.78125 81.683594 L 112.136719 81.683594 L 112.136719 84.117188 L 109.601562 84.117188 C 109.332031 86.175781 108.894531 87.445312 108.292969 87.921875 C 107.695312 88.398438 106.6875 88.625 105.28125 88.601562 L 103.183594 88.570312 L 101.917969 85.875 L 106.078125 86.148438 C 106.640625 86.183594 106.9375 85.503906 106.96875 84.117188 L 97.125 84.117188 C 97.699219 81.683594 98.097656 79.109375 98.328125 76.402344 L 96.488281 76.402344 L 96.488281 73.867188 L 98.488281 73.867188 C 98.574219 72.957031 98.617188 71.992188 98.617188 70.972656 C 98.617188 69.683594 98.585938 68.742188 98.519531 68.144531 L 97.367188 69.902344 L 95.058594 68.40625 C 97.691406 65.210938 99.257812 61.929688 99.757812 58.558594 L 102.015625 59.324219 C 101.980469 60.375 101.851562 61.253906 101.625 61.957031 L 112.136719 61.957031 L 112.136719 64.378906 L 100.648438 64.378906 C 100.410156 64.960938 100.050781 65.703125 99.5625 66.601562 L 110.300781 66.601562 L 110.171875 73.867188 L 112.933594 73.867188 Z M 91.4375 88.441406 L 89.113281 87.109375 C 91.832031 83.652344 93.664062 79.9375 94.605469 75.960938 L 96.734375 76.855469 C 96.019531 81.125 94.253906 84.984375 91.4375 88.441406 Z M 86.984375 81.257812 L 84.449219 81.257812 L 84.449219 62.523438 L 91.695312 62.523438 L 91.695312 68.179688 L 92.363281 67.675781 C 94.867188 68.910156 96.578125 70.464844 97.5 72.339844 L 95.433594 73.996094 C 94.535156 72.273438 93.289062 70.929688 91.695312 69.964844 L 91.695312 81.257812 L 89.179688 81.257812 L 89.179688 79.359375 L 86.984375 79.359375 Z M 93.144531 59.519531 C 95.09375 60.351562 96.664062 61.664062 97.855469 63.449219 L 95.96875 65.449219 C 95.082031 63.652344 93.527344 62.230469 91.308594 61.191406 Z M 130.394531 73.15625 C 130.394531 55.648438 116.199219 41.453125 98.691406 41.453125 C 96.835938 41.453125 95.019531 41.617188 93.25 41.921875 C 89.625 53.574219 79.976562 62.601562 67.964844 65.335938 C 67.328125 67.835938 66.992188 70.457031 66.992188 73.15625 C 66.992188 90.664062 81.183594 104.855469 98.691406 104.855469 C 102.847656 104.855469 106.8125 104.054688 110.449219 102.601562 L 130.394531 110.59375 L 125.753906 89.667969 C 128.695312 84.859375 130.394531 79.207031 130.394531 73.15625 " fill-opacity="1" fill-rule="nonzero"/></g><path fill="#304850" d="M 106.90625 72.792969 L 105.214844 73.867188 L 107.636719 73.867188 L 107.71875 69.136719 L 103.820312 69.136719 C 105.105469 70.035156 106.136719 71.257812 106.90625 72.792969 " fill-opacity="1" fill-rule="nonzero"/><path fill="#ff900e" d="M 71.410156 115.878906 C 71.136719 115.949219 70.878906 116.089844 70.632812 116.296875 C 70.386719 116.5 70.265625 116.789062 70.265625 117.15625 C 70.265625 117.539062 70.410156 117.863281 70.699219 118.132812 C 70.988281 118.398438 71.367188 118.53125 71.832031 118.53125 C 72.332031 118.53125 72.792969 118.425781 73.214844 118.207031 C 73.632812 117.988281 73.941406 117.707031 74.140625 117.359375 C 74.367188 116.980469 74.480469 116.351562 74.480469 115.480469 L 74.480469 115.117188 C 74.113281 115.253906 73.574219 115.398438 72.871094 115.546875 C 72.167969 115.699219 71.679688 115.808594 71.410156 115.878906 " fill-opacity="1" fill-rule="nonzero"/><path fill="#ff900e" d="M 56.148438 111.808594 C 55.65625 111.808594 55.222656 111.933594 54.847656 112.191406 C 54.472656 112.445312 54.183594 112.820312 53.980469 113.320312 C 53.777344 113.816406 53.675781 114.398438 53.675781 115.0625 C 53.675781 115.722656 53.777344 116.296875 53.976562 116.789062 C 54.175781 117.28125 54.460938 117.65625 54.832031 117.917969 C 55.207031 118.179688 55.644531 118.3125 56.148438 118.3125 C 56.910156 118.3125 57.519531 118.023438 57.96875 117.449219 C 58.421875 116.875 58.648438 116.078125 58.648438 115.0625 C 58.648438 114.035156 58.421875 113.238281 57.96875 112.664062 C 57.519531 112.09375 56.910156 111.808594 56.148438 111.808594 " fill-opacity="1" fill-rule="nonzero"/><g clip-path="url(#id2)"><path fill="#ff900e" d="M 82.683594 109.566406 L 82.285156 114.113281 C 82.246094 114.65625 82.152344 115.070312 82.011719 115.359375 C 81.867188 115.648438 81.636719 115.792969 81.308594 115.792969 C 80.976562 115.792969 80.746094 115.652344 80.617188 115.371094 C 80.488281 115.09375 80.394531 114.667969 80.339844 114.09375 L 80.046875 109.675781 C 79.988281 108.8125 79.960938 108.195312 79.960938 107.820312 C 79.960938 107.308594 80.097656 106.910156 80.363281 106.625 C 80.632812 106.339844 80.984375 106.195312 81.421875 106.195312 C 81.949219 106.195312 82.300781 106.378906 82.480469 106.746094 C 82.660156 107.113281 82.75 107.640625 82.75 108.328125 C 82.75 108.734375 82.726562 109.144531 82.683594 109.566406 Z M 82.332031 119.796875 C 82.058594 120.042969 81.734375 120.167969 81.363281 120.167969 C 80.988281 120.167969 80.660156 120.042969 80.382812 119.800781 C 80.101562 119.558594 79.960938 119.21875 79.960938 118.78125 C 79.960938 118.398438 80.097656 118.074219 80.363281 117.808594 C 80.632812 117.542969 80.957031 117.40625 81.34375 117.40625 C 81.734375 117.40625 82.0625 117.542969 82.335938 117.808594 C 82.613281 118.074219 82.75 118.398438 82.75 118.78125 C 82.75 119.214844 82.609375 119.550781 82.332031 119.796875 Z M 77.042969 119.867188 C 76.800781 120.078125 76.523438 120.183594 76.214844 120.183594 C 75.957031 120.183594 75.703125 120.0625 75.449219 119.820312 C 75.199219 119.578125 74.929688 119.222656 74.648438 118.761719 C 74.039062 119.238281 73.449219 119.59375 72.878906 119.828125 C 72.3125 120.066406 71.671875 120.183594 70.964844 120.183594 C 70.320312 120.183594 69.753906 120.054688 69.261719 119.800781 C 68.773438 119.546875 68.398438 119.199219 68.132812 118.761719 C 67.867188 118.328125 67.738281 117.851562 67.738281 117.34375 C 67.738281 116.652344 67.953125 116.066406 68.390625 115.582031 C 68.828125 115.09375 69.429688 114.769531 70.191406 114.601562 C 70.351562 114.566406 70.746094 114.480469 71.382812 114.355469 C 72.015625 114.222656 72.558594 114.105469 73.011719 113.996094 C 73.460938 113.890625 73.953125 113.757812 74.480469 113.605469 C 74.449219 112.941406 74.316406 112.453125 74.078125 112.144531 C 73.84375 111.832031 73.351562 111.675781 72.609375 111.675781 C 71.96875 111.675781 71.488281 111.765625 71.164062 111.945312 C 70.839844 112.125 70.566406 112.390625 70.335938 112.746094 C 70.101562 113.105469 69.941406 113.339844 69.84375 113.453125 C 69.75 113.566406 69.546875 113.625 69.230469 113.625 C 68.949219 113.625 68.703125 113.535156 68.496094 113.351562 C 68.292969 113.171875 68.1875 112.9375 68.1875 112.65625 C 68.1875 112.210938 68.34375 111.78125 68.660156 111.363281 C 68.972656 110.945312 69.460938 110.601562 70.125 110.332031 C 70.789062 110.058594 71.617188 109.925781 72.609375 109.925781 C 73.714844 109.925781 74.585938 110.054688 75.21875 110.316406 C 75.851562 110.578125 76.300781 110.992188 76.5625 111.558594 C 76.824219 112.125 76.953125 112.875 76.953125 113.808594 C 76.953125 114.398438 76.953125 114.902344 76.949219 115.3125 C 76.945312 115.726562 76.941406 116.183594 76.9375 116.6875 C 76.9375 117.160156 77.015625 117.65625 77.171875 118.167969 C 77.328125 118.683594 77.40625 119.011719 77.40625 119.160156 C 77.40625 119.417969 77.285156 119.652344 77.042969 119.867188 Z M 65.679688 118.652344 C 65.679688 119.164062 65.5625 119.546875 65.324219 119.800781 C 65.085938 120.054688 64.78125 120.183594 64.40625 120.183594 C 64.035156 120.183594 63.738281 120.050781 63.507812 119.789062 C 63.277344 119.523438 63.160156 119.144531 63.160156 118.652344 L 63.160156 107.726562 C 63.160156 107.222656 63.273438 106.84375 63.496094 106.585938 C 63.722656 106.324219 64.023438 106.195312 64.40625 106.195312 C 64.789062 106.195312 65.09375 106.324219 65.328125 106.578125 C 65.5625 106.835938 65.679688 107.21875 65.679688 107.726562 Z M 60.828125 117.140625 C 60.59375 117.773438 60.253906 118.316406 59.8125 118.773438 C 59.367188 119.226562 58.839844 119.578125 58.222656 119.820312 C 57.609375 120.0625 56.917969 120.183594 56.148438 120.183594 C 55.386719 120.183594 54.699219 120.0625 54.089844 119.816406 C 53.480469 119.570312 52.953125 119.21875 52.507812 118.757812 C 52.0625 118.300781 51.722656 117.757812 51.492188 117.136719 C 51.261719 116.511719 51.148438 115.820312 51.148438 115.0625 C 51.148438 114.300781 51.265625 113.601562 51.5 112.96875 C 51.730469 112.335938 52.066406 111.792969 52.503906 111.34375 C 52.941406 110.894531 53.46875 110.550781 54.089844 110.308594 C 54.710938 110.0625 55.398438 109.941406 56.148438 109.941406 C 56.910156 109.941406 57.601562 110.066406 58.222656 110.3125 C 58.84375 110.558594 59.378906 110.910156 59.820312 111.363281 C 60.261719 111.820312 60.601562 112.359375 60.832031 112.988281 C 61.0625 113.613281 61.175781 114.308594 61.175781 115.0625 C 61.175781 115.8125 61.058594 116.503906 60.828125 117.140625 Z M 48.980469 118.515625 C 48.980469 119.074219 48.851562 119.492188 48.589844 119.769531 C 48.332031 120.046875 48 120.183594 47.59375 120.183594 C 47.183594 120.183594 46.855469 120.042969 46.609375 119.765625 C 46.359375 119.484375 46.238281 119.066406 46.238281 118.515625 L 46.238281 113.964844 L 40.324219 113.964844 L 40.324219 118.515625 C 40.324219 119.074219 40.195312 119.492188 39.9375 119.769531 C 39.679688 120.046875 39.347656 120.183594 38.941406 120.183594 C 38.527344 120.183594 38.199219 120.042969 37.953125 119.765625 C 37.707031 119.484375 37.582031 119.066406 37.582031 118.515625 L 37.582031 107.859375 C 37.582031 107.304688 37.707031 106.886719 37.949219 106.613281 C 38.191406 106.335938 38.523438 106.195312 38.941406 106.195312 C 39.351562 106.195312 39.6875 106.332031 39.941406 106.605469 C 40.195312 106.882812 40.324219 107.296875 40.324219 107.859375 L 40.324219 111.734375 L 46.238281 111.734375 L 46.238281 107.859375 C 46.238281 107.304688 46.363281 106.886719 46.613281 106.613281 C 46.859375 106.335938 47.1875 106.195312 47.59375 106.195312 C 48.007812 106.195312 48.339844 106.332031 48.597656 106.605469 C 48.851562 106.882812 48.980469 107.296875 48.980469 107.859375 Z M 89.757812 106.480469 C 77.722656 103.25 68.265625 93.664062 65.226562 81.554688 C 63.101562 81.105469 60.898438 80.867188 58.640625 80.867188 C 41.132812 80.867188 26.941406 95.058594 26.941406 112.566406 C 26.941406 118.617188 28.636719 124.273438 31.578125 129.082031 L 26.941406 150.003906 L 46.882812 142.015625 C 50.519531 143.46875 54.488281 144.269531 58.640625 144.269531 C 76.148438 144.269531 90.34375 130.074219 90.34375 112.566406 C 90.34375 110.484375 90.140625 108.449219 89.757812 106.480469 " fill-opacity="1" fill-rule="nonzero"/></g></svg>