<svg xmlns="http://www.w3.org/2000/svg" xmlns:xlink="http://www.w3.org/1999/xlink" width="200" zoomAndPan="magnify" viewBox="0 0 150 149.999998" height="200" preserveAspectRatio="xMidYMid meet" version="1.0"><defs><clipPath id="id1"><path d="M 71.59375 86.132812 L 91.15625 86.132812 L 91.15625 88.34375 L 71.59375 88.34375 Z M 71.59375 86.132812 " clip-rule="nonzero"/></clipPath><clipPath id="id2"><path d="M 91.152344 84.882812 C 91.152344 84.882812 89.457031 88.085938 81.503906 88.179688 C 81.503906 88.179688 73.507812 88.898438 71.667969 85.371094 L 71.667969 81.484375 L 90.585938 80.324219 L 91.152344 84.882812 " clip-rule="nonzero"/></clipPath><clipPath id="id3"><path d="M 74.277344 82.183594 L 89.578125 82.183594 L 89.578125 88.183594 L 74.277344 88.183594 Z M 74.277344 82.183594 " clip-rule="nonzero"/></clipPath><clipPath id="id4"><path d="M 91.152344 84.882812 C 91.152344 84.882812 89.457031 88.085938 81.503906 88.179688 C 81.503906 88.179688 73.507812 88.898438 71.667969 85.371094 L 71.667969 81.484375 L 90.585938 80.324219 L 91.152344 84.882812 " clip-rule="nonzero"/></clipPath><clipPath id="id5"><path d="M 84.6875 100.824219 L 119 100.824219 L 119 149.347656 L 84.6875 149.347656 Z M 84.6875 100.824219 " clip-rule="nonzero"/></clipPath><clipPath id="id6"><path d="M 77.746094 105.089844 L 84.84375 105.089844 L 84.84375 149.347656 L 77.746094 149.347656 Z M 77.746094 105.089844 " clip-rule="nonzero"/></clipPath><clipPath id="id7"><path d="M 55.03125 58.804688 L 72.542969 58.804688 L 72.542969 76.335938 L 55.03125 76.335938 Z M 55.03125 58.804688 " clip-rule="nonzero"/></clipPath><clipPath id="id8"><path d="M 63.832031 76.300781 C 63.207031 76.300781 62.574219 76.234375 61.9375 76.09375 C 57.25 75.050781 54.292969 70.398438 55.332031 65.703125 C 56.230469 61.640625 59.824219 58.878906 63.8125 58.878906 C 64.4375 58.878906 65.070312 58.945312 65.707031 59.085938 C 70.394531 60.128906 73.351562 64.78125 72.3125 69.476562 C 71.410156 73.539062 67.820312 76.300781 63.832031 76.300781 " clip-rule="nonzero"/></clipPath><clipPath id="id9"><path d="M 63.832031 76.300781 C 63.207031 76.300781 62.574219 76.234375 61.9375 76.09375 C 57.25 75.050781 54.292969 70.398438 55.332031 65.703125 C 56.230469 61.640625 59.824219 58.878906 63.8125 58.878906 C 64.4375 58.878906 65.070312 58.945312 65.707031 59.085938 C 70.394531 60.128906 73.351562 64.78125 72.3125 69.476562 C 71.410156 73.539062 67.820312 76.300781 63.832031 76.300781 " clip-rule="nonzero"/></clipPath><clipPath id="id10"><path d="M 77.035156 59.695312 L 72.457031 80.339844 L 50.609375 75.484375 L 55.1875 54.839844 Z M 77.035156 59.695312 " clip-rule="nonzero"/></clipPath><radialGradient gradientTransform="matrix(-0.975529, -0.216837, -0.21652, 0.976957, 63.82132, 67.587327)" gradientUnits="userSpaceOnUse" r="8.702853" cx="0" id="id11" cy="0" fx="0" fy="0"><stop stop-opacity="1" stop-color="rgb(79.199219%, 26.298523%, 12.89978%)" offset="0"/><stop stop-opacity="1" stop-color="rgb(79.199219%, 26.298523%, 12.89978%)" offset="0.125"/><stop stop-opacity="1" stop-color="rgb(79.298401%, 26.298523%, 12.89978%)" offset="0.179688"/><stop stop-opacity="1" stop-color="rgb(79.498291%, 26.298523%, 12.89978%)" offset="0.191406"/><stop stop-opacity="1" stop-color="rgb(79.598999%, 26.490784%, 12.89978%)" offset="0.214844"/><stop stop-opacity="1" stop-color="rgb(79.598999%, 26.791382%, 12.799072%)" offset="0.226562"/><stop stop-opacity="1" stop-color="rgb(79.598999%, 26.997375%, 12.602234%)" offset="0.25"/><stop stop-opacity="1" stop-color="rgb(79.598999%, 27.175903%, 12.501526%)" offset="0.261719"/><stop stop-opacity="1" stop-color="rgb(79.598999%, 27.406311%, 12.5%)" offset="0.269531"/><stop stop-opacity="1" stop-color="rgb(79.598999%, 27.676392%, 12.5%)" offset="0.3125"/><stop stop-opacity="1" stop-color="rgb(79.598999%, 27.900696%, 12.5%)" offset="0.332031"/><stop stop-opacity="1" stop-color="rgb(79.598999%, 28.100586%, 12.5%)" offset="0.351562"/><stop stop-opacity="1" stop-color="rgb(79.598999%, 28.297424%, 12.5%)" offset="0.371094"/><stop stop-opacity="1" stop-color="rgb(79.598999%, 28.497314%, 12.5%)" offset="0.378906"/><stop stop-opacity="1" stop-color="rgb(79.598999%, 28.695679%, 12.5%)" offset="0.414062"/><stop stop-opacity="1" stop-color="rgb(79.598999%, 28.942871%, 12.5%)" offset="0.421875"/><stop stop-opacity="1" stop-color="rgb(79.598999%, 29.244995%, 12.5%)" offset="0.4375"/><stop stop-opacity="1" stop-color="rgb(79.598999%, 29.499817%, 12.5%)" offset="0.472656"/><stop stop-opacity="1" stop-color="rgb(79.598999%, 29.699707%, 12.5%)" offset="0.476562"/><stop stop-opacity="1" stop-color="rgb(79.598999%, 29.946899%, 12.388611%)" offset="0.492188"/><stop stop-opacity="1" stop-color="rgb(79.736328%, 30.14679%, 12.237549%)" offset="0.507812"/><stop stop-opacity="1" stop-color="rgb(79.943848%, 30.206299%, 12.199402%)" offset="0.519531"/><stop stop-opacity="1" stop-color="rgb(80.206299%, 30.406189%, 12.199402%)" offset="0.523438"/><stop stop-opacity="1" stop-color="rgb(80.39856%, 30.662537%, 12.199402%)" offset="0.550781"/><stop stop-opacity="1" stop-color="rgb(80.39856%, 30.862427%, 12.199402%)" offset="0.5625"/><stop stop-opacity="1" stop-color="rgb(80.39856%, 31.065369%, 12.199402%)" offset="0.574219"/><stop stop-opacity="1" stop-color="rgb(80.39856%, 31.265259%, 12.199402%)" offset="0.585938"/><stop stop-opacity="1" stop-color="rgb(80.39856%, 31.494141%, 12.199402%)" offset="0.609375"/><stop stop-opacity="1" stop-color="rgb(80.39856%, 31.732178%, 12.199402%)" offset="0.632812"/><stop stop-opacity="1" stop-color="rgb(80.39856%, 32.037354%, 12.199402%)" offset="0.640625"/><stop stop-opacity="1" stop-color="rgb(80.39856%, 32.348633%, 12.199402%)" offset="0.683594"/><stop stop-opacity="1" stop-color="rgb(80.39856%, 32.548523%, 12.149048%)" offset="0.703125"/><stop stop-opacity="1" stop-color="rgb(80.39856%, 32.748413%, 11.949158%)" offset="0.71875"/><stop stop-opacity="1" stop-color="rgb(80.39856%, 32.948303%, 11.799622%)" offset="0.734375"/><stop stop-opacity="1" stop-color="rgb(80.39856%, 33.148193%, 11.799622%)" offset="0.75"/><stop stop-opacity="1" stop-color="rgb(80.470276%, 33.370972%, 11.799622%)" offset="0.765625"/><stop stop-opacity="1" stop-color="rgb(80.671692%, 33.639526%, 11.799622%)" offset="0.777344"/><stop stop-opacity="1" stop-color="rgb(80.799866%, 33.966064%, 11.799622%)" offset="0.789062"/><stop stop-opacity="1" stop-color="rgb(80.799866%, 34.257507%, 11.799622%)" offset="0.8125"/><stop stop-opacity="1" stop-color="rgb(80.799866%, 34.457397%, 11.799622%)" offset="0.835938"/><stop stop-opacity="1" stop-color="rgb(80.799866%, 34.649658%, 11.799622%)" offset="0.855469"/><stop stop-opacity="1" stop-color="rgb(80.799866%, 34.851074%, 11.799622%)" offset="0.871094"/><stop stop-opacity="1" stop-color="rgb(80.799866%, 35.03418%, 11.799622%)" offset="0.886719"/><stop stop-opacity="1" stop-color="rgb(80.935669%, 35.23407%, 11.799622%)" offset="0.898438"/><stop stop-opacity="1" stop-color="rgb(81.135559%, 35.398865%, 11.799622%)" offset="0.910156"/><stop stop-opacity="1" stop-color="rgb(81.199646%, 35.665894%, 11.799622%)" offset="0.917969"/><stop stop-opacity="1" stop-color="rgb(81.199646%, 35.992432%, 11.799622%)" offset="0.957031"/><stop stop-opacity="1" stop-color="rgb(81.199646%, 36.325073%, 11.799622%)" offset="0.976562"/><stop stop-opacity="1" stop-color="rgb(81.199646%, 36.499023%, 11.799622%)" offset="1"/></radialGradient><clipPath id="id12"><path d="M 91.15625 58.644531 L 108.664062 58.644531 L 108.664062 76.179688 L 91.15625 76.179688 Z M 91.15625 58.644531 " clip-rule="nonzero"/></clipPath><clipPath id="id13"><path d="M 99.867188 76.164062 C 99.246094 76.164062 98.609375 76.097656 97.976562 75.957031 C 93.289062 74.914062 90.332031 70.261719 91.371094 65.566406 C 92.269531 61.507812 95.867188 58.742188 99.851562 58.742188 C 100.476562 58.742188 101.109375 58.8125 101.746094 58.953125 C 106.433594 59.992188 109.390625 64.644531 108.351562 69.339844 C 107.449219 73.402344 103.855469 76.164062 99.867188 76.164062 " clip-rule="nonzero"/></clipPath><clipPath id="id14"><path d="M 99.867188 76.164062 C 99.246094 76.164062 98.609375 76.097656 97.976562 75.957031 C 93.289062 74.914062 90.332031 70.261719 91.371094 65.566406 C 92.269531 61.507812 95.867188 58.742188 99.851562 58.742188 C 100.476562 58.742188 101.109375 58.8125 101.746094 58.953125 C 106.433594 59.992188 109.390625 64.644531 108.351562 69.339844 C 107.449219 73.402344 103.855469 76.164062 99.867188 76.164062 " clip-rule="nonzero"/></clipPath><clipPath id="id15"><path d="M 113.070312 59.5625 L 108.496094 80.203125 L 86.648438 75.347656 L 91.226562 54.703125 Z M 113.070312 59.5625 " clip-rule="nonzero"/></clipPath><radialGradient gradientTransform="matrix(-0.975526, -0.216854, -0.216537, 0.976953, 99.863174, 67.457284)" gradientUnits="userSpaceOnUse" r="8.703011" cx="0" id="id16" cy="0" fx="0" fy="0"><stop stop-opacity="1" stop-color="rgb(79.199219%, 26.298523%, 12.89978%)" offset="0"/><stop stop-opacity="1" stop-color="rgb(79.199219%, 26.298523%, 12.89978%)" offset="0.125"/><stop stop-opacity="1" stop-color="rgb(79.298401%, 26.298523%, 12.89978%)" offset="0.179688"/><stop stop-opacity="1" stop-color="rgb(79.498291%, 26.298523%, 12.89978%)" offset="0.191406"/><stop stop-opacity="1" stop-color="rgb(79.598999%, 26.490784%, 12.89978%)" offset="0.214844"/><stop stop-opacity="1" stop-color="rgb(79.598999%, 26.791382%, 12.799072%)" offset="0.226562"/><stop stop-opacity="1" stop-color="rgb(79.598999%, 26.997375%, 12.602234%)" offset="0.25"/><stop stop-opacity="1" stop-color="rgb(79.598999%, 27.175903%, 12.501526%)" offset="0.261719"/><stop stop-opacity="1" stop-color="rgb(79.598999%, 27.406311%, 12.5%)" offset="0.269531"/><stop stop-opacity="1" stop-color="rgb(79.598999%, 27.676392%, 12.5%)" offset="0.3125"/><stop stop-opacity="1" stop-color="rgb(79.598999%, 27.900696%, 12.5%)" offset="0.332031"/><stop stop-opacity="1" stop-color="rgb(79.598999%, 28.100586%, 12.5%)" offset="0.351562"/><stop stop-opacity="1" stop-color="rgb(79.598999%, 28.297424%, 12.5%)" offset="0.371094"/><stop stop-opacity="1" stop-color="rgb(79.598999%, 28.497314%, 12.5%)" offset="0.378906"/><stop stop-opacity="1" stop-color="rgb(79.598999%, 28.695679%, 12.5%)" offset="0.414062"/><stop stop-opacity="1" stop-color="rgb(79.598999%, 28.942871%, 12.5%)" offset="0.421875"/><stop stop-opacity="1" stop-color="rgb(79.598999%, 29.244995%, 12.5%)" offset="0.4375"/><stop stop-opacity="1" stop-color="rgb(79.598999%, 29.499817%, 12.5%)" offset="0.472656"/><stop stop-opacity="1" stop-color="rgb(79.598999%, 29.699707%, 12.5%)" offset="0.476562"/><stop stop-opacity="1" stop-color="rgb(79.598999%, 29.946899%, 12.388611%)" offset="0.492188"/><stop stop-opacity="1" stop-color="rgb(79.736328%, 30.14679%, 12.237549%)" offset="0.507812"/><stop stop-opacity="1" stop-color="rgb(79.943848%, 30.206299%, 12.199402%)" offset="0.519531"/><stop stop-opacity="1" stop-color="rgb(80.206299%, 30.406189%, 12.199402%)" offset="0.523438"/><stop stop-opacity="1" stop-color="rgb(80.39856%, 30.662537%, 12.199402%)" offset="0.550781"/><stop stop-opacity="1" stop-color="rgb(80.39856%, 30.862427%, 12.199402%)" offset="0.5625"/><stop stop-opacity="1" stop-color="rgb(80.39856%, 31.065369%, 12.199402%)" offset="0.574219"/><stop stop-opacity="1" stop-color="rgb(80.39856%, 31.265259%, 12.199402%)" offset="0.585938"/><stop stop-opacity="1" stop-color="rgb(80.39856%, 31.494141%, 12.199402%)" offset="0.609375"/><stop stop-opacity="1" stop-color="rgb(80.39856%, 31.732178%, 12.199402%)" offset="0.632812"/><stop stop-opacity="1" stop-color="rgb(80.39856%, 32.037354%, 12.199402%)" offset="0.640625"/><stop stop-opacity="1" stop-color="rgb(80.39856%, 32.348633%, 12.199402%)" offset="0.683594"/><stop stop-opacity="1" stop-color="rgb(80.39856%, 32.548523%, 12.149048%)" offset="0.703125"/><stop stop-opacity="1" stop-color="rgb(80.39856%, 32.748413%, 11.949158%)" offset="0.71875"/><stop stop-opacity="1" stop-color="rgb(80.39856%, 32.948303%, 11.799622%)" offset="0.734375"/><stop stop-opacity="1" stop-color="rgb(80.39856%, 33.148193%, 11.799622%)" offset="0.75"/><stop stop-opacity="1" stop-color="rgb(80.470276%, 33.370972%, 11.799622%)" offset="0.765625"/><stop stop-opacity="1" stop-color="rgb(80.671692%, 33.639526%, 11.799622%)" offset="0.777344"/><stop stop-opacity="1" stop-color="rgb(80.799866%, 33.966064%, 11.799622%)" offset="0.789062"/><stop stop-opacity="1" stop-color="rgb(80.799866%, 34.257507%, 11.799622%)" offset="0.8125"/><stop stop-opacity="1" stop-color="rgb(80.799866%, 34.457397%, 11.799622%)" offset="0.835938"/><stop stop-opacity="1" stop-color="rgb(80.799866%, 34.649658%, 11.799622%)" offset="0.855469"/><stop stop-opacity="1" stop-color="rgb(80.799866%, 34.851074%, 11.799622%)" offset="0.871094"/><stop stop-opacity="1" stop-color="rgb(80.799866%, 35.03418%, 11.799622%)" offset="0.886719"/><stop stop-opacity="1" stop-color="rgb(80.935669%, 35.23407%, 11.799622%)" offset="0.898438"/><stop stop-opacity="1" stop-color="rgb(81.135559%, 35.398865%, 11.799622%)" offset="0.910156"/><stop stop-opacity="1" stop-color="rgb(81.199646%, 35.665894%, 11.799622%)" offset="0.917969"/><stop stop-opacity="1" stop-color="rgb(81.199646%, 35.992432%, 11.799622%)" offset="0.957031"/><stop stop-opacity="1" stop-color="rgb(81.199646%, 36.325073%, 11.799622%)" offset="0.976562"/><stop stop-opacity="1" stop-color="rgb(81.199646%, 36.499023%, 11.799622%)" offset="1"/></radialGradient><clipPath id="id17"><path d="M 40.679688 2 L 127.046875 2 L 127.046875 18.679688 L 40.679688 18.679688 Z M 40.679688 2 " clip-rule="nonzero"/></clipPath><clipPath id="id18"><path d="M 40.835938 0.0390625 L 127.046875 0.0390625 L 127.046875 16.625 L 40.835938 16.625 Z M 40.835938 0.0390625 " clip-rule="nonzero"/></clipPath></defs><path fill="#faba97" d="M 100.539062 104.484375 L 103.414062 112.949219 C 103.414062 112.949219 111.730469 111.527344 112.089844 108.566406 L 109.570312 100.988281 L 100.539062 104.484375 " fill-opacity="1" fill-rule="nonzero"/><path fill="#253770" d="M 66.515625 85.71875 C 66.515625 85.71875 56.300781 85.679688 53.652344 94.796875 C 51.941406 100.699219 47.335938 112.410156 47.363281 118.554688 C 47.378906 122.15625 54.496094 130.125 61.285156 122.171875 C 61.285156 122.171875 64.882812 102.925781 65.335938 101.015625 C 66.640625 95.558594 66.515625 85.71875 66.515625 85.71875 " fill-opacity="1" fill-rule="nonzero"/><path fill="#253770" d="M 97.191406 85.515625 C 97.191406 85.515625 104.613281 87.941406 109.140625 95.683594 C 109.140625 95.683594 120.414062 112.683594 120.148438 118.28125 C 119.9375 122.636719 112.519531 130.261719 105.820312 120.699219 C 105.820312 120.699219 97.152344 100.921875 95.921875 96.429688 C 94.378906 90.804688 97.191406 85.515625 97.191406 85.515625 " fill-opacity="1" fill-rule="nonzero"/><path fill="#fffeff" d="M 63.078125 125.546875 C 77.351562 131.277344 99.554688 125.542969 99.554688 125.542969 C 99.4375 112.953125 98.058594 90.40625 96.199219 86.746094 C 95.296875 85.929688 92.574219 85.707031 92.574219 85.707031 C 92.46875 85.695312 92.367188 85.683594 92.265625 85.671875 C 83.613281 84.6875 74.855469 85.34375 70.144531 85.863281 C 67.933594 86.105469 66.617188 86.316406 66.617188 86.316406 C 63.007812 101.859375 63.078125 125.546875 63.078125 125.546875 " fill-opacity="1" fill-rule="nonzero"/><path fill="#1c3156" d="M 79.246094 89.441406 L 80.335938 92.320312 L 82.300781 92.320312 L 83.457031 89.441406 L 79.246094 89.441406 " fill-opacity="1" fill-rule="nonzero"/><path fill="#1c3156" d="M 80.335938 92.320312 C 80.335938 92.320312 79.171875 95.972656 78.859375 101.804688 L 81.351562 106.003906 L 83.90625 101.804688 C 83.90625 101.804688 83.410156 93.640625 82.300781 92.320312 L 80.335938 92.320312 " fill-opacity="1" fill-rule="nonzero"/><path fill="#212843" d="M 99.554688 125.542969 L 88.152344 130.890625 L 81.316406 126.121094 L 73.96875 130.890625 L 63.078125 125.546875 C 63.078125 125.546875 63.007812 101.859375 66.613281 86.316406 C 66.613281 86.316406 67.933594 86.105469 70.144531 85.863281 C 70.9375 85.773438 71.847656 85.683594 72.847656 85.597656 L 81.410156 104.96875 L 89.917969 85.445312 C 90.699219 85.507812 91.484375 85.582031 92.265625 85.671875 C 92.367188 85.683594 92.46875 85.695312 92.574219 85.707031 C 92.574219 85.707031 95.296875 85.929688 96.199219 86.746094 C 98.058594 90.40625 99.4375 112.953125 99.554688 125.542969 " fill-opacity="1" fill-rule="nonzero"/><path fill="#253770" d="M 104.292969 140.855469 C 104.292969 140.855469 92.199219 155.21875 58.1875 142.144531 C 58.1875 142.144531 61.4375 122.988281 61.730469 115.867188 C 62.027344 108.746094 65.757812 85.734375 65.757812 85.734375 L 70.050781 85.644531 L 72.054688 85.601562 L 73.472656 85.570312 L 82.410156 102.050781 L 90.816406 85.445312 L 92.730469 85.464844 L 94.722656 85.488281 L 97.191406 85.515625 L 104.292969 140.855469 " fill-opacity="1" fill-rule="nonzero"/><path fill="#29529f" d="M 94.722656 85.488281 L 82.613281 109.671875 L 70.050781 85.644531 L 72.054688 85.601562 L 82.582031 105.734375 L 92.730469 85.464844 L 94.722656 85.488281 " fill-opacity="1" fill-rule="nonzero"/><path fill="#d4d3d2" d="M 90.777344 85.519531 C 90.714844 85.511719 90.652344 85.507812 90.589844 85.5 C 90.226562 85.46875 89.859375 85.4375 89.496094 85.410156 L 91.941406 85.371094 L 91.960938 85.457031 L 90.816406 85.445312 L 90.777344 85.519531 " fill-opacity="1" fill-rule="nonzero"/><path fill="#d5d2d1" d="M 85.652344 95.238281 L 82.660156 91.425781 L 83.457031 89.441406 L 79.246094 89.441406 L 80.015625 91.472656 L 77.859375 93.664062 L 73.519531 85.664062 L 89.496094 85.410156 C 89.859375 85.4375 90.226562 85.46875 90.589844 85.5 C 90.367188 85.480469 90.140625 85.460938 89.917969 85.445312 L 85.652344 95.238281 " fill-opacity="1" fill-rule="nonzero"/><path fill="#172944" d="M 80.015625 91.472656 L 79.246094 89.441406 L 83.457031 89.441406 L 82.660156 91.425781 L 81.503906 89.953125 L 80.015625 91.472656 " fill-opacity="1" fill-rule="nonzero"/><path fill="#1c2235" d="M 85.777344 95.398438 L 85.652344 95.238281 L 89.917969 85.445312 C 90.140625 85.460938 90.367188 85.480469 90.589844 85.5 C 90.652344 85.507812 90.714844 85.511719 90.777344 85.519531 L 85.777344 95.398438 " fill-opacity="1" fill-rule="nonzero"/><path fill="#1f2e5a" d="M 75.3125 96.261719 L 70.550781 90.082031 L 70.859375 87.1875 L 75.503906 96.070312 L 75.3125 96.261719 M 86.089844 95.796875 L 85.777344 95.398438 L 90.777344 85.519531 L 90.816406 85.445312 L 91.960938 85.457031 L 92.222656 86.476562 L 88.4375 94.035156 L 86.089844 95.796875 M 76.824219 94.722656 L 72.097656 85.6875 L 73.519531 85.664062 L 77.859375 93.664062 L 76.824219 94.722656 M 91.644531 91.632812 L 92.894531 89.140625 L 93.226562 90.453125 L 91.644531 91.632812 " fill-opacity="1" fill-rule="nonzero"/><path fill="#224580" d="M 75.503906 96.070312 L 70.859375 87.1875 L 71.019531 85.703125 L 72.097656 85.6875 L 76.824219 94.722656 L 75.503906 96.070312 M 88.4375 94.035156 L 92.222656 86.476562 L 92.894531 89.140625 L 91.644531 91.632812 L 88.4375 94.035156 " fill-opacity="1" fill-rule="nonzero"/><path fill="#fffeff" d="M 71.019531 84.714844 L 91.941406 84.382812 L 93.082031 90.082031 L 86.089844 94.808594 L 81.503906 88.964844 L 75.3125 95.273438 L 70.550781 90.082031 L 71.019531 84.714844 " fill-opacity="1" fill-rule="nonzero"/><path fill="#b8b0cf" d="M 71.667969 85.371094 L 91.152344 84.882812 C 91.152344 84.882812 89.457031 88.085938 81.503906 88.179688 C 81.503906 88.179688 73.507812 88.898438 71.667969 85.371094 " fill-opacity="1" fill-rule="nonzero"/><g clip-path="url(#id1)"><g clip-path="url(#id2)"><path fill="#913d1c" d="M 91.941406 86.191406 C 91.941406 86.191406 87.601562 92.347656 80.746094 91.6875 C 80.746094 91.6875 74.816406 91.675781 71.667969 86.730469 L 91.941406 86.191406 " fill-opacity="1" fill-rule="nonzero"/></g></g><g clip-path="url(#id3)"><g clip-path="url(#id4)"><path fill="#913d1c" d="M 89.496094 88.179688 L 74.277344 88.179688 L 74.277344 82.207031 L 89.496094 82.207031 L 89.496094 88.179688 " fill-opacity="1" fill-rule="nonzero"/></g></g><path fill="#232221" d="M 53.128906 124.753906 C 44.554688 124.339844 49.449219 107.160156 49.449219 107.160156 L 49.515625 107.828125 C 49.515625 107.828125 50.640625 113.972656 56.300781 113.972656 C 62.230469 113.972656 61.40625 108.726562 61.242188 107.160156 C 63.265625 121.179688 61.699219 125.167969 53.128906 124.753906 " fill-opacity="1" fill-rule="nonzero"/><path fill="#f9f6c9" d="M 44.585938 100.960938 L 45.273438 99.667969 C 45.273438 99.667969 46.003906 97.285156 47.199219 96.984375 C 47.199219 96.984375 48.207031 96.488281 48.484375 96.089844 C 48.484375 96.089844 56.738281 99.269531 63.894531 99.269531 C 71.050781 99.269531 80.292969 101.703125 81.296875 103.445312 L 81.296875 107.417969 L 44.585938 100.960938 " fill-opacity="1" fill-rule="nonzero"/><path fill="#f9f6c9" d="M 118.007812 100.960938 L 117.320312 99.667969 C 117.320312 99.667969 116.589844 97.285156 115.394531 96.984375 C 115.394531 96.984375 114.386719 96.488281 114.109375 96.089844 C 114.109375 96.089844 105.855469 99.269531 98.699219 99.269531 C 91.542969 99.269531 82.300781 101.703125 81.296875 103.445312 L 81.296875 107.417969 L 118.007812 100.960938 " fill-opacity="1" fill-rule="nonzero"/><path fill="#1c3156" d="M 43.621094 100.832031 L 77.878906 105.566406 L 77.878906 149.28125 L 45.945312 140.207031 L 43.621094 100.832031 " fill-opacity="1" fill-rule="nonzero"/><g clip-path="url(#id5)"><path fill="#1c3156" d="M 118.972656 100.832031 L 84.824219 105.628906 L 84.824219 149.347656 L 116.648438 140.207031 L 118.972656 100.832031 " fill-opacity="1" fill-rule="nonzero"/></g><g clip-path="url(#id6)"><path fill="#253770" d="M 84.714844 105.628906 L 84.714844 149.347656 C 84.714844 149.054688 83.183594 148.816406 81.296875 148.816406 C 79.410156 148.816406 77.878906 149.054688 77.878906 149.347656 L 77.878906 105.628906 C 77.878906 105.335938 79.410156 105.097656 81.296875 105.097656 C 83.183594 105.097656 84.714844 105.335938 84.714844 105.628906 " fill-opacity="1" fill-rule="nonzero"/></g><path fill="#e4dcac" d="M 104.320312 99.542969 L 104.292969 99.382812 C 106.703125 98.917969 114.316406 96.890625 114.394531 96.871094 L 114.429688 97.03125 C 114.351562 97.050781 106.738281 99.078125 104.320312 99.542969 " fill-opacity="1" fill-rule="nonzero"/><path fill="#e4dcac" d="M 82.238281 104.058594 L 82.171875 103.914062 C 82.203125 103.898438 85.21875 102.308594 88.195312 101.601562 L 88.226562 101.757812 C 85.269531 102.460938 82.269531 104.042969 82.238281 104.058594 " fill-opacity="1" fill-rule="nonzero"/><path fill="#e4dcac" d="M 83.167969 104.71875 L 83.09375 104.578125 C 83.105469 104.570312 84.417969 103.753906 87.351562 102.878906 C 90.054688 102.074219 94.730469 101.050781 101.660156 100.75 C 101.757812 100.738281 111.820312 99.597656 115.320312 97.664062 L 115.386719 97.808594 C 111.863281 99.757812 101.773438 100.898438 101.671875 100.910156 C 88.445312 101.484375 83.21875 104.6875 83.167969 104.71875 " fill-opacity="1" fill-rule="nonzero"/><path fill="#e4dcac" d="M 109.707031 101.273438 L 109.683594 101.113281 C 111.976562 100.726562 116.664062 99.398438 116.714844 99.386719 L 116.75 99.542969 C 116.703125 99.558594 112.007812 100.882812 109.707031 101.273438 " fill-opacity="1" fill-rule="nonzero"/><path fill="#e4dcac" d="M 58.628906 99.546875 C 54.242188 99.3125 48.429688 97.050781 48.371094 97.027344 L 48.425781 96.875 C 48.480469 96.898438 54.273438 99.152344 58.636719 99.382812 L 58.628906 99.546875 " fill-opacity="1" fill-rule="nonzero"/><path fill="#e4dcac" d="M 54.417969 99.546875 C 50.96875 99.078125 46.972656 97.828125 46.933594 97.816406 L 46.976562 97.65625 C 47.015625 97.671875 51 98.917969 54.433594 99.382812 L 54.417969 99.546875 " fill-opacity="1" fill-rule="nonzero"/><path fill="#e4dcac" d="M 79.949219 104.710938 C 79.738281 104.519531 75.945312 103.144531 73.207031 102.914062 L 73.21875 102.75 C 75.941406 102.980469 79.773438 104.339844 80.046875 104.585938 L 79.949219 104.710938 " fill-opacity="1" fill-rule="nonzero"/><path fill="#211d1d" d="M 51.222656 63.058594 C 51.222656 63.058594 36.015625 50.089844 37.523438 65.375 C 37.523438 65.375 22.800781 66.804688 31.371094 75.9375 C 31.371094 75.9375 26.316406 86.726562 37.003906 85.308594 C 37.003906 85.308594 35.96875 92.285156 42.90625 91.082031 C 42.90625 91.082031 43.773438 101.867188 53.714844 94.078125 C 53.714844 94.078125 64.101562 97.253906 58.847656 86.632812 C 58.847656 86.632812 67.894531 89.207031 63.023438 80.238281 L 51.222656 63.058594 " fill-opacity="1" fill-rule="nonzero"/><path fill="#253770" d="M 49.832031 61.523438 C 49.832031 61.523438 43.9375 83.171875 67.351562 80.578125 L 49.832031 61.523438 " fill-opacity="1" fill-rule="nonzero"/><path fill="#cf5c1e" d="M 111.109375 56.882812 C 111.109375 56.882812 115.914062 53.941406 117.539062 57.605469 C 118.925781 60.734375 117.746094 69.007812 109.113281 68.382812 L 111.109375 56.882812 " fill-opacity="1" fill-rule="nonzero"/><path fill="#cf5c1e" d="M 51.726562 56.546875 C 51.726562 56.546875 46.90625 53.625 45.296875 57.292969 C 43.925781 60.425781 45.136719 68.699219 53.769531 68.035156 L 51.726562 56.546875 " fill-opacity="1" fill-rule="nonzero"/><path fill="#cf5c1e" d="M 51.5 54.277344 C 51.464844 58.992188 51.96875 65.152344 54.390625 70.738281 C 58.09375 79.296875 66.300781 86.515625 83.960938 85.15625 C 92.3125 84.511719 98.257812 81.96875 102.472656 78.488281 C 102.78125 78.238281 103.074219 77.980469 103.363281 77.71875 C 104.351562 76.820312 105.238281 75.867188 106.027344 74.875 C 111.484375 68.03125 112.476562 59.335938 112.433594 53.664062 C 112.410156 50.125 111.980469 47.765625 111.980469 47.765625 C 111.980469 47.765625 112.195312 24.675781 84.09375 21.609375 C 55.988281 18.539062 51.746094 48.992188 51.746094 48.992188 C 51.640625 50.34375 51.515625 52.167969 51.5 54.277344 " fill-opacity="1" fill-rule="nonzero"/><g clip-path="url(#id7)"><g clip-path="url(#id8)"><g clip-path="url(#id9)"><g clip-path="url(#id10)"><path fill="url(#id11)" d="M 76.222656 59.695312 L 71.71875 80.011719 L 51.351562 75.484375 L 55.855469 55.167969 Z M 76.222656 59.695312 " fill-rule="nonzero"/></g></g></g></g><g clip-path="url(#id12)"><g clip-path="url(#id13)"><g clip-path="url(#id14)"><g clip-path="url(#id15)"><path fill="url(#id16)" d="M 112.34375 59.5625 L 107.84375 79.875 L 87.476562 75.347656 L 91.976562 55.035156 Z M 112.34375 59.5625 " fill-rule="nonzero"/></g></g></g></g><path fill="#913d1c" d="M 84.316406 65.421875 C 83.667969 64.316406 82.335938 63.382812 81.003906 63.71875 C 80.667969 63.789062 78.296875 65.347656 79.125 65.789062 C 79.414062 65.945312 81.058594 64.574219 81.628906 64.574219 C 82.414062 64.605469 83.132812 65.105469 83.703125 65.601562 C 83.890625 65.765625 84.632812 65.949219 84.316406 65.421875 " fill-opacity="1" fill-rule="nonzero"/><path fill="#913d1c" d="M 50.886719 64.730469 C 51.058594 64.730469 51.226562 64.632812 51.304688 64.46875 C 51.410156 64.238281 51.3125 63.964844 51.082031 63.855469 C 50.011719 63.347656 48.75 62.292969 48.527344 61.167969 C 48.417969 60.609375 48.574219 60.105469 49.015625 59.621094 C 49.644531 58.921875 50.59375 59.613281 50.632812 59.644531 C 50.839844 59.796875 51.125 59.753906 51.277344 59.550781 C 51.429688 59.34375 51.382812 59.058594 51.183594 58.90625 C 50.609375 58.480469 49.277344 57.957031 48.332031 59.003906 C 47.703125 59.699219 47.460938 60.507812 47.628906 61.347656 C 47.914062 62.792969 49.375 64.066406 50.691406 64.6875 C 50.757812 64.71875 50.824219 64.730469 50.886719 64.730469 " fill-opacity="1" fill-rule="nonzero"/><path fill="#913d1c" d="M 112.902344 64.878906 C 112.730469 64.878906 112.5625 64.785156 112.484375 64.617188 C 112.375 64.386719 112.472656 64.113281 112.703125 64.003906 C 113.773438 63.492188 115.027344 62.429688 115.25 61.304688 C 115.355469 60.75 115.195312 60.242188 114.753906 59.761719 C 114.121094 59.066406 113.175781 59.761719 113.132812 59.792969 C 112.929688 59.945312 112.644531 59.902344 112.492188 59.699219 C 112.339844 59.496094 112.382812 59.207031 112.585938 59.054688 C 113.152344 58.628906 114.484375 58.097656 115.433594 59.140625 C 116.066406 59.832031 116.3125 60.644531 116.148438 61.480469 C 115.867188 62.929688 114.414062 64.207031 113.097656 64.835938 C 113.035156 64.867188 112.96875 64.878906 112.902344 64.878906 " fill-opacity="1" fill-rule="nonzero"/><path fill="#ffffff" d="M 91.535156 59.34375 C 91.609375 62.609375 95.0625 63.910156 98.335938 63.835938 C 102.753906 63.734375 103.429688 61.277344 103.378906 59.074219 C 103.304688 55.808594 100.59375 53.21875 97.324219 53.292969 C 94.050781 53.371094 91.460938 56.078125 91.535156 59.34375 " fill-opacity="1" fill-rule="nonzero"/><path fill="#211d1d" d="M 90.972656 58.875 C 91.035156 61.707031 93.378906 63.949219 96.207031 63.886719 C 99.03125 63.820312 101.269531 61.472656 101.207031 58.644531 C 101.144531 55.8125 98.800781 53.570312 95.972656 53.636719 C 93.144531 53.699219 90.90625 56.046875 90.972656 58.875 " fill-opacity="1" fill-rule="nonzero"/><path fill="#ffffff" d="M 95.792969 56.246094 C 95.808594 57.007812 95.207031 57.636719 94.445312 57.65625 C 93.6875 57.671875 93.054688 57.070312 93.039062 56.308594 C 93.019531 55.546875 93.625 54.914062 94.382812 54.898438 C 95.144531 54.878906 95.773438 55.484375 95.792969 56.246094 " fill-opacity="1" fill-rule="nonzero"/><path fill="#352019" d="M 92.625 54.292969 C 94.960938 52.734375 98.253906 52.253906 100.839844 53.417969 C 101.714844 53.820312 102.515625 54.390625 103.171875 55.097656 C 103.375 55.308594 103.5625 55.53125 103.742188 55.761719 C 103.992188 56.082031 104.683594 56.828125 104.671875 57.25 C 104.632812 58.347656 104.402344 59.441406 103.980469 60.457031 C 103.671875 61.207031 103.238281 61.917969 102.675781 62.503906 C 102.304688 62.890625 101.324219 63.820312 100.71875 63.707031 C 100.007812 63.570312 101.292969 62.65625 101.417969 62.53125 C 101.882812 62.019531 102.257812 61.445312 102.527344 60.808594 C 102.980469 59.738281 103.230469 58.539062 103.238281 57.378906 C 103.269531 57.5 103.300781 57.617188 103.332031 57.738281 C 102.460938 56.335938 101.378906 55.121094 99.808594 54.480469 C 98.488281 53.949219 97.039062 53.878906 95.644531 54.066406 C 94.890625 54.171875 94.152344 54.347656 93.429688 54.574219 C 93.28125 54.621094 93.023438 54.773438 92.871094 54.769531 C 92.585938 54.878906 92.359375 54.46875 92.625 54.292969 C 92.75 54.210938 92.523438 54.359375 92.625 54.292969 " fill-opacity="1" fill-rule="nonzero"/><path fill="#352019" d="M 103.8125 57.734375 C 104.621094 57.746094 105.457031 57.507812 106.128906 57.050781 C 106.371094 56.886719 107.585938 55.515625 106.882812 55.671875 C 106.726562 55.707031 106.394531 56.175781 106.210938 56.296875 C 105.738281 56.566406 105.214844 56.683594 104.667969 56.675781 C 104.382812 56.667969 104.011719 56.519531 103.722656 56.601562 C 103.132812 56.769531 103.199219 57.660156 103.8125 57.734375 " fill-opacity="1" fill-rule="nonzero"/><path fill="#ffffff" d="M 72.019531 58.914062 C 71.957031 62.179688 68.507812 63.5 65.238281 63.4375 C 60.816406 63.355469 60.132812 60.898438 60.175781 58.695312 C 60.234375 55.429688 62.933594 52.832031 66.207031 52.890625 C 69.476562 52.953125 72.078125 55.648438 72.019531 58.914062 " fill-opacity="1" fill-rule="nonzero"/><path fill="#211d1d" d="M 72.578125 58.449219 C 72.527344 61.277344 70.191406 63.53125 67.367188 63.476562 C 64.539062 63.425781 62.289062 61.085938 62.34375 58.257812 C 62.398438 55.425781 64.730469 53.171875 67.558594 53.226562 C 70.382812 53.277344 72.632812 55.617188 72.578125 58.449219 " fill-opacity="1" fill-rule="nonzero"/><path fill="#ffffff" d="M 67.75 55.835938 C 67.734375 56.597656 68.339844 57.226562 69.101562 57.242188 C 69.859375 57.253906 70.488281 56.648438 70.503906 55.886719 C 70.515625 55.125 69.910156 54.496094 69.152344 54.480469 C 68.390625 54.46875 67.761719 55.074219 67.75 55.835938 " fill-opacity="1" fill-rule="nonzero"/><path fill="#352019" d="M 70.90625 53.871094 C 68.566406 52.324219 65.269531 51.855469 62.6875 53.03125 C 61.816406 53.4375 61.019531 54.007812 60.363281 54.71875 C 60.164062 54.929688 59.972656 55.152344 59.796875 55.386719 C 59.546875 55.707031 58.859375 56.453125 58.875 56.878906 C 58.917969 57.976562 59.148438 59.066406 59.578125 60.082031 C 59.890625 60.832031 60.324219 61.539062 60.890625 62.121094 C 61.265625 62.507812 62.25 63.433594 62.851562 63.316406 C 63.566406 63.179688 62.273438 62.269531 62.148438 62.144531 C 61.679688 61.632812 61.304688 61.0625 61.03125 60.425781 C 60.574219 59.359375 60.320312 58.160156 60.308594 57 C 60.277344 57.121094 60.246094 57.238281 60.214844 57.359375 C 61.082031 55.953125 62.15625 54.734375 63.726562 54.089844 C 65.042969 53.550781 66.492188 53.472656 67.886719 53.65625 C 68.640625 53.757812 69.378906 53.929688 70.101562 54.15625 C 70.25 54.203125 70.511719 54.351562 70.660156 54.347656 C 70.949219 54.457031 71.171875 54.046875 70.90625 53.871094 C 70.78125 53.789062 71.007812 53.9375 70.90625 53.871094 " fill-opacity="1" fill-rule="nonzero"/><path fill="#352019" d="M 59.816406 57.683594 C 59.007812 57.695312 58.167969 57.460938 57.496094 57.007812 C 57.253906 56.84375 56.035156 55.476562 56.734375 55.628906 C 56.894531 55.664062 57.226562 56.132812 57.410156 56.253906 C 57.882812 56.519531 58.410156 56.636719 58.953125 56.625 C 59.242188 56.617188 59.609375 56.46875 59.898438 56.546875 C 60.492188 56.714844 60.425781 57.605469 59.816406 57.683594 " fill-opacity="1" fill-rule="nonzero"/><path fill="#211d1d" d="M 59.492188 47.449219 C 61.445312 46.898438 63.316406 46.058594 65.230469 45.394531 C 66.222656 45.046875 67.230469 44.734375 68.222656 44.386719 C 68.460938 44.300781 69.019531 44.210938 69.15625 43.960938 C 69.390625 43.546875 68.671875 43.433594 68.429688 43.367188 C 66.535156 42.953125 64.550781 43.175781 62.769531 43.941406 C 61.789062 44.371094 60.871094 44.945312 60.117188 45.710938 C 59.777344 46.054688 59.460938 46.4375 59.222656 46.863281 C 59.09375 47.09375 59.0625 47.582031 59.492188 47.449219 " fill-opacity="1" fill-rule="nonzero"/><path fill="#211d1d" d="M 100.765625 47.449219 C 98.816406 46.898438 96.941406 46.058594 95.03125 45.394531 C 94.035156 45.046875 93.03125 44.734375 92.039062 44.386719 C 91.800781 44.300781 91.242188 44.210938 91.101562 43.960938 C 90.871094 43.546875 91.589844 43.433594 91.832031 43.367188 C 93.726562 42.953125 95.710938 43.175781 97.492188 43.941406 C 98.472656 44.371094 99.390625 44.945312 100.144531 45.710938 C 100.484375 46.054688 100.800781 46.4375 101.039062 46.863281 C 101.167969 47.09375 101.195312 47.582031 100.765625 47.449219 " fill-opacity="1" fill-rule="nonzero"/><path fill="#be1c2d" d="M 75.855469 72.136719 C 76.84375 75.203125 80.132812 77.738281 83.507812 76.050781 C 85.113281 75.207031 86.054688 73.566406 86.777344 71.925781 C 86.777344 71.925781 87.09375 71.25 86.914062 70.617188 C 86.886719 70.527344 86.851562 70.433594 86.800781 70.347656 C 86.511719 69.824219 85.765625 69.40625 84.058594 69.542969 C 83.355469 69.601562 82.328125 69.644531 81.273438 69.667969 C 80.21875 69.683594 79.1875 69.679688 78.484375 69.652344 C 76.914062 69.585938 76.171875 69.953125 75.847656 70.425781 C 75.761719 70.554688 75.703125 70.691406 75.667969 70.832031 C 75.511719 71.472656 75.855469 72.136719 75.855469 72.136719 " fill-opacity="1" fill-rule="nonzero"/><path fill="#ffffff" d="M 75.847656 70.425781 C 76.128906 70.910156 76.648438 71.234375 77.246094 71.234375 L 85.355469 71.246094 C 85.988281 71.25 86.539062 70.882812 86.800781 70.347656 C 86.511719 69.824219 85.765625 69.40625 84.058594 69.542969 C 83.355469 69.601562 82.328125 69.644531 81.273438 69.667969 C 80.21875 69.683594 79.1875 69.679688 78.484375 69.652344 C 76.914062 69.585938 76.171875 69.953125 75.847656 70.425781 " fill-opacity="1" fill-rule="nonzero"/><path fill="#211d1d" d="M 51.558594 58.078125 C 51.558594 58.078125 51.296875 47.464844 53.488281 42.308594 C 53.488281 42.308594 60.90625 45.832031 62.21875 33.964844 C 62.21875 33.964844 66.492188 39.644531 71.074219 38.167969 C 71.074219 38.167969 74.410156 37.820312 74.777344 32.480469 C 74.777344 32.480469 77.722656 39.066406 83.382812 38.121094 C 83.382812 38.121094 87.648438 37.761719 88.761719 32.453125 C 88.761719 32.453125 88.949219 39.609375 95.554688 37.878906 C 95.554688 37.878906 98.832031 38.632812 100.054688 34.09375 C 100.054688 34.09375 99.230469 38.929688 104.292969 41.035156 C 104.292969 41.035156 107.777344 41.621094 108.148438 38.683594 C 108.148438 38.683594 112.589844 51.8125 110.832031 58.480469 L 114.011719 57.542969 L 116.433594 41.8125 C 116.433594 41.8125 122.453125 40.191406 118.660156 32.941406 C 118.660156 32.941406 126.132812 30.035156 122.019531 24.65625 C 120.964844 23.277344 118.050781 20.964844 115.117188 23.894531 C 115.117188 23.894531 125.832031 13.242188 115.253906 11.21875 C 113.101562 10.808594 109.578125 10.417969 107.132812 14.554688 C 107.132812 14.554688 108.644531 7.023438 101.378906 7.453125 C 99.511719 7.5625 97.960938 7.808594 95.699219 12.332031 C 95.699219 12.332031 95.066406 3.738281 87.59375 8.003906 C 87.59375 8.003906 85.03125 9.59375 85.695312 13.183594 C 86.355469 16.773438 85.304688 12.226562 85.304688 12.226562 C 85.304688 12.226562 82.300781 4.226562 75.992188 8.195312 C 75.992188 8.195312 72.453125 9.539062 75.679688 13.105469 C 75.679688 13.105469 38.257812 14.335938 47.839844 57.085938 L 51.558594 58.078125 " fill-opacity="1" fill-rule="nonzero"/><path fill="#211d1d" d="M 51.089844 56.542969 L 52.03125 59.390625 C 52.03125 59.390625 44.773438 61.25 49.863281 69.398438 C 49.863281 69.398438 41.71875 63.375 51.089844 56.542969 " fill-opacity="1" fill-rule="nonzero"/><path fill="#211d1d" d="M 111.113281 55.882812 L 110.890625 58.875 C 110.890625 58.875 118.382812 58.910156 115.425781 68.054688 C 115.425781 68.054688 121.863281 60.226562 111.113281 55.882812 " fill-opacity="1" fill-rule="nonzero"/><path fill="#4d464a" d="M 43.695312 82.820312 C 43.695312 82.820312 38.992188 81.375 41.226562 77.074219 C 41.226562 77.074219 36.375 82.601562 43.695312 82.820312 " fill-opacity="1" fill-rule="nonzero"/><path fill="#4d464a" d="M 39.371094 78.277344 C 39.371094 78.277344 34.53125 75.707031 38.050781 70.867188 C 38.050781 70.867188 31.34375 76.738281 39.371094 78.277344 " fill-opacity="1" fill-rule="nonzero"/><path fill="#4d464a" d="M 112.460938 22.902344 C 112.460938 22.902344 111.230469 17.558594 105.652344 19.710938 C 105.652344 19.710938 113.050781 14.738281 112.460938 22.902344 " fill-opacity="1" fill-rule="nonzero"/><path fill="#4d464a" d="M 113.386719 27.488281 C 113.386719 27.488281 112.15625 22.144531 106.578125 24.300781 C 106.578125 24.300781 113.976562 19.324219 113.386719 27.488281 " fill-opacity="1" fill-rule="nonzero"/><path fill="#253770" d="M 112.253906 9.410156 L 111.097656 26.105469 C 111.097656 26.105469 103.753906 30.097656 87.40625 29.375 C 55.710938 27.980469 55.992188 22.671875 55.992188 22.671875 L 57.109375 8.320312 L 112.253906 9.410156 " fill-opacity="1" fill-rule="nonzero"/><g clip-path="url(#id17)"><path fill="#14243a" d="M 126.886719 9.453125 L 89.246094 18.566406 L 40.761719 11.03125 L 40.921875 9.007812 L 80.222656 2.0625 L 127.046875 7.429688 L 126.886719 9.453125 " fill-opacity="1" fill-rule="nonzero"/></g><g clip-path="url(#id18)"><path fill="#253770" d="M 127.046875 7.429688 L 89.40625 16.539062 L 40.921875 9.007812 L 80.382812 0.0390625 L 127.046875 7.429688 " fill-opacity="1" fill-rule="nonzero"/></g><path fill="#d7ba1b" d="M 45.414062 30.292969 C 45.660156 30.3125 45.890625 30.160156 45.96875 29.914062 C 50.449219 15.398438 52.765625 12.011719 53.265625 11.398438 L 86.21875 7.902344 C 86.515625 7.871094 86.726562 7.605469 86.695312 7.3125 C 86.664062 7.019531 86.402344 6.804688 86.105469 6.835938 L 52.789062 10.367188 L 52.660156 10.476562 C 52.40625 10.695312 50.046875 13.074219 44.941406 29.597656 C 44.855469 29.882812 45.015625 30.183594 45.296875 30.269531 C 45.335938 30.28125 45.375 30.289062 45.414062 30.292969 " fill-opacity="1" fill-rule="nonzero"/><path fill="#ebd528" d="M 41.878906 36.019531 C 41.910156 35.953125 41.886719 35.871094 41.820312 35.835938 C 41.753906 35.804688 41.671875 35.828125 41.640625 35.894531 C 40.011719 39.039062 39.859375 41.136719 39.933594 42.167969 C 39.746094 42.097656 39.558594 42.019531 39.375 41.929688 C 39.414062 40.574219 39.796875 37.734375 41.996094 34.425781 C 42.035156 34.363281 42.019531 34.28125 41.957031 34.238281 C 41.898438 34.199219 41.8125 34.214844 41.773438 34.277344 C 39.605469 37.539062 39.171875 40.363281 39.113281 41.804688 C 38.886719 41.683594 38.667969 41.554688 38.453125 41.410156 C 38.453125 41.410156 39.324219 34.511719 43.734375 31.214844 L 45.878906 32.175781 C 45.878906 32.175781 45.347656 40.160156 46.90625 42.300781 C 46.90625 42.300781 46.46875 42.425781 45.769531 42.546875 C 45.371094 41.667969 44.941406 40.171875 45.027344 37.863281 C 45.03125 37.792969 44.976562 37.730469 44.902344 37.726562 L 44.898438 37.722656 C 44.824219 37.722656 44.761719 37.777344 44.757812 37.855469 C 44.671875 40.160156 45.082031 41.675781 45.488281 42.589844 C 44.167969 42.785156 42.132812 42.90625 40.21875 42.269531 C 40.132812 41.332031 40.21875 39.222656 41.878906 36.019531 " fill-opacity="1" fill-rule="nonzero"/><path fill="#ebd528" d="M 37.851562 41.265625 C 37.921875 41.269531 37.984375 41.222656 37.996094 41.152344 C 39.113281 33.621094 43.746094 31.359375 43.792969 31.335938 C 43.859375 31.304688 43.886719 31.226562 43.855469 31.160156 C 43.824219 31.09375 43.746094 31.0625 43.679688 31.09375 C 43.628906 31.117188 38.871094 33.429688 37.730469 41.113281 C 37.71875 41.183594 37.769531 41.253906 37.84375 41.265625 L 37.851562 41.265625 " fill-opacity="1" fill-rule="nonzero"/><path fill="#dabd1d" d="M 43.347656 31.050781 C 43.28125 31.898438 43.910156 32.640625 44.757812 32.707031 C 45.351562 32.75 45.894531 32.453125 46.1875 31.976562 C 46.308594 31.773438 46.390625 31.542969 46.410156 31.289062 C 46.476562 30.445312 45.84375 29.703125 44.996094 29.636719 C 44.582031 29.605469 44.195312 29.738281 43.902344 29.984375 C 43.589844 30.242188 43.378906 30.617188 43.347656 31.050781 " fill-opacity="1" fill-rule="nonzero"/><path fill="#ebd528" d="M 43.679688 30.671875 C 43.613281 31.515625 44.242188 32.257812 45.089844 32.324219 C 45.503906 32.355469 45.890625 32.222656 46.1875 31.976562 C 46.308594 31.773438 46.390625 31.542969 46.410156 31.289062 C 46.476562 30.445312 45.84375 29.703125 44.996094 29.636719 C 44.582031 29.605469 44.195312 29.738281 43.902344 29.984375 C 43.777344 30.1875 43.699219 30.417969 43.679688 30.671875 " fill-opacity="1" fill-rule="nonzero"/><path fill="#cf5c1e" d="M 39.242188 114.550781 C 39.242188 114.550781 40.296875 111.117188 44.929688 111.027344 C 44.929688 111.027344 50.867188 110.644531 50.769531 112.464844 C 50.769531 112.464844 50.804688 113.582031 46.632812 114.523438 C 46.632812 114.523438 51.234375 114.605469 51.371094 116.5 C 51.371094 116.5 51.070312 118.078125 48.265625 118.074219 C 48.265625 118.074219 50.515625 118.703125 49.933594 119.796875 C 49.933594 119.796875 49.261719 121.359375 47.300781 121.511719 C 47.300781 121.511719 48.957031 121.640625 48.8125 122.402344 C 48.8125 122.402344 49.402344 126.40625 42.515625 125.429688 C 39.707031 125.03125 36.660156 122.402344 39.242188 114.550781 " fill-opacity="1" fill-rule="nonzero"/><path fill="#913d1c" d="M 43.183594 114.960938 C 43.207031 114.960938 43.230469 114.960938 43.253906 114.953125 C 44.09375 114.765625 46.332031 114.746094 46.355469 114.746094 C 46.492188 114.742188 46.617188 114.636719 46.636719 114.507812 C 46.652344 114.378906 46.554688 114.277344 46.417969 114.277344 C 46.324219 114.277344 44.097656 114.296875 43.199219 114.5 C 43.0625 114.53125 42.960938 114.65625 42.976562 114.78125 C 42.988281 114.886719 43.074219 114.957031 43.183594 114.960938 " fill-opacity="1" fill-rule="nonzero"/><path fill="#913d1c" d="M 43.101562 118.171875 C 43.136719 118.171875 43.179688 118.167969 43.214844 118.152344 C 43.511719 118.050781 45.824219 118.113281 47.890625 118.234375 L 47.894531 118.234375 C 48.027344 118.238281 48.15625 118.140625 48.183594 118.015625 C 48.210938 117.882812 48.121094 117.773438 47.984375 117.765625 C 46.957031 117.707031 43.566406 117.527344 43.074219 117.722656 C 42.941406 117.777344 42.867188 117.914062 42.902344 118.03125 C 42.933594 118.117188 43.011719 118.167969 43.101562 118.171875 " fill-opacity="1" fill-rule="nonzero"/><path fill="#913d1c" d="M 42.75 121.8125 C 42.769531 121.8125 42.789062 121.8125 42.804688 121.808594 C 43.769531 121.652344 46.894531 121.699219 46.929688 121.699219 C 47.066406 121.703125 47.191406 121.597656 47.214844 121.46875 C 47.234375 121.339844 47.140625 121.238281 47.003906 121.230469 C 46.871094 121.230469 43.796875 121.183594 42.785156 121.347656 C 42.644531 121.371094 42.539062 121.492188 42.542969 121.617188 C 42.550781 121.730469 42.636719 121.808594 42.75 121.8125 " fill-opacity="1" fill-rule="nonzero"/><path fill="#cf5c1e" d="M 122.914062 113.898438 C 122.914062 113.898438 121.859375 110.464844 117.226562 110.375 C 117.226562 110.375 111.289062 109.992188 111.386719 111.8125 C 111.386719 111.8125 111.351562 112.929688 115.523438 113.867188 C 115.523438 113.867188 110.921875 113.953125 110.785156 115.84375 C 110.785156 115.84375 111.085938 117.425781 113.890625 117.417969 C 113.890625 117.417969 111.640625 118.050781 112.222656 119.144531 C 112.222656 119.144531 112.894531 120.707031 114.855469 120.855469 C 114.855469 120.855469 113.199219 120.988281 113.34375 121.75 C 113.34375 121.75 112.753906 125.753906 119.640625 124.777344 C 122.449219 124.378906 125.496094 121.746094 122.914062 113.898438 " fill-opacity="1" fill-rule="nonzero"/><path fill="#913d1c" d="M 118.972656 114.308594 C 118.949219 114.308594 118.925781 114.304688 118.902344 114.300781 C 118.0625 114.113281 115.824219 114.09375 115.800781 114.089844 C 115.664062 114.089844 115.535156 113.984375 115.519531 113.855469 C 115.503906 113.726562 115.601562 113.625 115.738281 113.625 C 115.832031 113.625 118.058594 113.644531 118.957031 113.847656 C 119.09375 113.875 119.195312 114.003906 119.179688 114.128906 C 119.167969 114.230469 119.082031 114.304688 118.972656 114.308594 " fill-opacity="1" fill-rule="nonzero"/><path fill="#913d1c" d="M 119.054688 117.519531 C 119.019531 117.519531 118.976562 117.511719 118.941406 117.496094 C 118.644531 117.398438 116.332031 117.460938 114.265625 117.582031 L 114.261719 117.582031 C 114.128906 117.585938 114 117.488281 113.972656 117.359375 C 113.945312 117.230469 114.035156 117.121094 114.171875 117.113281 C 115.199219 117.054688 118.589844 116.875 119.082031 117.070312 C 119.214844 117.121094 119.289062 117.261719 119.253906 117.378906 C 119.222656 117.460938 119.144531 117.515625 119.054688 117.519531 " fill-opacity="1" fill-rule="nonzero"/><path fill="#913d1c" d="M 119.40625 121.160156 C 119.386719 121.160156 119.367188 121.160156 119.351562 121.15625 C 118.386719 121 115.261719 121.046875 115.226562 121.046875 C 115.089844 121.046875 114.964844 120.945312 114.941406 120.816406 C 114.921875 120.6875 115.015625 120.582031 115.152344 120.578125 C 115.285156 120.578125 118.359375 120.527344 119.371094 120.695312 C 119.511719 120.714844 119.617188 120.839844 119.613281 120.964844 C 119.605469 121.074219 119.519531 121.152344 119.40625 121.160156 " fill-opacity="1" fill-rule="nonzero"/></svg>