<svg xmlns="http://www.w3.org/2000/svg" xmlns:xlink="http://www.w3.org/1999/xlink" width="200" zoomAndPan="magnify" viewBox="0 0 150 149.999998" height="200" preserveAspectRatio="xMidYMid meet" version="1.0"><defs><clipPath id="id1"><path d="M 0.277344 0 L 149.921875 0 L 149.921875 150 L 0.277344 150 Z M 0.277344 0 " clip-rule="nonzero"/></clipPath><clipPath id="id2"><path d="M 17.660156 27.761719 L 143 27.761719 L 143 150 L 17.660156 150 Z M 17.660156 27.761719 " clip-rule="nonzero"/></clipPath></defs><g clip-path="url(#id1)"><path fill="#975651" d="M 26.933594 131.847656 L 31.511719 123.710938 C 32.050781 127.128906 35.335938 131.996094 35.335938 131.996094 L 34 141.132812 Z M 149.925781 11.714844 C 149.710938 9.359375 148.351562 8.777344 147.753906 8.632812 C 147.777344 8.5 147.714844 8.367188 147.582031 8.316406 C 147.542969 8.296875 147.503906 8.292969 147.460938 8.292969 C 147.273438 5.746094 144.820312 6.496094 143.996094 6.820312 C 143.96875 6.75 143.910156 6.691406 143.835938 6.660156 C 143.804688 6.648438 143.777344 6.648438 143.753906 6.644531 C 143.929688 3.964844 141.515625 3.117188 139.640625 4.433594 C 138.273438 5.382812 136.644531 11.789062 135.792969 15.542969 L 136.867188 6.890625 C 136.886719 6.726562 136.769531 6.585938 136.613281 6.5625 C 136.59375 6.5625 136.582031 6.566406 136.5625 6.566406 C 136.324219 3.21875 133.210938 2.824219 132.316406 6.5 C 131.46875 9.980469 130.289062 18.203125 130.011719 20.148438 C 129.957031 20.117188 129.882812 20.101562 129.808594 20.125 C 129.792969 20.128906 129.78125 20.136719 129.765625 20.144531 C 129.335938 19.222656 128.261719 17.046875 127.269531 16.21875 C 123.339844 12.96875 123.207031 17.703125 124.359375 20.648438 C 125.148438 22.664062 124.417969 30.464844 124.257812 32.019531 C 123.101562 31.9375 122.457031 31.96875 122.457031 31.96875 L 120.519531 39.847656 L 115.597656 38.207031 L 111.8125 77.367188 C 104.214844 73.566406 92.738281 70.808594 84.347656 69.316406 C 87.28125 68.453125 88.625 67.179688 89.140625 65.191406 C 89.695312 63.042969 91.078125 62.484375 94.539062 62.484375 C 98.003906 62.484375 100.359375 61.929688 103.132812 57.46875 C 105.902344 53.003906 100.5 51.53125 99.113281 52.125 C 97.726562 52.714844 95.648438 50.832031 96.203125 47.105469 C 96.757812 43.375 95.371094 42.234375 93.019531 42.085938 C 90.664062 41.941406 88.308594 39.046875 88.722656 37.027344 C 89.140625 35.007812 87.199219 31.28125 84.957031 31.269531 C 82.714844 31.257812 82.710938 29.734375 83.042969 27.535156 C 83.371094 25.339844 81.796875 23.09375 77.78125 23.648438 C 75.78125 23.925781 74.214844 23.15625 73.152344 22.3125 C 73.117188 21.667969 73.050781 20.816406 72.929688 19.855469 L 73.296875 19.703125 L 85.402344 4.214844 L 46.875 0 L 38.460938 8.085938 L 20.460938 25.394531 L 27.21875 27.996094 C 25.863281 31.246094 25.042969 35.386719 24.769531 36.9375 C 24.230469 36.925781 23.214844 37.15625 22.433594 38.871094 C 21.320312 41.316406 17.816406 54.613281 17.816406 54.613281 L 24.527344 56.007812 L 26.464844 40.308594 C 26.464844 40.308594 27.042969 37.882812 25.5625 37.144531 C 26.542969 32.933594 27.429688 30.167969 28.15625 28.359375 L 33.285156 30.328125 L 34.496094 30.796875 C 34.570312 30.824219 34.640625 30.855469 34.714844 30.878906 C 38.027344 32.15625 40.140625 32.96875 40.140625 32.96875 L 40.777344 32.710938 C 40.175781 33.945312 39.605469 35.414062 39.820312 36.265625 C 40.234375 37.9375 39.957031 42.21875 38.570312 42.085938 C 37.1875 41.960938 34.8125 42.753906 35.097656 45.339844 C 35.382812 47.925781 35.800781 52.574219 34 52.125 C 33.871094 52.089844 33.738281 52.058594 33.609375 52.039062 C 31.929688 51.742188 30.277344 52.273438 30.535156 54.722656 C 30.8125 57.355469 30.269531 59.011719 28.375 60.695312 C 24.738281 63.917969 27.371094 70.550781 31.804688 68.066406 C 36.234375 65.578125 38.664062 65.707031 39.828125 68.066406 C 39.832031 68.066406 39.832031 68.070312 39.832031 68.070312 C 32.980469 69.796875 28.945312 73.964844 28.945312 73.964844 C 28.945312 73.964844 29.085938 74.371094 29.351562 75.117188 C 26.207031 77.339844 23 80.234375 19.933594 84.023438 C 5.59375 101.707031 0.0703125 122.53125 0.285156 128.769531 C 0.492188 135.015625 20.460938 189.164062 20.460938 189.164062 L 25.183594 185.269531 C 25.183594 185.273438 25.183594 185.273438 25.191406 185.277344 C 25.246094 185.34375 25.324219 185.375 25.40625 185.375 C 25.472656 185.375 25.546875 185.351562 25.597656 185.304688 L 28.539062 182.777344 L 30.667969 187.003906 C 30.792969 186.867188 30.917969 186.742188 31.046875 186.609375 L 36.683594 196.300781 L 27.554688 198.8125 C 25.695312 205.597656 30.644531 207.015625 30.644531 207.015625 C 31.972656 206.105469 34.097656 204.722656 36.4375 203.234375 C 37.035156 204.347656 37.644531 205.105469 37.644531 205.105469 C 41.421875 207.996094 44.035156 204.292969 44.65625 203.273438 C 44.699219 203.300781 44.746094 203.316406 44.796875 203.316406 C 44.824219 203.316406 44.84375 203.3125 44.867188 203.308594 C 44.96875 203.28125 45.039062 203.207031 45.070312 203.117188 C 48.980469 204.410156 50.230469 201.351562 50.519531 200.390625 C 50.546875 200.394531 50.570312 200.402344 50.597656 200.402344 C 50.621094 200.402344 50.644531 200.402344 50.675781 200.390625 C 50.777344 200.363281 50.847656 200.277344 50.875 200.183594 C 57.308594 201.902344 56.164062 196.039062 55.820312 194.699219 C 55.839844 194.691406 55.863281 194.691406 55.886719 194.683594 C 55.9375 194.648438 55.976562 194.601562 56 194.550781 C 60.410156 196.640625 62.765625 193.183594 62.765625 191.140625 C 62.765625 190.859375 62.539062 190.355469 62.164062 189.691406 L 71.328125 186.136719 C 72.289062 184.246094 72.480469 182.539062 72.230469 181.035156 C 73.640625 180.867188 75.03125 180.667969 76.398438 180.449219 L 76.398438 180.464844 C 76.429688 180.601562 76.550781 180.699219 76.679688 180.699219 C 76.703125 180.699219 76.722656 180.695312 76.746094 180.691406 C 76.898438 180.65625 76.992188 180.507812 76.96875 180.359375 C 77.523438 180.265625 78.070312 180.171875 78.613281 180.074219 L 80.480469 183.609375 L 96.0625 179.214844 C 97.078125 178.003906 98.011719 176.640625 98.875 175.179688 C 104.121094 177.160156 107.878906 177.164062 107.910156 177.164062 C 106.675781 176.566406 105.25 175.792969 103.71875 174.898438 C 107.386719 176.765625 109.574219 177.59375 109.574219 177.59375 L 122.457031 167.203125 L 116.015625 151.601562 C 115.800781 151.5 115.585938 151.402344 115.371094 151.300781 C 115.371094 151.296875 115.375 151.296875 115.375 151.292969 C 115.4375 151.144531 115.371094 150.972656 115.222656 150.90625 C 112.574219 149.792969 110.070312 148.425781 107.753906 146.964844 C 107.863281 146.269531 107.910156 145.882812 107.910156 145.882812 L 97.683594 131.996094 C 97.378906 133.203125 97.035156 134.390625 96.667969 135.542969 C 93.515625 127.65625 91.210938 121.9375 91.210938 122.042969 C 90.917969 120.816406 92.410156 114.511719 92.84375 113.402344 C 94.308594 110.242188 95.03125 107.304688 95.246094 104.625 L 95.269531 104.625 C 95.414062 104.625 95.542969 104.515625 95.558594 104.371094 C 95.71875 103.078125 95.710938 101.816406 95.582031 100.601562 C 97.75 100.957031 112.78125 103.425781 115.601562 103.78125 C 118.648438 104.167969 121.820312 104.578125 123.628906 103.785156 C 123.929688 103.71875 124.257812 103.4375 124.621094 102.96875 C 125.972656 101.359375 127.003906 98.207031 127.003906 98.207031 C 132.757812 83.847656 141.292969 46.769531 141.292969 46.769531 L 140.304688 46.4375 L 142.742188 38.519531 C 141.773438 37.921875 140.828125 37.386719 139.898438 36.890625 C 140.847656 35.136719 142.09375 32.652344 143.550781 29.355469 C 147.402344 20.628906 149.925781 11.714844 149.925781 11.714844 " fill-opacity="1" fill-rule="nonzero"/></g><g clip-path="url(#id2)"><path fill="#faf66c" d="M 25.5625 37.144531 C 26.542969 32.933594 27.429688 30.167969 28.15625 28.359375 L 27.21875 27.996094 C 25.863281 31.246094 25.042969 35.386719 24.769531 36.9375 C 24.230469 36.925781 23.214844 37.15625 22.433594 38.871094 C 21.320312 41.316406 17.816406 54.613281 17.816406 54.613281 L 24.527344 56.007812 L 26.464844 40.308594 C 26.464844 40.308594 27.042969 37.882812 25.5625 37.144531 Z M 139.898438 36.890625 C 132.824219 33.125 127.046875 32.222656 124.257812 32.019531 C 123.101562 31.9375 122.457031 31.96875 122.457031 31.96875 L 120.519531 39.847656 L 140.304688 46.4375 L 142.742188 38.519531 C 141.773438 37.921875 140.828125 37.386719 139.898438 36.890625 Z M 61.347656 76.742188 L 60.621094 77.808594 C 60.574219 77.875 60.5 77.917969 60.417969 77.929688 C 60.339844 77.945312 60.257812 77.917969 60.191406 77.863281 L 52.667969 71.441406 C 54.074219 74.644531 56.429688 79.816406 59.636719 86.0625 L 62.148438 77.382812 C 61.894531 77.214844 61.625 77.007812 61.347656 76.742188 Z M 71.722656 179.363281 C 71.703125 179.332031 69.6875 176.078125 66.503906 176.273438 C 66.339844 176.289062 66.207031 176.160156 66.195312 176 C 66.1875 175.839844 66.3125 175.699219 66.46875 175.691406 C 70.019531 175.476562 72.132812 178.917969 72.222656 179.0625 C 72.308594 179.199219 72.261719 179.375 72.125 179.464844 C 72.074219 179.492188 72.027344 179.503906 71.972656 179.503906 C 71.875 179.503906 71.777344 179.457031 71.722656 179.363281 Z M 71.128906 185.375 C 71.109375 185.375 71.09375 185.375 71.078125 185.371094 C 71.011719 185.359375 64.539062 184.199219 65 176.679688 C 65.007812 176.515625 65.148438 176.398438 65.308594 176.40625 C 65.46875 176.414062 65.589844 176.554688 65.578125 176.71875 C 65.152344 183.699219 70.929688 184.753906 71.171875 184.796875 C 71.335938 184.824219 71.441406 184.972656 71.414062 185.132812 C 71.390625 185.277344 71.269531 185.375 71.128906 185.375 Z M 72.0625 180.285156 L 74.054688 179.582031 C 71.226562 173.109375 66.164062 173.628906 66.164062 173.628906 L 56.449219 181.707031 L 56.445312 181.714844 C 58.75 184.667969 61.09375 187.816406 62.164062 189.691406 L 71.328125 186.136719 C 72.289062 184.246094 72.480469 182.539062 72.230469 181.035156 C 72.183594 180.78125 72.132812 180.527344 72.0625 180.285156 Z M 36.898438 196.675781 L 36.683594 196.300781 L 27.554688 198.8125 C 25.695312 205.597656 30.644531 207.015625 30.644531 207.015625 C 31.972656 206.105469 34.097656 204.722656 36.4375 203.234375 C 35.636719 201.730469 34.863281 199.582031 35.65625 197.75 L 36.796875 197.066406 C 36.726562 196.949219 36.742188 196.792969 36.851562 196.699219 C 36.863281 196.6875 36.882812 196.683594 36.898438 196.675781 Z M 46.9375 167.339844 L 36.054688 176.3125 L 28.539062 182.777344 L 30.667969 187.003906 C 30.792969 186.867188 30.917969 186.742188 31.046875 186.609375 C 39 178.164062 47.339844 175.523438 50.84375 174.753906 C 51.929688 174.511719 52.558594 174.445312 52.558594 174.445312 Z M 70.488281 66.351562 L 63.445312 72.207031 L 55.464844 65.191406 L 54.933594 65.574219 L 51.667969 67.925781 L 51.664062 67.925781 C 51.664062 67.925781 51.5 67.933594 51.21875 67.941406 C 51.472656 67.957031 51.609375 67.964844 51.609375 67.964844 L 51.289062 68.199219 C 51.433594 68.550781 51.71875 69.242188 52.140625 70.222656 L 60.324219 77.210938 L 63.339844 72.796875 C 63.394531 72.71875 63.484375 72.667969 63.578125 72.667969 C 63.683594 72.671875 63.761719 72.714844 63.820312 72.789062 L 67.15625 77.457031 L 72.933594 67.917969 C 72.933594 67.914062 72.9375 67.914062 72.9375 67.914062 Z M 73.464844 68.023438 C 73.472656 68.085938 73.464844 68.15625 73.429688 68.21875 L 67.425781 78.140625 C 67.375 78.226562 67.28125 78.277344 67.183594 78.28125 C 67.179688 78.28125 67.179688 78.28125 67.175781 78.28125 C 67.082031 78.28125 66.992188 78.234375 66.933594 78.160156 L 65.808594 76.582031 C 65.675781 76.765625 65.46875 77.019531 65.195312 77.257812 L 68.667969 85.570312 C 71.394531 78.597656 73.921875 68.894531 74.140625 68.046875 Z M 74.722656 68.066406 C 74.722656 68.085938 74.722656 68.105469 74.71875 68.128906 C 74.496094 69.007812 69.191406 89.660156 65.351562 92.777344 C 65.296875 92.820312 65.230469 92.84375 65.164062 92.84375 C 65.109375 92.84375 65.054688 92.828125 65.003906 92.792969 C 64.972656 92.773438 63.703125 91.921875 61.945312 90.472656 C 62.847656 92.164062 63.804688 93.90625 64.8125 95.695312 C 64.90625 95.738281 65.007812 95.785156 65.105469 95.824219 C 65.195312 95.867188 65.285156 95.910156 65.375 95.949219 C 65.375 95.949219 65.441406 95.878906 65.566406 95.734375 C 66.785156 94.339844 73.496094 86.015625 77.019531 68.296875 L 74.722656 68.066406 " fill-opacity="1" fill-rule="nonzero"/></g><path fill="#304850" d="M 123.628906 103.785156 C 123.929688 103.71875 124.257812 103.4375 124.621094 102.96875 C 124.304688 103.34375 123.96875 103.636719 123.628906 103.785156 Z M 74.742188 172.722656 L 73.039062 169.492188 C 73.039062 169.492188 73.363281 169.246094 73.9375 168.769531 C 72.644531 162.3125 71.546875 156.234375 70.601562 150.554688 C 67.726562 147.703125 64.824219 144.589844 61.957031 141.195312 C 47.328125 123.910156 32.027344 82.53125 29.351562 75.117188 C 26.207031 77.339844 23 80.234375 19.933594 84.023438 C 5.59375 101.707031 0.0703125 122.53125 0.285156 128.769531 C 0.492188 135.015625 20.460938 189.164062 20.460938 189.164062 L 25.183594 185.269531 C 25.085938 185.148438 25.097656 184.964844 25.21875 184.863281 L 50.199219 163.375 L 26.351562 132.046875 C 26.28125 131.957031 26.269531 131.832031 26.328125 131.726562 L 38.722656 109.714844 C 38.800781 109.574219 38.980469 109.523438 39.121094 109.601562 C 39.261719 109.679688 39.3125 109.859375 39.230469 110 L 37.945312 112.277344 C 38.609375 114.675781 42.027344 127.289062 41.464844 131.140625 C 40.863281 135.277344 35.203125 141.890625 34.871094 142.277344 L 50.828125 163.242188 C 50.921875 163.363281 50.902344 163.535156 50.785156 163.640625 L 36.054688 176.3125 L 46.9375 167.339844 L 52.558594 174.445312 C 52.558594 174.445312 51.929688 174.511719 50.84375 174.753906 C 51.597656 175.660156 53.984375 178.5625 56.4375 181.707031 L 56.449219 181.707031 L 66.164062 173.628906 C 66.164062 173.628906 71.226562 173.109375 74.054688 179.582031 L 72.0625 180.285156 C 72.132812 180.527344 72.183594 180.78125 72.230469 181.035156 C 73.640625 180.867188 75.03125 180.667969 76.398438 180.449219 C 75.8125 177.820312 75.265625 175.246094 74.742188 172.722656 Z M 64.8125 95.695312 C 64.898438 95.855469 64.988281 96.011719 65.082031 96.175781 L 65.082031 95.945312 C 65.082031 95.90625 65.089844 95.863281 65.105469 95.824219 C 65.007812 95.785156 64.90625 95.738281 64.8125 95.695312 Z M 78.613281 180.074219 L 75.730469 174.59375 C 76.128906 176.484375 76.539062 178.394531 76.96875 180.34375 L 76.96875 180.359375 C 77.523438 180.265625 78.070312 180.171875 78.613281 180.074219 Z M 52.675781 40.75 C 52.765625 41.304688 52.980469 41.785156 53.257812 42.128906 C 53.570312 42.507812 53.949219 42.71875 54.328125 42.65625 C 54.582031 42.613281 54.796875 42.453125 54.960938 42.222656 C 55.277344 41.789062 55.421875 41.085938 55.296875 40.324219 C 55.234375 39.953125 55.117188 39.621094 54.96875 39.335938 C 55.011719 39.25 55.019531 39.144531 54.96875 39.054688 C 54.363281 37.972656 52.96875 38.058594 52.910156 38.066406 C 52.75 38.078125 52.628906 38.214844 52.640625 38.375 C 52.652344 38.539062 52.789062 38.664062 52.949219 38.648438 C 52.957031 38.648438 53.042969 38.644531 53.175781 38.652344 C 52.742188 39.046875 52.527344 39.859375 52.675781 40.75 Z M 60.914062 47.621094 C 59.066406 47.277344 60.035156 49.109375 60.660156 49.484375 C 61.539062 50.007812 63.085938 50.738281 64.832031 48.742188 C 64.832031 48.742188 65.328125 47.964844 64.464844 47.730469 C 63.605469 47.5 62.753906 47.976562 60.914062 47.621094 Z M 65.210938 36.058594 C 65.09375 35.949219 64.914062 35.949219 64.796875 36.058594 C 64.742188 36.117188 63.441406 37.433594 63.546875 38.957031 C 63.601562 39.726562 63.996094 40.402344 64.738281 40.960938 C 65.628906 41.640625 66.003906 42.332031 65.832031 42.964844 C 65.644531 43.621094 64.933594 44.035156 64.488281 44.082031 C 64.328125 44.097656 64.210938 44.242188 64.230469 44.40625 C 64.246094 44.550781 64.371094 44.664062 64.519531 44.664062 C 64.53125 44.664062 64.539062 44.664062 64.546875 44.660156 C 65.261719 44.585938 66.144531 43.992188 66.390625 43.121094 C 66.5625 42.507812 66.476562 41.546875 65.085938 40.496094 C 64.488281 40.042969 64.167969 39.515625 64.125 38.917969 C 64.039062 37.660156 65.195312 36.484375 65.210938 36.472656 C 65.320312 36.359375 65.320312 36.175781 65.210938 36.058594 Z M 72.480469 36.140625 C 71.625 35.1875 70.175781 35.257812 70.113281 35.261719 C 69.953125 35.273438 69.828125 35.414062 69.839844 35.570312 C 69.851562 35.730469 69.984375 35.867188 70.148438 35.847656 C 70.152344 35.847656 70.371094 35.835938 70.671875 35.878906 C 70.230469 36.277344 70.007812 37.121094 70.15625 38.03125 C 70.289062 38.84375 70.675781 39.496094 71.144531 39.804688 C 71.367188 39.953125 71.613281 40.027344 71.855469 39.988281 C 72.269531 39.917969 72.585938 39.550781 72.753906 39.039062 C 72.890625 38.628906 72.9375 38.125 72.851562 37.597656 C 72.785156 37.195312 72.652344 36.832031 72.480469 36.53125 C 72.578125 36.417969 72.585938 36.253906 72.480469 36.140625 Z M 82.261719 37.976562 C 82.414062 37.917969 82.488281 37.753906 82.429688 37.601562 C 82.378906 37.453125 82.207031 37.371094 82.058594 37.429688 C 82.003906 37.453125 80.816406 37.90625 80.492188 38.953125 C 80.304688 39.574219 80.460938 40.25 80.960938 40.96875 C 81.628906 41.917969 81.558594 42.300781 81.496094 42.417969 C 81.378906 42.640625 81 42.644531 80.996094 42.644531 C 80.816406 42.617188 80.699219 42.773438 80.699219 42.933594 C 80.695312 43.089844 80.824219 43.222656 80.988281 43.226562 L 81.003906 43.226562 C 81.28125 43.226562 81.785156 43.113281 82.007812 42.691406 C 82.261719 42.214844 82.074219 41.542969 81.441406 40.632812 C 81.046875 40.074219 80.914062 39.5625 81.054688 39.125 C 81.289062 38.355469 82.253906 37.984375 82.261719 37.976562 Z M 140.304688 46.4375 L 120.519531 39.847656 L 115.597656 38.207031 L 111.8125 77.367188 C 104.214844 73.566406 92.738281 70.808594 84.347656 69.316406 C 87.28125 68.453125 88.625 67.179688 89.140625 65.191406 C 89.695312 63.042969 91.078125 62.484375 94.539062 62.484375 C 98.003906 62.484375 100.359375 61.929688 103.132812 57.46875 C 105.902344 53.003906 100.5 51.53125 99.113281 52.125 C 97.726562 52.714844 95.648438 50.832031 96.203125 47.105469 C 96.757812 43.375 95.371094 42.234375 93.019531 42.085938 C 90.664062 41.941406 88.308594 39.046875 88.722656 37.027344 C 89.140625 35.007812 87.199219 31.28125 84.957031 31.269531 C 82.714844 31.257812 82.710938 29.734375 83.042969 27.535156 C 83.371094 25.339844 81.796875 23.09375 77.78125 23.648438 C 75.78125 23.925781 74.214844 23.15625 73.152344 22.3125 C 73.117188 21.667969 73.050781 20.816406 72.929688 19.855469 L 73.296875 19.703125 L 85.402344 4.214844 L 46.875 0 L 38.460938 8.085938 C 38.460938 8.085938 31.960938 20.902344 43.339844 20.441406 C 45.78125 18.238281 54.011719 12.113281 69.066406 13.25 C 69.230469 13.261719 69.347656 13.402344 69.335938 13.5625 C 69.324219 13.722656 69.175781 13.839844 69.023438 13.828125 C 54.007812 12.691406 45.914062 18.867188 43.660156 20.933594 C 43.210938 22.90625 42.175781 29.941406 49.738281 31.148438 L 44.222656 31.269531 L 40.140625 32.96875 L 40.777344 32.710938 C 40.175781 33.945312 39.605469 35.414062 39.820312 36.265625 C 40.234375 37.9375 39.957031 42.21875 38.570312 42.085938 C 37.1875 41.960938 34.8125 42.753906 35.097656 45.339844 C 35.382812 47.925781 35.800781 52.574219 34 52.125 C 33.871094 52.089844 33.738281 52.058594 33.609375 52.039062 C 33.449219 53.777344 33.683594 56.148438 35.957031 56.96875 C 39.699219 58.324219 42.710938 59.46875 43.75 63.003906 C 44.726562 66.320312 52.382812 66.160156 55.378906 62.777344 L 55.71875 58.921875 C 55.414062 58.804688 55.117188 58.671875 54.816406 58.527344 C 52.253906 57.25 50.402344 55.691406 48.921875 52.914062 C 48.417969 53.273438 47.839844 53.539062 47.203125 53.683594 C 44.679688 54.25 42.167969 52.65625 41.605469 50.125 C 41.210938 48.355469 41.871094 46.597656 43.171875 45.511719 C 43.503906 46.074219 43.894531 46.597656 44.34375 46.921875 C 43.660156 46.722656 42.988281 46.863281 42.953125 46.871094 C 42.796875 46.902344 42.691406 47.054688 42.722656 47.210938 C 42.761719 47.371094 42.914062 47.464844 43.070312 47.4375 C 43.082031 47.4375 44.089844 47.230469 44.707031 47.75 C 45.058594 48.050781 45.21875 48.546875 45.191406 49.230469 C 45.140625 50.339844 45.347656 51.007812 45.820312 51.277344 C 45.964844 51.359375 46.117188 51.386719 46.269531 51.386719 C 46.550781 51.386719 46.816406 51.273438 46.972656 51.179688 C 47.101562 51.085938 47.140625 50.910156 47.054688 50.773438 C 46.960938 50.640625 46.785156 50.601562 46.648438 50.6875 C 46.648438 50.6875 46.320312 50.890625 46.105469 50.765625 C 45.988281 50.703125 45.722656 50.417969 45.773438 49.261719 C 45.8125 48.382812 45.582031 47.726562 45.085938 47.308594 C 45.050781 47.277344 45.019531 47.257812 44.988281 47.234375 C 45.316406 47.316406 45.667969 47.292969 46.035156 47.105469 C 48.515625 45.871094 45.773438 43.570312 46.808594 42.085938 C 47.839844 40.609375 47.574219 39.046875 46.808594 37.027344 C 46.039062 35.007812 46.742188 34.886719 48.8125 33.460938 C 49.699219 32.847656 49.992188 31.96875 50.039062 31.164062 C 54.117188 31.328125 59.03125 31.371094 60.878906 30.730469 C 60.878906 30.730469 63.589844 29.496094 66.5625 27.886719 C 67.371094 28.015625 68.171875 28.027344 68.875 27.8125 C 71.542969 26.980469 70.496094 30.5625 72.265625 31.269531 C 74.035156 31.976562 74.957031 30.785156 75.8125 33.460938 C 76.671875 36.132812 77.574219 37.71875 79.882812 37.027344 C 81.015625 36.683594 82.367188 36.871094 83.453125 37.148438 C 84.128906 37.761719 84.632812 38.578125 84.847656 39.539062 C 85.394531 42.003906 83.847656 44.449219 81.378906 45 C 80.859375 45.117188 80.339844 45.132812 79.839844 45.074219 C 79.582031 50.496094 77.96875 53.710938 74.757812 55.964844 C 73.933594 56.539062 73.039062 57.035156 72.09375 57.46875 L 72.09375 57.476562 C 72.097656 57.476562 72.105469 57.472656 72.113281 57.46875 C 72.113281 57.46875 72.101562 57.480469 72.082031 57.503906 L 70.488281 66.351562 L 72.9375 67.914062 C 72.9375 67.914062 72.933594 67.914062 72.933594 67.917969 L 67.15625 77.457031 L 63.820312 72.789062 C 63.761719 72.714844 63.683594 72.671875 63.578125 72.667969 C 63.484375 72.667969 63.394531 72.71875 63.339844 72.796875 L 60.324219 77.210938 L 52.140625 70.222656 C 52.296875 70.59375 52.476562 71 52.667969 71.441406 L 60.191406 77.863281 C 60.257812 77.917969 60.339844 77.945312 60.417969 77.929688 C 60.5 77.917969 60.574219 77.875 60.621094 77.808594 L 61.347656 76.742188 L 63.585938 73.46875 L 65.808594 76.582031 L 66.933594 78.160156 C 66.992188 78.234375 67.082031 78.28125 67.175781 78.28125 C 67.179688 78.28125 67.179688 78.28125 67.183594 78.28125 C 67.28125 78.277344 67.375 78.226562 67.425781 78.140625 L 73.429688 68.21875 C 73.464844 68.15625 73.472656 68.085938 73.464844 68.023438 L 74.140625 68.046875 C 73.921875 68.894531 71.394531 78.597656 68.667969 85.570312 C 67.46875 88.625 66.238281 91.15625 65.144531 92.183594 C 64.625 91.824219 63.078125 90.710938 61.203125 89.085938 C 61.449219 89.539062 61.691406 90.003906 61.945312 90.472656 C 63.703125 91.921875 64.972656 92.773438 65.003906 92.792969 C 65.054688 92.828125 65.109375 92.84375 65.164062 92.84375 C 65.230469 92.84375 65.296875 92.820312 65.351562 92.777344 C 69.191406 89.660156 74.496094 69.007812 74.71875 68.128906 C 74.722656 68.105469 74.722656 68.085938 74.722656 68.066406 L 77.019531 68.296875 C 73.496094 86.015625 66.785156 94.339844 65.566406 95.734375 C 65.628906 95.789062 65.664062 95.867188 65.664062 95.953125 C 65.664062 95.988281 65.660156 96.410156 65.667969 97.207031 C 72.382812 108.941406 81.1875 122.257812 91.582031 133.207031 C 91.589844 133.203125 91.589844 133.195312 91.597656 133.191406 C 91.722656 133.085938 91.902344 133.109375 92.007812 133.230469 C 92.042969 133.277344 93.484375 135.042969 95.996094 137.527344 C 96.230469 136.875 96.453125 136.210938 96.667969 135.542969 C 93.515625 127.65625 91.210938 121.9375 91.210938 122.042969 C 90.917969 120.816406 92.410156 114.511719 92.84375 113.402344 C 94.308594 110.242188 95.03125 107.304688 95.246094 104.625 L 95.230469 104.625 C 95.074219 104.601562 94.960938 104.457031 94.980469 104.296875 C 96.175781 94.800781 88.050781 86.980469 87.96875 86.902344 C 87.847656 86.789062 87.84375 86.601562 87.957031 86.488281 C 88.066406 86.371094 88.253906 86.367188 88.371094 86.480469 C 88.414062 86.519531 90.871094 88.894531 92.929688 92.609375 C 95.609375 93.210938 118.628906 98.320312 125.613281 98.320312 C 126.195312 98.320312 126.664062 98.285156 127.003906 98.207031 C 132.757812 83.847656 141.292969 46.769531 141.292969 46.769531 Z M 78.484375 157.808594 C 78.476562 157.808594 78.476562 157.808594 78.476562 157.808594 C 76.128906 155.796875 73.730469 153.617188 71.308594 151.246094 C 72.203125 156.605469 73.242188 162.304688 74.449219 168.339844 C 75.910156 167.089844 78.375 164.84375 81.210938 161.710938 C 80.277344 160.503906 79.363281 159.210938 78.484375 157.808594 Z M 51.21875 67.941406 L 51.183594 67.941406 C 51.195312 67.976562 51.234375 68.0625 51.289062 68.199219 L 51.609375 67.964844 C 51.609375 67.964844 51.472656 67.957031 51.21875 67.941406 Z M 65.085938 40.496094 C 64.488281 40.042969 64.167969 39.515625 64.125 38.917969 C 64.039062 37.660156 65.195312 36.484375 65.210938 36.472656 C 65.320312 36.359375 65.320312 36.175781 65.210938 36.058594 C 65.09375 35.949219 64.914062 35.949219 64.796875 36.058594 C 64.742188 36.117188 63.441406 37.433594 63.546875 38.957031 C 63.601562 39.726562 63.996094 40.402344 64.738281 40.960938 C 65.628906 41.640625 66.003906 42.332031 65.832031 42.964844 C 65.644531 43.621094 64.933594 44.035156 64.488281 44.082031 C 64.328125 44.097656 64.210938 44.242188 64.230469 44.40625 C 64.246094 44.550781 64.371094 44.664062 64.519531 44.664062 C 64.53125 44.664062 64.539062 44.664062 64.546875 44.660156 C 65.261719 44.585938 66.144531 43.992188 66.390625 43.121094 C 66.5625 42.507812 66.476562 41.546875 65.085938 40.496094 Z M 55.296875 40.324219 C 55.234375 39.953125 55.117188 39.621094 54.96875 39.335938 C 55.011719 39.25 55.019531 39.144531 54.96875 39.054688 C 54.363281 37.972656 52.96875 38.058594 52.910156 38.066406 C 52.75 38.078125 52.628906 38.214844 52.640625 38.375 C 52.652344 38.539062 52.789062 38.664062 52.949219 38.648438 C 52.957031 38.648438 53.042969 38.644531 53.175781 38.652344 C 52.742188 39.046875 52.527344 39.859375 52.675781 40.75 C 52.765625 41.304688 52.980469 41.785156 53.257812 42.128906 C 53.570312 42.507812 53.949219 42.71875 54.328125 42.65625 C 54.582031 42.613281 54.796875 42.453125 54.960938 42.222656 C 55.277344 41.789062 55.421875 41.085938 55.296875 40.324219 Z M 64.464844 47.730469 C 63.605469 47.5 62.753906 47.976562 60.914062 47.621094 C 59.066406 47.277344 60.035156 49.109375 60.660156 49.484375 C 61.539062 50.007812 63.085938 50.738281 64.832031 48.742188 C 64.832031 48.742188 65.328125 47.964844 64.464844 47.730469 Z M 72.851562 37.597656 C 72.785156 37.195312 72.652344 36.832031 72.480469 36.53125 C 72.578125 36.417969 72.585938 36.253906 72.480469 36.140625 C 71.625 35.1875 70.175781 35.257812 70.113281 35.261719 C 69.953125 35.273438 69.828125 35.414062 69.839844 35.570312 C 69.851562 35.730469 69.984375 35.867188 70.148438 35.847656 C 70.152344 35.847656 70.371094 35.835938 70.671875 35.878906 C 70.230469 36.277344 70.007812 37.121094 70.15625 38.03125 C 70.289062 38.84375 70.675781 39.496094 71.144531 39.804688 C 71.367188 39.953125 71.613281 40.027344 71.855469 39.988281 C 72.269531 39.917969 72.585938 39.550781 72.753906 39.039062 C 72.890625 38.628906 72.9375 38.125 72.851562 37.597656 Z M 82.429688 37.601562 C 82.378906 37.453125 82.207031 37.371094 82.058594 37.429688 C 82.003906 37.453125 80.816406 37.90625 80.492188 38.953125 C 80.304688 39.574219 80.460938 40.25 80.960938 40.96875 C 81.628906 41.917969 81.558594 42.300781 81.496094 42.417969 C 81.378906 42.640625 81 42.644531 80.996094 42.644531 C 80.816406 42.617188 80.699219 42.773438 80.699219 42.933594 C 80.695312 43.089844 80.824219 43.222656 80.988281 43.226562 L 81.003906 43.226562 C 81.28125 43.226562 81.785156 43.113281 82.007812 42.691406 C 82.261719 42.214844 82.074219 41.542969 81.441406 40.632812 C 81.046875 40.074219 80.914062 39.5625 81.054688 39.125 C 81.289062 38.355469 82.253906 37.984375 82.261719 37.976562 C 82.414062 37.917969 82.488281 37.753906 82.429688 37.601562 " fill-opacity="1" fill-rule="nonzero"/><path fill="#dc4d4e" d="M 58.765625 46.300781 C 58.429688 44.234375 56.878906 42.671875 54.960938 42.222656 C 54.796875 42.453125 54.582031 42.613281 54.328125 42.65625 C 53.949219 42.71875 53.570312 42.507812 53.257812 42.128906 C 53.179688 42.136719 53.097656 42.140625 53.015625 42.152344 C 50.289062 42.601562 48.433594 45.179688 48.878906 47.910156 C 49.320312 50.644531 51.894531 52.5 54.628906 52.058594 C 57.355469 51.613281 59.210938 49.035156 58.765625 46.300781 Z M 79 43.074219 C 78.558594 40.339844 75.984375 38.484375 73.25 38.929688 C 73.082031 38.957031 72.917969 38.992188 72.753906 39.039062 C 72.585938 39.550781 72.269531 39.917969 71.855469 39.988281 C 71.613281 40.027344 71.367188 39.953125 71.144531 39.804688 C 69.644531 40.878906 68.792969 42.738281 69.113281 44.6875 C 69.554688 47.417969 72.128906 49.277344 74.859375 48.828125 C 77.59375 48.382812 79.445312 45.808594 79 43.074219 Z M 116.015625 151.601562 C 115.800781 151.5 115.585938 151.402344 115.371094 151.300781 C 115.320312 151.40625 115.214844 151.46875 115.105469 151.46875 C 115.066406 151.46875 115.03125 151.460938 114.992188 151.445312 C 101.445312 145.726562 91.652344 133.71875 91.550781 133.601562 C 91.457031 133.480469 91.472656 133.3125 91.582031 133.207031 C 81.1875 122.257812 72.382812 108.941406 65.667969 97.207031 C 65.46875 96.859375 65.277344 96.511719 65.082031 96.175781 C 64.988281 96.011719 64.898438 95.855469 64.8125 95.695312 C 63.804688 93.90625 62.847656 92.164062 61.945312 90.472656 C 61.691406 90.003906 61.449219 89.539062 61.203125 89.085938 C 63.078125 90.710938 64.625 91.824219 65.144531 92.183594 C 66.238281 91.15625 67.46875 88.625 68.667969 85.570312 L 65.195312 77.257812 C 65.46875 77.019531 65.675781 76.765625 65.808594 76.582031 L 63.585938 73.46875 L 61.347656 76.742188 C 61.625 77.007812 61.894531 77.214844 62.148438 77.382812 L 59.636719 86.0625 C 56.429688 79.816406 54.074219 74.644531 52.667969 71.441406 C 52.476562 71 52.296875 70.59375 52.140625 70.222656 C 51.71875 69.242188 51.433594 68.550781 51.289062 68.199219 C 51.234375 68.0625 51.195312 67.976562 51.183594 67.941406 C 51.179688 67.933594 51.179688 67.925781 51.179688 67.925781 C 46.859375 66.984375 43.039062 67.257812 39.832031 68.070312 C 32.980469 69.796875 28.945312 73.964844 28.945312 73.964844 C 28.945312 73.964844 29.085938 74.371094 29.351562 75.117188 C 32.027344 82.53125 47.328125 123.910156 61.957031 141.195312 C 64.824219 144.589844 67.726562 147.703125 70.601562 150.554688 C 70.839844 150.789062 71.074219 151.019531 71.308594 151.246094 C 73.730469 153.617188 76.128906 155.796875 78.476562 157.808594 C 78.476562 157.808594 78.476562 157.808594 78.484375 157.808594 C 78.722656 157.984375 93.664062 169.035156 103.71875 174.898438 C 107.386719 176.765625 109.574219 177.59375 109.574219 177.59375 L 122.457031 167.203125 Z M 81.210938 161.710938 C 78.375 164.84375 75.910156 167.089844 74.449219 168.339844 C 74.261719 168.5 74.089844 168.640625 73.9375 168.769531 C 73.363281 169.246094 73.039062 169.492188 73.039062 169.492188 L 74.742188 172.722656 L 75.730469 174.59375 L 78.613281 180.074219 L 80.480469 183.609375 L 96.0625 179.214844 C 97.078125 178.003906 98.011719 176.640625 98.875 175.179688 C 93.714844 173.226562 87.117188 169.363281 81.210938 161.710938 Z M 97.683594 131.996094 C 97.378906 133.203125 97.035156 134.390625 96.667969 135.542969 C 96.453125 136.210938 96.230469 136.875 95.996094 137.527344 C 98.761719 140.25 102.828125 143.84375 107.753906 146.964844 C 107.863281 146.269531 107.910156 145.882812 107.910156 145.882812 L 97.683594 131.996094 " fill-opacity="1" fill-rule="nonzero"/><path fill="#100f0d" d="M 72.09375 57.476562 C 64.105469 61.558594 56.117188 59.050781 55.734375 58.929688 C 55.726562 58.925781 55.71875 58.921875 55.71875 58.921875 L 55.378906 62.777344 C 52.382812 66.160156 44.726562 66.320312 43.75 63.003906 C 42.710938 59.46875 39.699219 58.324219 35.957031 56.96875 C 33.683594 56.148438 33.449219 53.777344 33.609375 52.039062 C 31.929688 51.742188 30.277344 52.273438 30.535156 54.722656 C 30.8125 57.355469 30.269531 59.011719 28.375 60.695312 C 24.738281 63.917969 27.371094 70.550781 31.804688 68.066406 C 36.234375 65.578125 38.664062 65.707031 39.828125 68.066406 C 39.832031 68.066406 39.832031 68.070312 39.832031 68.070312 C 43.039062 67.257812 46.859375 66.984375 51.179688 67.925781 C 51.179688 67.925781 51.179688 67.933594 51.183594 67.941406 L 51.21875 67.941406 C 51.5 67.933594 51.664062 67.925781 51.664062 67.925781 L 51.667969 67.925781 L 54.933594 65.574219 L 55.351562 63.148438 C 65.609375 66.199219 71.65625 58.097656 72.082031 57.503906 C 72.101562 57.480469 72.113281 57.46875 72.113281 57.46875 C 72.105469 57.472656 72.097656 57.476562 72.09375 57.476562 Z M 130.164062 20.332031 C 130.144531 20.25 130.085938 20.183594 130.011719 20.148438 C 129.957031 20.117188 129.882812 20.101562 129.808594 20.125 C 129.792969 20.128906 129.78125 20.136719 129.765625 20.144531 C 129.640625 20.203125 129.566406 20.339844 129.601562 20.476562 C 129.609375 20.496094 130.113281 22.539062 129.738281 24.847656 C 129.710938 25.007812 129.816406 25.15625 129.980469 25.183594 C 129.992188 25.1875 130.007812 25.1875 130.023438 25.1875 C 130.164062 25.1875 130.289062 25.089844 130.3125 24.941406 C 130.707031 22.511719 130.1875 20.421875 130.164062 20.332031 Z M 147.582031 8.316406 C 147.542969 8.296875 147.503906 8.292969 147.460938 8.292969 C 147.347656 8.296875 147.246094 8.367188 147.203125 8.476562 L 142.34375 20.570312 C 142.335938 20.582031 142.335938 20.589844 142.335938 20.597656 C 141.484375 20.058594 140.363281 19.675781 139.21875 19.40625 L 144 7.039062 C 144.03125 6.964844 144.027344 6.886719 143.996094 6.820312 C 143.96875 6.75 143.910156 6.691406 143.835938 6.660156 C 143.804688 6.648438 143.777344 6.648438 143.753906 6.644531 C 143.625 6.636719 143.503906 6.707031 143.457031 6.828125 L 138.640625 19.28125 C 137.441406 19.039062 136.261719 18.90625 135.386719 18.835938 L 135.792969 15.542969 L 136.867188 6.890625 C 136.886719 6.726562 136.769531 6.585938 136.613281 6.5625 C 136.59375 6.5625 136.582031 6.566406 136.5625 6.566406 C 136.421875 6.570312 136.304688 6.675781 136.285156 6.816406 L 134.804688 18.792969 C 134.347656 18.765625 134.046875 18.757812 133.992188 18.757812 C 133.984375 18.757812 133.984375 18.757812 133.980469 18.757812 C 133.824219 18.757812 133.695312 18.882812 133.691406 19.042969 C 133.6875 19.199219 133.816406 19.335938 133.976562 19.339844 C 134.019531 19.339844 136.339844 19.398438 138.648438 19.878906 C 138.664062 19.894531 138.6875 19.910156 138.707031 19.917969 C 138.746094 19.929688 138.777344 19.9375 138.816406 19.9375 C 138.835938 19.9375 138.855469 19.933594 138.878906 19.929688 C 140.621094 20.308594 142.316406 20.941406 142.980469 21.96875 C 143.03125 22.054688 143.128906 22.105469 143.222656 22.105469 C 143.277344 22.105469 143.328125 22.085938 143.378906 22.058594 C 143.511719 21.96875 143.554688 21.789062 143.46875 21.652344 C 143.292969 21.382812 143.0625 21.140625 142.785156 20.914062 C 142.824219 20.882812 142.859375 20.839844 142.878906 20.792969 L 147.746094 8.691406 C 147.753906 8.671875 147.753906 8.65625 147.753906 8.632812 C 147.777344 8.5 147.714844 8.367188 147.582031 8.316406 Z M 71.308594 151.246094 C 71.074219 151.019531 70.839844 150.789062 70.601562 150.554688 C 71.546875 156.234375 72.644531 162.3125 73.9375 168.769531 C 74.089844 168.640625 74.261719 168.5 74.449219 168.339844 C 73.242188 162.304688 72.203125 156.605469 71.308594 151.246094 Z M 65.664062 95.953125 C 65.664062 95.867188 65.628906 95.789062 65.566406 95.734375 C 65.441406 95.878906 65.375 95.949219 65.375 95.949219 C 65.285156 95.910156 65.195312 95.867188 65.105469 95.824219 C 65.089844 95.863281 65.082031 95.90625 65.082031 95.945312 L 65.082031 96.175781 C 65.277344 96.511719 65.46875 96.859375 65.667969 97.207031 C 65.660156 96.410156 65.664062 95.988281 65.664062 95.953125 Z M 75.730469 174.59375 L 74.742188 172.722656 C 75.265625 175.246094 75.8125 177.820312 76.398438 180.449219 L 76.398438 180.464844 C 76.429688 180.601562 76.550781 180.699219 76.679688 180.699219 C 76.703125 180.699219 76.722656 180.695312 76.746094 180.691406 C 76.898438 180.65625 76.992188 180.507812 76.96875 180.359375 L 76.96875 180.34375 C 76.539062 178.394531 76.128906 176.484375 75.730469 174.59375 Z M 72.222656 179.0625 C 72.132812 178.917969 70.019531 175.476562 66.46875 175.691406 C 66.3125 175.699219 66.1875 175.839844 66.195312 176 C 66.207031 176.160156 66.339844 176.289062 66.503906 176.273438 C 69.6875 176.078125 71.703125 179.332031 71.722656 179.363281 C 71.777344 179.457031 71.875 179.503906 71.972656 179.503906 C 72.027344 179.503906 72.074219 179.492188 72.125 179.464844 C 72.261719 179.375 72.308594 179.199219 72.222656 179.0625 Z M 71.171875 184.796875 C 70.929688 184.753906 65.152344 183.699219 65.578125 176.71875 C 65.589844 176.554688 65.46875 176.414062 65.308594 176.40625 C 65.148438 176.398438 65.007812 176.515625 65 176.679688 C 64.539062 184.199219 71.011719 185.359375 71.078125 185.371094 C 71.09375 185.375 71.109375 185.375 71.128906 185.375 C 71.269531 185.375 71.390625 185.277344 71.414062 185.132812 C 71.441406 184.972656 71.335938 184.824219 71.171875 184.796875 Z M 56 194.285156 C 55.914062 194.121094 53.832031 190.3125 52.253906 188.941406 C 52.132812 188.839844 51.949219 188.851562 51.84375 188.972656 C 51.738281 189.097656 51.75 189.277344 51.871094 189.386719 C 53.371094 190.6875 55.46875 194.523438 55.488281 194.566406 C 55.542969 194.660156 55.640625 194.714844 55.746094 194.714844 C 55.769531 194.714844 55.792969 194.703125 55.820312 194.699219 C 55.839844 194.691406 55.863281 194.691406 55.886719 194.683594 C 55.9375 194.648438 55.976562 194.601562 56 194.550781 C 56.042969 194.46875 56.046875 194.371094 56 194.285156 Z M 50.878906 200.035156 C 50.820312 199.828125 49.46875 195.027344 46.679688 193.65625 C 46.535156 193.589844 46.367188 193.648438 46.292969 193.796875 C 46.222656 193.941406 46.285156 194.113281 46.429688 194.183594 C 48.980469 195.433594 50.304688 200.144531 50.3125 200.1875 C 50.34375 200.292969 50.425781 200.367188 50.519531 200.390625 C 50.546875 200.394531 50.570312 200.402344 50.597656 200.402344 C 50.621094 200.402344 50.644531 200.402344 50.675781 200.390625 C 50.777344 200.363281 50.847656 200.277344 50.875 200.183594 C 50.886719 200.132812 50.890625 200.085938 50.878906 200.035156 Z M 45.085938 202.957031 C 45.042969 202.789062 44.09375 198.875 42.785156 197.042969 C 42.691406 196.914062 42.507812 196.882812 42.382812 196.976562 C 42.25 197.074219 42.21875 197.25 42.308594 197.382812 C 43.554688 199.125 44.507812 203.050781 44.515625 203.09375 C 44.539062 203.171875 44.589844 203.234375 44.65625 203.273438 C 44.699219 203.300781 44.746094 203.316406 44.796875 203.316406 C 44.824219 203.316406 44.84375 203.3125 44.867188 203.308594 C 44.96875 203.28125 45.039062 203.207031 45.070312 203.117188 C 45.085938 203.066406 45.09375 203.007812 45.085938 202.957031 Z M 37.261719 196.734375 C 37.171875 196.621094 37.015625 196.605469 36.898438 196.675781 C 36.882812 196.683594 36.863281 196.6875 36.851562 196.699219 C 36.742188 196.792969 36.726562 196.949219 36.796875 197.066406 C 36.808594 197.082031 36.808594 197.097656 36.824219 197.109375 C 36.835938 197.125 38.214844 198.777344 38.085938 201.320312 C 38.078125 201.480469 38.199219 201.617188 38.363281 201.625 L 38.378906 201.625 C 38.53125 201.625 38.660156 201.507812 38.667969 201.347656 C 38.808594 198.558594 37.324219 196.800781 37.261719 196.734375 Z M 69.066406 13.25 C 54.011719 12.113281 45.78125 18.238281 43.339844 20.441406 C 31.960938 20.902344 38.460938 8.085938 38.460938 8.085938 L 20.460938 25.394531 L 27.21875 27.996094 L 28.15625 28.359375 L 33.285156 30.328125 L 34.496094 30.796875 C 34.570312 30.824219 34.640625 30.855469 34.714844 30.878906 C 38.027344 32.15625 40.140625 32.96875 40.140625 32.96875 L 44.222656 31.269531 L 49.738281 31.148438 C 42.175781 29.941406 43.210938 22.90625 43.660156 20.933594 C 45.914062 18.867188 54.007812 12.691406 69.023438 13.828125 C 69.175781 13.839844 69.324219 13.722656 69.335938 13.5625 C 69.347656 13.402344 69.230469 13.261719 69.066406 13.25 Z M 26.933594 131.847656 L 31.511719 123.710938 C 32.050781 127.128906 35.335938 131.996094 35.335938 131.996094 L 34 141.132812 Z M 50.828125 163.242188 L 34.871094 142.277344 C 35.203125 141.890625 40.863281 135.277344 41.464844 131.140625 C 42.027344 127.289062 38.609375 114.675781 37.945312 112.277344 L 39.230469 110 C 39.3125 109.859375 39.261719 109.679688 39.121094 109.601562 C 38.980469 109.523438 38.800781 109.574219 38.722656 109.714844 L 26.328125 131.726562 C 26.269531 131.832031 26.28125 131.957031 26.351562 132.046875 L 50.199219 163.375 L 25.21875 184.863281 C 25.097656 184.964844 25.085938 185.148438 25.183594 185.269531 C 25.183594 185.273438 25.183594 185.273438 25.191406 185.277344 C 25.246094 185.34375 25.324219 185.375 25.40625 185.375 C 25.472656 185.375 25.546875 185.351562 25.597656 185.304688 L 28.539062 182.777344 L 36.054688 176.3125 L 50.785156 163.640625 C 50.902344 163.535156 50.921875 163.363281 50.828125 163.242188 Z M 103.71875 174.898438 C 93.664062 169.035156 78.722656 157.984375 78.484375 157.808594 C 79.363281 159.210938 80.277344 160.503906 81.210938 161.710938 C 87.117188 169.363281 93.714844 173.226562 98.875 175.179688 C 104.121094 177.160156 107.878906 177.164062 107.910156 177.164062 C 106.675781 176.566406 105.25 175.792969 103.71875 174.898438 Z M 115.222656 150.90625 C 112.574219 149.792969 110.070312 148.425781 107.753906 146.964844 C 102.828125 143.84375 98.761719 140.25 95.996094 137.527344 C 93.484375 135.042969 92.042969 133.277344 92.007812 133.230469 C 91.902344 133.109375 91.722656 133.085938 91.597656 133.191406 C 91.589844 133.195312 91.589844 133.203125 91.582031 133.207031 C 91.472656 133.3125 91.457031 133.480469 91.550781 133.601562 C 91.652344 133.71875 101.445312 145.726562 114.992188 151.445312 C 115.03125 151.460938 115.066406 151.46875 115.105469 151.46875 C 115.214844 151.46875 115.320312 151.40625 115.371094 151.300781 C 115.371094 151.296875 115.375 151.296875 115.375 151.292969 C 115.4375 151.144531 115.371094 150.972656 115.222656 150.90625 Z M 125.613281 98.320312 C 118.628906 98.320312 95.609375 93.210938 92.929688 92.609375 C 90.871094 88.894531 88.414062 86.519531 88.371094 86.480469 C 88.253906 86.367188 88.066406 86.371094 87.957031 86.488281 C 87.84375 86.601562 87.847656 86.789062 87.96875 86.902344 C 88.050781 86.980469 96.175781 94.800781 94.980469 104.296875 C 94.960938 104.457031 95.074219 104.601562 95.230469 104.625 L 95.269531 104.625 C 95.414062 104.625 95.542969 104.515625 95.558594 104.371094 C 95.71875 103.078125 95.710938 101.816406 95.582031 100.601562 C 97.75 100.957031 112.78125 103.425781 115.601562 103.78125 C 118.648438 104.167969 121.820312 104.578125 123.628906 103.785156 C 123.96875 103.636719 124.304688 103.34375 124.621094 102.96875 C 125.972656 101.359375 127.003906 98.207031 127.003906 98.207031 C 126.664062 98.285156 126.195312 98.320312 125.613281 98.320312 " fill-opacity="1" fill-rule="nonzero"/></svg>