<svg xmlns="http://www.w3.org/2000/svg" xmlns:xlink="http://www.w3.org/1999/xlink" width="200" zoomAndPan="magnify" viewBox="0 0 150 149.999998" height="200" preserveAspectRatio="xMidYMid meet" version="1.0"><defs><clipPath id="id1"><path d="M 63 41 L 126.75 41 L 126.75 111 L 63 111 Z M 63 41 " clip-rule="nonzero"/></clipPath><clipPath id="id2"><path d="M 23.25 80 L 87 80 L 87 150 L 23.25 150 Z M 23.25 80 " clip-rule="nonzero"/></clipPath></defs><rect x="-15" width="180" fill="#ffffff" y="-15" height="179.999997" fill-opacity="1"/><rect x="-15" width="180" fill="#ffffff" y="-15" height="179.999997" fill-opacity="1"/><rect x="-15" width="180" fill="#ffffff" y="-15" height="179.999997" fill-opacity="1"/><rect x="-15" width="180" fill="#ffffff" y="-15" height="179.999997" fill-opacity="1"/><path fill="#ffffff" d="M 84.414062 31.449219 C 84.414062 46.914062 71.878906 59.449219 56.414062 59.449219 C 40.949219 59.449219 28.410156 46.914062 28.410156 31.449219 C 28.410156 15.984375 40.949219 3.445312 56.414062 3.445312 C 71.878906 3.445312 84.414062 15.984375 84.414062 31.449219 " fill-opacity="1" fill-rule="nonzero"/><path fill="#ffffff" d="M 80.941406 112.710938 C 80.941406 126.113281 70.074219 136.980469 56.671875 136.980469 C 43.269531 136.980469 32.402344 126.113281 32.402344 112.710938 C 32.402344 99.304688 43.269531 88.441406 56.671875 88.441406 C 70.074219 88.441406 80.941406 99.304688 80.941406 112.710938 " fill-opacity="1" fill-rule="nonzero"/><path fill="#ffffff" d="M 117.542969 73.867188 C 117.542969 86.300781 107.460938 96.382812 95.023438 96.382812 C 82.589844 96.382812 72.507812 86.300781 72.507812 73.867188 C 72.507812 61.429688 82.589844 51.347656 95.023438 51.347656 C 107.460938 51.347656 117.542969 61.429688 117.542969 73.867188 " fill-opacity="1" fill-rule="nonzero"/><path fill="#063831" d="M 74.644531 24.394531 L 74.007812 31.714844 C 73.9375 32.585938 73.789062 33.253906 73.5625 33.71875 C 73.332031 34.183594 72.957031 34.417969 72.433594 34.417969 C 71.898438 34.417969 71.527344 34.191406 71.320312 33.742188 C 71.109375 33.292969 70.964844 32.605469 70.875 31.683594 L 70.398438 24.574219 C 70.308594 23.1875 70.265625 22.191406 70.265625 21.589844 C 70.265625 20.769531 70.480469 20.125 70.910156 19.667969 C 71.339844 19.207031 71.910156 18.976562 72.609375 18.976562 C 73.460938 18.976562 74.03125 19.269531 74.316406 19.859375 C 74.605469 20.449219 74.75 21.296875 74.75 22.40625 C 74.75 23.058594 74.714844 23.722656 74.644531 24.394531 Z M 74.082031 40.859375 C 73.636719 41.257812 73.117188 41.453125 72.523438 41.453125 C 71.917969 41.453125 71.390625 41.257812 70.941406 40.867188 C 70.488281 40.476562 70.265625 39.929688 70.265625 39.226562 C 70.265625 38.613281 70.480469 38.089844 70.910156 37.660156 C 71.339844 37.230469 71.867188 37.015625 72.492188 37.015625 C 73.117188 37.015625 73.648438 37.230469 74.089844 37.660156 C 74.527344 38.089844 74.75 38.613281 74.75 39.226562 C 74.75 39.921875 74.527344 40.464844 74.082031 40.859375 Z M 64.757812 22.589844 C 64.359375 22.941406 63.890625 23.117188 63.347656 23.117188 C 62.78125 23.117188 62.300781 22.945312 61.898438 22.597656 C 61.5 22.253906 61.296875 21.761719 61.296875 21.128906 C 61.296875 20.554688 61.503906 20.082031 61.914062 19.710938 C 62.324219 19.339844 62.800781 19.152344 63.347656 19.152344 C 63.871094 19.152344 64.335938 19.324219 64.742188 19.660156 C 65.148438 19.996094 65.351562 20.484375 65.351562 21.128906 C 65.351562 21.753906 65.152344 22.242188 64.757812 22.589844 Z M 65.351562 39.019531 C 65.351562 39.832031 65.15625 40.445312 64.769531 40.859375 C 64.386719 41.277344 63.894531 41.484375 63.300781 41.484375 C 62.707031 41.484375 62.226562 41.273438 61.855469 40.847656 C 61.484375 40.417969 61.296875 39.8125 61.296875 39.019531 L 61.296875 27.421875 C 61.296875 26.621094 61.484375 26.019531 61.855469 25.613281 C 62.226562 25.207031 62.707031 25.003906 63.300781 25.003906 C 63.894531 25.003906 64.386719 25.207031 64.769531 25.613281 C 65.15625 26.019531 65.351562 26.582031 65.351562 27.304688 Z M 56.84375 38.796875 C 56.84375 39.695312 56.636719 40.371094 56.21875 40.816406 C 55.804688 41.261719 55.269531 41.484375 54.617188 41.484375 C 53.953125 41.484375 53.421875 41.257812 53.027344 40.808594 C 52.632812 40.359375 52.433594 39.6875 52.433594 38.796875 L 52.433594 31.476562 L 42.917969 31.476562 L 42.917969 38.796875 C 42.917969 39.695312 42.707031 40.371094 42.292969 40.816406 C 41.878906 41.261719 41.34375 41.484375 40.691406 41.484375 C 40.027344 41.484375 39.496094 41.257812 39.101562 40.808594 C 38.707031 40.359375 38.507812 39.6875 38.507812 38.796875 L 38.507812 21.648438 C 38.507812 20.757812 38.703125 20.089844 39.09375 19.644531 C 39.484375 19.199219 40.015625 18.976562 40.691406 18.976562 C 41.351562 18.976562 41.890625 19.195312 42.300781 19.636719 C 42.710938 20.078125 42.917969 20.746094 42.917969 21.648438 L 42.917969 27.882812 L 52.433594 27.882812 L 52.433594 21.648438 C 52.433594 20.757812 52.632812 20.089844 53.035156 19.644531 C 53.4375 19.199219 53.964844 18.976562 54.617188 18.976562 C 55.28125 18.976562 55.816406 19.195312 56.226562 19.636719 C 56.636719 20.078125 56.84375 20.746094 56.84375 21.648438 Z M 56.628906 -0.00390625 C 39.121094 -0.00390625 24.925781 14.1875 24.925781 31.695312 C 24.925781 37.746094 26.625 43.402344 29.566406 48.210938 L 24.925781 69.132812 L 44.871094 61.144531 C 48.507812 62.597656 52.472656 63.398438 56.628906 63.398438 C 74.136719 63.398438 88.328125 49.203125 88.328125 31.695312 C 88.328125 14.1875 74.136719 -0.00390625 56.628906 -0.00390625 " fill-opacity="1" fill-rule="nonzero"/><path fill="#ff5757" d="M 96.527344 81.683594 L 100.949219 81.683594 C 100.167969 80.054688 99.011719 78.773438 97.488281 77.832031 L 99.453125 76.5625 C 101.347656 77.832031 102.578125 79.164062 103.140625 80.5625 L 101.417969 81.683594 L 103.578125 81.683594 C 103.6875 80.566406 103.796875 78.804688 103.90625 76.402344 L 97.355469 76.402344 L 96.527344 81.683594 " fill-opacity="1" fill-rule="nonzero"/><path fill="#ff5757" d="M 97.957031 70.242188 L 99.777344 69.136719 L 97.519531 69.136719 C 97.496094 70.9375 97.453125 72.511719 97.390625 73.867188 L 100.949219 73.867188 C 100.253906 72.488281 99.257812 71.28125 97.957031 70.242188 " fill-opacity="1" fill-rule="nonzero"/><path fill="#ff5757" d="M 85.511719 64.945312 L 83.316406 64.945312 L 83.316406 76.824219 L 85.511719 76.824219 L 85.511719 64.945312 " fill-opacity="1" fill-rule="nonzero"/><g clip-path="url(#id1)"><path fill="#ff5757" d="M 109.265625 76.402344 L 106.4375 76.402344 L 106.113281 81.683594 L 108.46875 81.683594 L 108.46875 84.117188 L 105.933594 84.117188 C 105.664062 86.175781 105.230469 87.445312 104.628906 87.921875 C 104.027344 88.398438 103.023438 88.625 101.613281 88.601562 L 99.519531 88.570312 L 98.25 85.875 L 102.410156 86.148438 C 102.972656 86.183594 103.269531 85.503906 103.304688 84.117188 L 93.457031 84.117188 C 94.03125 81.683594 94.433594 79.109375 94.660156 76.402344 L 92.824219 76.402344 L 92.824219 73.867188 L 94.820312 73.867188 C 94.90625 72.957031 94.953125 71.992188 94.953125 70.972656 C 94.953125 69.683594 94.917969 68.742188 94.855469 68.144531 L 93.699219 69.902344 L 91.394531 68.40625 C 94.027344 65.210938 95.589844 61.929688 96.089844 58.558594 L 98.347656 59.324219 C 98.316406 60.375 98.183594 61.253906 97.957031 61.957031 L 108.46875 61.957031 L 108.46875 64.378906 L 96.984375 64.378906 C 96.746094 64.960938 96.382812 65.703125 95.894531 66.601562 L 106.632812 66.601562 L 106.503906 73.867188 L 109.265625 73.867188 Z M 87.769531 88.441406 L 85.445312 87.109375 C 88.164062 83.652344 89.996094 79.9375 90.9375 75.960938 L 93.066406 76.855469 C 92.351562 81.125 90.585938 84.984375 87.769531 88.441406 Z M 83.316406 81.257812 L 80.785156 81.257812 L 80.785156 62.523438 L 88.03125 62.523438 L 88.03125 68.179688 L 88.695312 67.675781 C 91.199219 68.910156 92.910156 70.464844 93.832031 72.339844 L 91.765625 73.996094 C 90.867188 72.273438 89.621094 70.929688 88.03125 69.964844 L 88.03125 81.257812 L 85.511719 81.257812 L 85.511719 79.359375 L 83.316406 79.359375 Z M 89.476562 59.519531 C 91.425781 60.351562 92.996094 61.664062 94.1875 63.449219 L 92.304688 65.449219 C 91.414062 63.652344 89.859375 62.230469 87.640625 61.191406 Z M 126.726562 73.15625 C 126.726562 55.648438 112.53125 41.453125 95.023438 41.453125 C 93.167969 41.453125 91.351562 41.617188 89.582031 41.921875 C 85.957031 53.574219 76.308594 62.601562 64.296875 65.335938 C 63.664062 67.835938 63.324219 70.457031 63.324219 73.15625 C 63.324219 90.664062 77.515625 104.855469 95.023438 104.855469 C 99.179688 104.855469 103.148438 104.054688 106.785156 102.601562 L 126.726562 110.59375 L 122.089844 89.667969 C 125.03125 84.859375 126.726562 79.207031 126.726562 73.15625 " fill-opacity="1" fill-rule="nonzero"/></g><path fill="#ff5757" d="M 103.238281 72.792969 L 101.550781 73.867188 L 103.96875 73.867188 L 104.050781 69.136719 L 100.152344 69.136719 C 101.441406 70.035156 102.46875 71.257812 103.238281 72.792969 " fill-opacity="1" fill-rule="nonzero"/><path fill="#f7931e" d="M 67.742188 115.878906 C 67.472656 115.949219 67.210938 116.089844 66.964844 116.296875 C 66.722656 116.5 66.597656 116.789062 66.597656 117.15625 C 66.597656 117.539062 66.742188 117.863281 67.03125 118.132812 C 67.320312 118.398438 67.699219 118.53125 68.164062 118.53125 C 68.664062 118.53125 69.125 118.425781 69.546875 118.207031 C 69.96875 117.988281 70.277344 117.707031 70.472656 117.359375 C 70.699219 116.980469 70.8125 116.351562 70.8125 115.480469 L 70.8125 115.117188 C 70.445312 115.253906 69.910156 115.398438 69.203125 115.546875 C 68.5 115.699219 68.011719 115.808594 67.742188 115.878906 " fill-opacity="1" fill-rule="nonzero"/><path fill="#f7931e" d="M 52.480469 111.808594 C 51.988281 111.808594 51.554688 111.933594 51.179688 112.191406 C 50.804688 112.445312 50.515625 112.820312 50.3125 113.320312 C 50.109375 113.816406 50.007812 114.398438 50.007812 115.0625 C 50.007812 115.722656 50.109375 116.296875 50.308594 116.789062 C 50.507812 117.28125 50.792969 117.65625 51.164062 117.917969 C 51.539062 118.179688 51.976562 118.3125 52.480469 118.3125 C 53.242188 118.3125 53.851562 118.023438 54.304688 117.449219 C 54.753906 116.875 54.980469 116.078125 54.980469 115.0625 C 54.980469 114.035156 54.753906 113.238281 54.304688 112.664062 C 53.851562 112.09375 53.242188 111.808594 52.480469 111.808594 " fill-opacity="1" fill-rule="nonzero"/><g clip-path="url(#id2)"><path fill="#f7931e" d="M 79.015625 109.566406 L 78.621094 114.113281 C 78.578125 114.65625 78.484375 115.070312 78.34375 115.359375 C 78.203125 115.648438 77.96875 115.792969 77.640625 115.792969 C 77.308594 115.792969 77.078125 115.652344 76.949219 115.371094 C 76.820312 115.09375 76.726562 114.667969 76.671875 114.09375 L 76.378906 109.675781 C 76.324219 108.8125 76.292969 108.195312 76.292969 107.820312 C 76.292969 107.308594 76.429688 106.910156 76.695312 106.625 C 76.964844 106.339844 77.316406 106.195312 77.753906 106.195312 C 78.28125 106.195312 78.636719 106.378906 78.8125 106.746094 C 78.992188 107.113281 79.082031 107.640625 79.082031 108.328125 C 79.082031 108.734375 79.058594 109.144531 79.015625 109.566406 Z M 78.667969 119.796875 C 78.390625 120.042969 78.066406 120.167969 77.699219 120.167969 C 77.324219 120.167969 76.996094 120.042969 76.714844 119.800781 C 76.433594 119.558594 76.292969 119.21875 76.292969 118.78125 C 76.292969 118.398438 76.429688 118.074219 76.695312 117.808594 C 76.964844 117.542969 77.292969 117.40625 77.679688 117.40625 C 78.066406 117.40625 78.398438 117.542969 78.671875 117.808594 C 78.945312 118.074219 79.082031 118.398438 79.082031 118.78125 C 79.082031 119.214844 78.941406 119.550781 78.667969 119.796875 Z M 73.375 119.867188 C 73.132812 120.078125 72.855469 120.183594 72.550781 120.183594 C 72.289062 120.183594 72.035156 120.0625 71.78125 119.820312 C 71.53125 119.578125 71.261719 119.222656 70.980469 118.761719 C 70.371094 119.238281 69.78125 119.59375 69.214844 119.828125 C 68.644531 120.066406 68.003906 120.183594 67.296875 120.183594 C 66.652344 120.183594 66.085938 120.054688 65.597656 119.800781 C 65.105469 119.546875 64.730469 119.199219 64.464844 118.761719 C 64.203125 118.328125 64.070312 117.851562 64.070312 117.34375 C 64.070312 116.652344 64.289062 116.066406 64.726562 115.582031 C 65.160156 115.09375 65.761719 114.769531 66.523438 114.601562 C 66.683594 114.566406 67.078125 114.480469 67.714844 114.355469 C 68.347656 114.222656 68.890625 114.105469 69.34375 113.996094 C 69.792969 113.890625 70.285156 113.757812 70.8125 113.605469 C 70.78125 112.941406 70.648438 112.453125 70.414062 112.144531 C 70.175781 111.832031 69.6875 111.675781 68.941406 111.675781 C 68.300781 111.675781 67.820312 111.765625 67.496094 111.945312 C 67.175781 112.125 66.898438 112.390625 66.667969 112.746094 C 66.4375 113.105469 66.273438 113.339844 66.175781 113.453125 C 66.082031 113.566406 65.878906 113.625 65.5625 113.625 C 65.28125 113.625 65.035156 113.535156 64.832031 113.351562 C 64.625 113.171875 64.519531 112.9375 64.519531 112.65625 C 64.519531 112.210938 64.679688 111.78125 64.992188 111.363281 C 65.304688 110.945312 65.792969 110.601562 66.457031 110.332031 C 67.125 110.058594 67.949219 109.925781 68.941406 109.925781 C 70.046875 109.925781 70.917969 110.054688 71.550781 110.316406 C 72.1875 110.578125 72.632812 110.992188 72.894531 111.558594 C 73.15625 112.125 73.289062 112.875 73.289062 113.808594 C 73.289062 114.398438 73.285156 114.902344 73.28125 115.3125 C 73.277344 115.726562 73.273438 116.183594 73.269531 116.6875 C 73.269531 117.160156 73.347656 117.65625 73.503906 118.167969 C 73.660156 118.683594 73.738281 119.011719 73.738281 119.160156 C 73.738281 119.417969 73.617188 119.652344 73.375 119.867188 Z M 62.011719 118.652344 C 62.011719 119.164062 61.894531 119.546875 61.65625 119.800781 C 61.417969 120.054688 61.113281 120.183594 60.738281 120.183594 C 60.371094 120.183594 60.070312 120.050781 59.839844 119.789062 C 59.609375 119.523438 59.492188 119.144531 59.492188 118.652344 L 59.492188 107.726562 C 59.492188 107.222656 59.605469 106.84375 59.828125 106.585938 C 60.054688 106.324219 60.355469 106.195312 60.738281 106.195312 C 61.121094 106.195312 61.425781 106.324219 61.660156 106.578125 C 61.894531 106.835938 62.011719 107.21875 62.011719 107.726562 Z M 57.160156 117.140625 C 56.925781 117.773438 56.585938 118.316406 56.144531 118.773438 C 55.699219 119.226562 55.171875 119.578125 54.558594 119.820312 C 53.941406 120.0625 53.25 120.183594 52.480469 120.183594 C 51.71875 120.183594 51.03125 120.0625 50.421875 119.816406 C 49.816406 119.570312 49.285156 119.21875 48.839844 118.757812 C 48.394531 118.300781 48.058594 117.757812 47.824219 117.136719 C 47.59375 116.511719 47.480469 115.820312 47.480469 115.0625 C 47.480469 114.300781 47.597656 113.601562 47.832031 112.96875 C 48.0625 112.335938 48.398438 111.792969 48.835938 111.34375 C 49.273438 110.894531 49.800781 110.550781 50.421875 110.308594 C 51.042969 110.0625 51.730469 109.941406 52.480469 109.941406 C 53.242188 109.941406 53.9375 110.066406 54.558594 110.3125 C 55.179688 110.558594 55.710938 110.910156 56.152344 111.363281 C 56.597656 111.820312 56.933594 112.359375 57.164062 112.988281 C 57.394531 113.613281 57.507812 114.308594 57.507812 115.0625 C 57.507812 115.8125 57.390625 116.503906 57.160156 117.140625 Z M 45.3125 118.515625 C 45.3125 119.074219 45.183594 119.492188 44.925781 119.769531 C 44.664062 120.046875 44.332031 120.183594 43.925781 120.183594 C 43.515625 120.183594 43.1875 120.042969 42.941406 119.765625 C 42.695312 119.484375 42.570312 119.066406 42.570312 118.515625 L 42.570312 113.964844 L 36.65625 113.964844 L 36.65625 118.515625 C 36.65625 119.074219 36.527344 119.492188 36.269531 119.769531 C 36.011719 120.046875 35.679688 120.183594 35.273438 120.183594 C 34.859375 120.183594 34.53125 120.042969 34.285156 119.765625 C 34.039062 119.484375 33.917969 119.066406 33.917969 118.515625 L 33.917969 107.859375 C 33.917969 107.304688 34.039062 106.886719 34.28125 106.613281 C 34.523438 106.335938 34.855469 106.195312 35.273438 106.195312 C 35.683594 106.195312 36.019531 106.332031 36.273438 106.605469 C 36.53125 106.882812 36.65625 107.296875 36.65625 107.859375 L 36.65625 111.734375 L 42.570312 111.734375 L 42.570312 107.859375 C 42.570312 107.304688 42.695312 106.886719 42.945312 106.613281 C 43.195312 106.335938 43.519531 106.195312 43.925781 106.195312 C 44.339844 106.195312 44.671875 106.332031 44.929688 106.605469 C 45.183594 106.882812 45.3125 107.296875 45.3125 107.859375 Z M 86.089844 106.480469 C 74.054688 103.25 64.597656 93.664062 61.558594 81.554688 C 59.433594 81.105469 57.234375 80.867188 54.976562 80.867188 C 37.46875 80.867188 23.273438 95.058594 23.273438 112.566406 C 23.273438 118.617188 24.96875 124.273438 27.910156 129.082031 L 23.273438 150.003906 L 43.214844 142.015625 C 46.851562 143.46875 50.820312 144.269531 54.976562 144.269531 C 72.484375 144.269531 86.675781 130.074219 86.675781 112.566406 C 86.675781 110.484375 86.472656 108.449219 86.089844 106.480469 " fill-opacity="1" fill-rule="nonzero"/></g></svg>