<svg xmlns="http://www.w3.org/2000/svg" xmlns:xlink="http://www.w3.org/1999/xlink" width="200" zoomAndPan="magnify" viewBox="0 0 150 149.999998" height="200" preserveAspectRatio="xMidYMid meet" version="1.0"><defs><clipPath id="id1"><path d="M 61 41 L 125.097656 41 L 125.097656 111 L 61 111 Z M 61 41 " clip-rule="nonzero"/></clipPath><clipPath id="id2"><path d="M 21.597656 80 L 86 80 L 86 150 L 21.597656 150 Z M 21.597656 80 " clip-rule="nonzero"/></clipPath></defs><rect x="-15" width="180" fill="#ffffff" y="-15" height="179.999997" fill-opacity="1"/><rect x="-15" width="180" fill="#000000" y="-15" height="179.999997" fill-opacity="1"/><rect x="-15" width="180" fill="#ffffff" y="-15" height="179.999997" fill-opacity="1"/><rect x="-15" width="180" fill="#000000" y="-15" height="179.999997" fill-opacity="1"/><path fill="#000000" d="M 82.761719 31.449219 C 82.761719 46.914062 70.226562 59.449219 54.761719 59.449219 C 39.296875 59.449219 26.757812 46.914062 26.757812 31.449219 C 26.757812 15.984375 39.296875 3.445312 54.761719 3.445312 C 70.226562 3.445312 82.761719 15.984375 82.761719 31.449219 " fill-opacity="1" fill-rule="nonzero"/><path fill="#000000" d="M 79.292969 112.710938 C 79.292969 126.113281 68.425781 136.980469 55.023438 136.980469 C 41.617188 136.980469 30.753906 126.113281 30.753906 112.710938 C 30.753906 99.304688 41.617188 88.441406 55.023438 88.441406 C 68.425781 88.441406 79.292969 99.304688 79.292969 112.710938 " fill-opacity="1" fill-rule="nonzero"/><path fill="#000000" d="M 115.890625 73.867188 C 115.890625 86.300781 105.808594 96.382812 93.375 96.382812 C 80.9375 96.382812 70.855469 86.300781 70.855469 73.867188 C 70.855469 61.429688 80.9375 51.347656 93.375 51.347656 C 105.808594 51.347656 115.890625 61.429688 115.890625 73.867188 " fill-opacity="1" fill-rule="nonzero"/><path fill="#063831" d="M 72.992188 24.394531 L 72.355469 31.714844 C 72.285156 32.585938 72.136719 33.253906 71.910156 33.71875 C 71.683594 34.183594 71.304688 34.417969 70.78125 34.417969 C 70.246094 34.417969 69.875 34.191406 69.667969 33.742188 C 69.460938 33.292969 69.3125 32.605469 69.222656 31.683594 L 68.746094 24.574219 C 68.660156 23.1875 68.613281 22.191406 68.613281 21.589844 C 68.613281 20.769531 68.828125 20.125 69.257812 19.667969 C 69.691406 19.207031 70.257812 18.976562 70.960938 18.976562 C 71.8125 18.976562 72.378906 19.269531 72.667969 19.859375 C 72.953125 20.449219 73.097656 21.296875 73.097656 22.40625 C 73.097656 23.058594 73.0625 23.722656 72.992188 24.394531 Z M 72.429688 40.859375 C 71.984375 41.257812 71.464844 41.453125 70.871094 41.453125 C 70.265625 41.453125 69.738281 41.257812 69.289062 40.867188 C 68.839844 40.476562 68.613281 39.929688 68.613281 39.226562 C 68.613281 38.613281 68.828125 38.089844 69.257812 37.660156 C 69.691406 37.230469 70.21875 37.015625 70.839844 37.015625 C 71.464844 37.015625 71.996094 37.230469 72.4375 37.660156 C 72.878906 38.089844 73.097656 38.613281 73.097656 39.226562 C 73.097656 39.921875 72.875 40.464844 72.429688 40.859375 Z M 63.105469 22.589844 C 62.710938 22.941406 62.238281 23.117188 61.695312 23.117188 C 61.132812 23.117188 60.648438 22.945312 60.25 22.597656 C 59.847656 22.253906 59.648438 21.761719 59.648438 21.128906 C 59.648438 20.554688 59.851562 20.082031 60.261719 19.710938 C 60.671875 19.339844 61.152344 19.152344 61.695312 19.152344 C 62.21875 19.152344 62.683594 19.324219 63.089844 19.660156 C 63.496094 19.996094 63.699219 20.484375 63.699219 21.128906 C 63.699219 21.753906 63.5 22.242188 63.105469 22.589844 Z M 63.699219 39.019531 C 63.699219 39.832031 63.507812 40.445312 63.121094 40.859375 C 62.734375 41.277344 62.246094 41.484375 61.652344 41.484375 C 61.054688 41.484375 60.574219 41.273438 60.203125 40.847656 C 59.832031 40.417969 59.648438 39.8125 59.648438 39.019531 L 59.648438 27.421875 C 59.648438 26.621094 59.832031 26.019531 60.203125 25.613281 C 60.574219 25.207031 61.054688 25.003906 61.652344 25.003906 C 62.246094 25.003906 62.734375 25.207031 63.121094 25.613281 C 63.507812 26.019531 63.699219 26.582031 63.699219 27.304688 Z M 55.191406 38.796875 C 55.191406 39.695312 54.984375 40.371094 54.570312 40.816406 C 54.152344 41.261719 53.617188 41.484375 52.964844 41.484375 C 52.300781 41.484375 51.773438 41.257812 51.375 40.808594 C 50.980469 40.359375 50.78125 39.6875 50.78125 38.796875 L 50.78125 31.476562 L 41.265625 31.476562 L 41.265625 38.796875 C 41.265625 39.695312 41.058594 40.371094 40.640625 40.816406 C 40.226562 41.261719 39.691406 41.484375 39.039062 41.484375 C 38.375 41.484375 37.847656 41.257812 37.449219 40.808594 C 37.054688 40.359375 36.855469 39.6875 36.855469 38.796875 L 36.855469 21.648438 C 36.855469 20.757812 37.050781 20.089844 37.441406 19.644531 C 37.832031 19.199219 38.367188 18.976562 39.039062 18.976562 C 39.703125 18.976562 40.238281 19.195312 40.648438 19.636719 C 41.058594 20.078125 41.265625 20.746094 41.265625 21.648438 L 41.265625 27.882812 L 50.78125 27.882812 L 50.78125 21.648438 C 50.78125 20.757812 50.984375 20.089844 51.382812 19.644531 C 51.785156 19.199219 52.3125 18.976562 52.964844 18.976562 C 53.628906 18.976562 54.164062 19.195312 54.574219 19.636719 C 54.988281 20.078125 55.191406 20.746094 55.191406 21.648438 Z M 54.976562 -0.00390625 C 37.46875 -0.00390625 23.277344 14.1875 23.277344 31.695312 C 23.277344 37.746094 24.972656 43.402344 27.914062 48.210938 L 23.277344 69.132812 L 43.21875 61.144531 C 46.855469 62.597656 50.824219 63.398438 54.976562 63.398438 C 72.484375 63.398438 86.675781 49.203125 86.675781 31.695312 C 86.675781 14.1875 72.484375 -0.00390625 54.976562 -0.00390625 " fill-opacity="1" fill-rule="nonzero"/><path fill="#ff5757" d="M 94.875 81.683594 L 99.296875 81.683594 C 98.515625 80.054688 97.363281 78.773438 95.835938 77.832031 L 97.800781 76.5625 C 99.699219 77.832031 100.925781 79.164062 101.488281 80.5625 L 99.769531 81.683594 L 101.929688 81.683594 C 102.035156 80.566406 102.144531 78.804688 102.253906 76.402344 L 95.707031 76.402344 L 94.875 81.683594 " fill-opacity="1" fill-rule="nonzero"/><path fill="#ff5757" d="M 96.308594 70.242188 L 98.125 69.136719 L 95.867188 69.136719 C 95.847656 70.9375 95.804688 72.511719 95.738281 73.867188 L 99.296875 73.867188 C 98.601562 72.488281 97.605469 71.28125 96.308594 70.242188 " fill-opacity="1" fill-rule="nonzero"/><path fill="#ff5757" d="M 83.859375 64.945312 L 81.667969 64.945312 L 81.667969 76.824219 L 83.859375 76.824219 L 83.859375 64.945312 " fill-opacity="1" fill-rule="nonzero"/><g clip-path="url(#id1)"><path fill="#ff5757" d="M 107.617188 76.402344 L 104.789062 76.402344 L 104.464844 81.683594 L 106.820312 81.683594 L 106.820312 84.117188 L 104.285156 84.117188 C 104.011719 86.175781 103.578125 87.445312 102.976562 87.921875 C 102.375 88.398438 101.371094 88.625 99.960938 88.601562 L 97.867188 88.570312 L 96.597656 85.875 L 100.757812 86.148438 C 101.320312 86.183594 101.621094 85.503906 101.652344 84.117188 L 91.804688 84.117188 C 92.378906 81.683594 92.78125 79.109375 93.007812 76.402344 L 91.171875 76.402344 L 91.171875 73.867188 L 93.171875 73.867188 C 93.257812 72.957031 93.300781 71.992188 93.300781 70.972656 C 93.300781 69.683594 93.269531 68.742188 93.203125 68.144531 L 92.050781 69.902344 L 89.742188 68.40625 C 92.375 65.210938 93.941406 61.929688 94.4375 58.558594 L 96.695312 59.324219 C 96.664062 60.375 96.535156 61.253906 96.308594 61.957031 L 106.820312 61.957031 L 106.820312 64.378906 L 95.332031 64.378906 C 95.09375 64.960938 94.730469 65.703125 94.242188 66.601562 L 104.984375 66.601562 L 104.855469 73.867188 L 107.617188 73.867188 Z M 86.117188 88.441406 L 83.796875 87.109375 C 86.515625 83.652344 88.34375 79.9375 89.289062 75.960938 L 91.414062 76.855469 C 90.703125 81.125 88.933594 84.984375 86.117188 88.441406 Z M 81.667969 81.257812 L 79.132812 81.257812 L 79.132812 62.523438 L 86.378906 62.523438 L 86.378906 68.179688 L 87.046875 67.675781 C 89.546875 68.910156 91.257812 70.464844 92.179688 72.339844 L 90.117188 73.996094 C 89.21875 72.273438 87.972656 70.929688 86.378906 69.964844 L 86.378906 81.257812 L 83.859375 81.257812 L 83.859375 79.359375 L 81.667969 79.359375 Z M 87.824219 59.519531 C 89.773438 60.351562 91.34375 61.664062 92.535156 63.449219 L 90.652344 65.449219 C 89.765625 63.652344 88.210938 62.230469 85.988281 61.191406 Z M 125.074219 73.15625 C 125.074219 55.648438 110.882812 41.453125 93.375 41.453125 C 91.519531 41.453125 89.699219 41.617188 87.929688 41.921875 C 84.308594 53.574219 74.660156 62.601562 62.644531 65.335938 C 62.011719 67.835938 61.671875 70.457031 61.671875 73.15625 C 61.671875 90.664062 75.867188 104.855469 93.375 104.855469 C 97.527344 104.855469 101.496094 104.054688 105.132812 102.601562 L 125.074219 110.59375 L 120.4375 89.667969 C 123.378906 84.859375 125.074219 79.207031 125.074219 73.15625 " fill-opacity="1" fill-rule="nonzero"/></g><path fill="#ff5757" d="M 101.585938 72.792969 L 99.898438 73.867188 L 102.320312 73.867188 L 102.398438 69.136719 L 98.5 69.136719 C 99.789062 70.035156 100.816406 71.257812 101.585938 72.792969 " fill-opacity="1" fill-rule="nonzero"/><path fill="#f7931e" d="M 66.089844 115.878906 C 65.820312 115.949219 65.5625 116.089844 65.316406 116.296875 C 65.070312 116.5 64.945312 116.789062 64.945312 117.15625 C 64.945312 117.539062 65.089844 117.863281 65.378906 118.132812 C 65.667969 118.398438 66.046875 118.53125 66.515625 118.53125 C 67.011719 118.53125 67.472656 118.425781 67.894531 118.207031 C 68.316406 117.988281 68.625 117.707031 68.820312 117.359375 C 69.050781 116.980469 69.164062 116.351562 69.164062 115.480469 L 69.164062 115.117188 C 68.792969 115.253906 68.257812 115.398438 67.554688 115.546875 C 66.847656 115.699219 66.359375 115.808594 66.089844 115.878906 " fill-opacity="1" fill-rule="nonzero"/><path fill="#f7931e" d="M 50.828125 111.808594 C 50.339844 111.808594 49.902344 111.933594 49.527344 112.191406 C 49.152344 112.445312 48.863281 112.820312 48.660156 113.320312 C 48.457031 113.816406 48.359375 114.398438 48.359375 115.0625 C 48.359375 115.722656 48.457031 116.296875 48.65625 116.789062 C 48.855469 117.28125 49.144531 117.65625 49.515625 117.917969 C 49.886719 118.179688 50.324219 118.3125 50.828125 118.3125 C 51.59375 118.3125 52.199219 118.023438 52.652344 117.449219 C 53.105469 116.875 53.332031 116.078125 53.332031 115.0625 C 53.332031 114.035156 53.105469 113.238281 52.652344 112.664062 C 52.199219 112.09375 51.59375 111.808594 50.828125 111.808594 " fill-opacity="1" fill-rule="nonzero"/><g clip-path="url(#id2)"><path fill="#f7931e" d="M 77.367188 109.566406 L 76.96875 114.113281 C 76.925781 114.65625 76.832031 115.070312 76.691406 115.359375 C 76.550781 115.648438 76.316406 115.792969 75.992188 115.792969 C 75.660156 115.792969 75.429688 115.652344 75.300781 115.371094 C 75.167969 115.09375 75.078125 114.667969 75.023438 114.09375 L 74.726562 109.675781 C 74.671875 108.8125 74.644531 108.195312 74.644531 107.820312 C 74.644531 107.308594 74.777344 106.910156 75.046875 106.625 C 75.3125 106.339844 75.664062 106.195312 76.101562 106.195312 C 76.628906 106.195312 76.984375 106.378906 77.164062 106.746094 C 77.339844 107.113281 77.429688 107.640625 77.429688 108.328125 C 77.429688 108.734375 77.410156 109.144531 77.367188 109.566406 Z M 77.015625 119.796875 C 76.738281 120.042969 76.414062 120.167969 76.046875 120.167969 C 75.671875 120.167969 75.34375 120.042969 75.0625 119.800781 C 74.785156 119.558594 74.644531 119.21875 74.644531 118.78125 C 74.644531 118.398438 74.777344 118.074219 75.046875 117.808594 C 75.3125 117.542969 75.640625 117.40625 76.027344 117.40625 C 76.414062 117.40625 76.746094 117.542969 77.019531 117.808594 C 77.292969 118.074219 77.429688 118.398438 77.429688 118.78125 C 77.429688 119.214844 77.292969 119.550781 77.015625 119.796875 Z M 71.722656 119.867188 C 71.480469 120.078125 71.203125 120.183594 70.898438 120.183594 C 70.640625 120.183594 70.382812 120.0625 70.132812 119.820312 C 69.878906 119.578125 69.613281 119.222656 69.328125 118.761719 C 68.71875 119.238281 68.132812 119.59375 67.5625 119.828125 C 66.992188 120.066406 66.355469 120.183594 65.648438 120.183594 C 65 120.183594 64.433594 120.054688 63.945312 119.800781 C 63.457031 119.546875 63.078125 119.199219 62.816406 118.761719 C 62.550781 118.328125 62.417969 117.851562 62.417969 117.34375 C 62.417969 116.652344 62.636719 116.066406 63.074219 115.582031 C 63.511719 115.09375 64.109375 114.769531 64.871094 114.601562 C 65.03125 114.566406 65.429688 114.480469 66.0625 114.355469 C 66.695312 114.222656 67.238281 114.105469 67.691406 113.996094 C 68.144531 113.890625 68.632812 113.757812 69.164062 113.605469 C 69.132812 112.941406 69 112.453125 68.761719 112.144531 C 68.523438 111.832031 68.035156 111.675781 67.289062 111.675781 C 66.648438 111.675781 66.167969 111.765625 65.847656 111.945312 C 65.523438 112.125 65.246094 112.390625 65.015625 112.746094 C 64.785156 113.105469 64.621094 113.339844 64.527344 113.453125 C 64.429688 113.566406 64.226562 113.625 63.914062 113.625 C 63.628906 113.625 63.386719 113.535156 63.179688 113.351562 C 62.972656 113.171875 62.871094 112.9375 62.871094 112.65625 C 62.871094 112.210938 63.027344 111.78125 63.339844 111.363281 C 63.65625 110.945312 64.144531 110.601562 64.808594 110.332031 C 65.472656 110.058594 66.300781 109.925781 67.289062 109.925781 C 68.398438 109.925781 69.269531 110.054688 69.902344 110.316406 C 70.535156 110.578125 70.980469 110.992188 71.242188 111.558594 C 71.503906 112.125 71.636719 112.875 71.636719 113.808594 C 71.636719 114.398438 71.632812 114.902344 71.632812 115.3125 C 71.628906 115.726562 71.625 116.183594 71.617188 116.6875 C 71.617188 117.160156 71.695312 117.65625 71.851562 118.167969 C 72.007812 118.683594 72.089844 119.011719 72.089844 119.160156 C 72.089844 119.417969 71.964844 119.652344 71.722656 119.867188 Z M 60.359375 118.652344 C 60.359375 119.164062 60.242188 119.546875 60.007812 119.800781 C 59.769531 120.054688 59.460938 120.183594 59.085938 120.183594 C 58.71875 120.183594 58.417969 120.050781 58.1875 119.789062 C 57.957031 119.523438 57.84375 119.144531 57.84375 118.652344 L 57.84375 107.726562 C 57.84375 107.222656 57.953125 106.84375 58.179688 106.585938 C 58.402344 106.324219 58.707031 106.195312 59.085938 106.195312 C 59.46875 106.195312 59.777344 106.324219 60.011719 106.578125 C 60.242188 106.835938 60.359375 107.21875 60.359375 107.726562 Z M 55.507812 117.140625 C 55.273438 117.773438 54.933594 118.316406 54.492188 118.773438 C 54.050781 119.226562 53.519531 119.578125 52.90625 119.820312 C 52.289062 120.0625 51.597656 120.183594 50.828125 120.183594 C 50.066406 120.183594 49.382812 120.0625 48.773438 119.816406 C 48.164062 119.570312 47.636719 119.21875 47.191406 118.757812 C 46.742188 118.300781 46.40625 117.757812 46.175781 117.136719 C 45.945312 116.511719 45.828125 115.820312 45.828125 115.0625 C 45.828125 114.300781 45.945312 113.601562 46.179688 112.96875 C 46.414062 112.335938 46.75 111.792969 47.1875 111.34375 C 47.621094 110.894531 48.152344 110.550781 48.773438 110.308594 C 49.394531 110.0625 50.078125 109.941406 50.828125 109.941406 C 51.59375 109.941406 52.285156 110.066406 52.90625 110.3125 C 53.527344 110.558594 54.058594 110.910156 54.5 111.363281 C 54.945312 111.820312 55.28125 112.359375 55.511719 112.988281 C 55.742188 113.613281 55.859375 114.308594 55.859375 115.0625 C 55.859375 115.8125 55.742188 116.503906 55.507812 117.140625 Z M 43.660156 118.515625 C 43.660156 119.074219 43.53125 119.492188 43.273438 119.769531 C 43.015625 120.046875 42.683594 120.183594 42.277344 120.183594 C 41.863281 120.183594 41.535156 120.042969 41.289062 119.765625 C 41.042969 119.484375 40.921875 119.066406 40.921875 118.515625 L 40.921875 113.964844 L 35.007812 113.964844 L 35.007812 118.515625 C 35.007812 119.074219 34.875 119.492188 34.617188 119.769531 C 34.359375 120.046875 34.027344 120.183594 33.621094 120.183594 C 33.210938 120.183594 32.882812 120.042969 32.632812 119.765625 C 32.386719 119.484375 32.265625 119.066406 32.265625 118.515625 L 32.265625 107.859375 C 32.265625 107.304688 32.386719 106.886719 32.628906 106.613281 C 32.875 106.335938 33.203125 106.195312 33.621094 106.195312 C 34.035156 106.195312 34.367188 106.332031 34.625 106.605469 C 34.878906 106.882812 35.007812 107.296875 35.007812 107.859375 L 35.007812 111.734375 L 40.921875 111.734375 L 40.921875 107.859375 C 40.921875 107.304688 41.042969 106.886719 41.292969 106.613281 C 41.542969 106.335938 41.871094 106.195312 42.277344 106.195312 C 42.6875 106.195312 43.023438 106.332031 43.277344 106.605469 C 43.53125 106.882812 43.660156 107.296875 43.660156 107.859375 Z M 84.4375 106.480469 C 72.40625 103.25 62.949219 93.664062 59.910156 81.554688 C 57.785156 81.105469 55.582031 80.867188 53.324219 80.867188 C 35.816406 80.867188 21.625 95.058594 21.625 112.566406 C 21.625 118.617188 23.320312 124.273438 26.261719 129.082031 L 21.625 150.003906 L 41.566406 142.015625 C 45.203125 143.46875 49.167969 144.269531 53.324219 144.269531 C 70.832031 144.269531 85.023438 130.074219 85.023438 112.566406 C 85.023438 110.484375 84.824219 108.449219 84.4375 106.480469 " fill-opacity="1" fill-rule="nonzero"/></g></svg>