<svg xmlns="http://www.w3.org/2000/svg" xmlns:xlink="http://www.w3.org/1999/xlink" width="200" zoomAndPan="magnify" viewBox="0 0 150 149.999998" height="200" preserveAspectRatio="xMidYMid meet" version="1.0"><path fill="#fffef5" d="M 63.105469 25.148438 C 63.105469 25.148438 73.476562 29.578125 74.996094 32.980469 L 74.996094 133.992188 C 74.996094 133.992188 72.882812 129.191406 63.105469 125.3125 L 8.636719 99.585938 L 8.636719 -0.566406 L 63.105469 25.148438 " fill-opacity="1" fill-rule="nonzero"/><path fill="#fffef5" d="M 86.886719 25.148438 C 86.886719 25.148438 75.519531 30.125 74.996094 32.980469 L 74.996094 134.078125 C 74.996094 134.078125 76.628906 130.023438 86.886719 125.3125 L 141.355469 98.804688 L 141.355469 -1.347656 L 86.886719 25.148438 " fill-opacity="1" fill-rule="nonzero"/><path fill="#e7ded5" d="M 63.105469 25.148438 C 63.105469 25.148438 73.476562 29.578125 74.996094 32.980469 L 74.996094 133.992188 C 74.996094 133.992188 72.882812 129.191406 63.105469 125.3125 L 7.078125 101.144531 L 7.078125 0.992188 L 63.105469 25.148438 " fill-opacity="1" fill-rule="nonzero"/><path fill="#e7ded5" d="M 86.886719 25.148438 C 86.886719 25.148438 75.519531 30.125 74.996094 32.980469 L 74.996094 134.078125 C 74.996094 134.078125 76.628906 130.023438 86.886719 125.3125 L 142.914062 100.363281 L 142.914062 0.210938 L 86.886719 25.148438 " fill-opacity="1" fill-rule="nonzero"/><path fill="#d8cfc7" d="M 63.105469 26.707031 C 63.105469 26.707031 74.996094 31.632812 74.996094 32.980469 L 74.996094 133.992188 C 74.996094 133.992188 72.605469 131 63.105469 126.871094 L 5.523438 102.703125 L 5.523438 2.546875 L 63.105469 26.707031 " fill-opacity="1" fill-rule="nonzero"/><path fill="#d8cfc7" d="M 86.886719 26.707031 C 86.886719 26.707031 74.996094 31.632812 74.996094 32.980469 L 74.996094 134.078125 C 74.996094 134.078125 77.523438 131.070312 86.886719 126.871094 L 144.472656 102.703125 L 144.472656 2.546875 L 86.886719 26.707031 " fill-opacity="1" fill-rule="nonzero"/><path fill="#c0b7b0" d="M 63.105469 28.265625 C 63.105469 28.265625 74.996094 31.632812 74.996094 32.980469 L 74.996094 133.992188 C 74.996094 133.992188 72.769531 132.367188 63.105469 128.429688 L 3.960938 105.039062 L 3.960938 4.886719 L 63.105469 28.265625 " fill-opacity="1" fill-rule="nonzero"/><path fill="#c0b7b0" d="M 86.886719 28.265625 C 86.886719 28.265625 74.996094 31.632812 74.996094 32.980469 L 74.996094 134.078125 C 74.996094 134.078125 77.460938 132.730469 86.886719 128.429688 L 146.03125 105.039062 L 146.03125 4.886719 L 86.886719 28.265625 " fill-opacity="1" fill-rule="nonzero"/><path fill="#3ab2ae" d="M 63.976562 25.535156 C 67.617188 27.328125 69.488281 28.355469 70.742188 33.1875 C 71.425781 33.21875 74.996094 37.503906 74.996094 32.980469 C 74.996094 27.238281 63.976562 25.535156 63.976562 25.535156 " fill-opacity="1" fill-rule="nonzero"/><path fill="#2f8f8c" d="M 56.210938 124.273438 L 56.210938 149.171875 L 63.949219 146.597656 L 70.292969 154.640625 L 70.292969 131.839844 L 56.210938 124.273438 " fill-opacity="1" fill-rule="nonzero"/><path fill="#98232a" d="M 74.996094 32.78125 C 64.15625 32.78125 61.90625 29.203125 61.90625 29.203125 L 61.90625 32.472656 C 61.90625 32.472656 64.15625 36.050781 74.996094 36.050781 C 85.835938 36.050781 88.085938 32.472656 88.085938 32.472656 L 88.085938 29.203125 C 88.085938 29.203125 85.835938 32.78125 74.996094 32.78125 " fill-opacity="1" fill-rule="nonzero"/><path fill="#e53644" d="M 74.996094 36 C 63.5 36 61.90625 32.332031 61.90625 32.332031 L 61.90625 138.234375 C 61.90625 138.234375 64.15625 144.257812 74.996094 144.257812 C 85.835938 144.257812 88.085938 138.234375 88.085938 138.234375 L 88.085938 32.332031 C 88.085938 32.332031 86.492188 36 74.996094 36 " fill-opacity="1" fill-rule="nonzero"/><path fill="#f68c29" d="M 74.996094 43.09375 C 63.5 43.09375 61.90625 39.429688 61.90625 39.429688 L 61.90625 53.269531 C 61.90625 53.269531 63.5 56.933594 74.996094 56.933594 C 86.492188 56.933594 88.085938 53.269531 88.085938 53.269531 L 88.085938 39.429688 C 88.085938 39.429688 86.492188 43.09375 74.996094 43.09375 " fill-opacity="1" fill-rule="nonzero"/><path fill="#f68c29" d="M 74.996094 116.257812 C 63.5 116.257812 61.90625 112.589844 61.90625 112.589844 L 61.90625 117.679688 C 61.90625 117.679688 63.5 121.34375 74.996094 121.34375 C 86.492188 121.34375 88.085938 117.675781 88.085938 117.675781 L 88.085938 112.589844 C 88.085938 112.589844 86.492188 116.257812 74.996094 116.257812 " fill-opacity="1" fill-rule="nonzero"/><path fill="#f68c29" d="M 74.996094 125.011719 C 63.5 125.011719 61.90625 121.34375 61.90625 121.34375 L 61.90625 126.429688 C 61.90625 126.429688 63.5 130.097656 74.996094 130.097656 C 86.492188 130.097656 88.085938 126.429688 88.085938 126.429688 L 88.085938 121.34375 C 88.085938 121.34375 86.492188 125.011719 74.996094 125.011719 " fill-opacity="1" fill-rule="nonzero"/><path fill="#901c26" d="M 5.242188 114.855469 L 61.90625 138.234375 L 61.90625 32.332031 L 5.242188 8.953125 C 2.441406 8.246094 1.71875 10.53125 1.71875 12.480469 L 1.71875 111.328125 C 1.71875 113.277344 2.894531 113.960938 5.242188 114.855469 " fill-opacity="1" fill-rule="nonzero"/><path fill="#76161d" d="M 144.75 114.855469 L 88.085938 138.234375 L 88.085938 32.332031 L 144.75 8.953125 C 147.550781 8.246094 148.273438 10.53125 148.273438 12.480469 L 148.273438 111.328125 C 148.273438 113.277344 147.097656 113.960938 144.75 114.855469 " fill-opacity="1" fill-rule="nonzero"/><path fill="#76161d" d="M 148.15625 5.585938 L 146.515625 8.945312 C 147.871094 9.398438 148.273438 11.03125 148.273438 12.480469 L 148.273438 111.328125 C 148.273438 111.824219 148.195312 112.234375 148.042969 112.589844 L 148.046875 112.589844 L 149.695312 109.242188 C 149.863281 108.882812 149.945312 108.464844 149.945312 107.960938 L 149.945312 9.113281 C 149.945312 7.671875 149.539062 6.046875 148.15625 5.585938 " fill-opacity="1" fill-rule="nonzero"/><path fill="#601116" d="M 146.515625 8.945312 L 148.15625 5.585938 C 147.675781 5.421875 147.070312 5.402344 146.324219 5.585938 L 88.085938 28.964844 L 88.085938 32.332031 L 144.75 8.953125 C 145.472656 8.773438 146.050781 8.789062 146.515625 8.945312 " fill-opacity="1" fill-rule="nonzero"/><path fill="#76161d" d="M 1.84375 5.585938 L 3.480469 8.945312 C 2.125 9.398438 1.726562 11.03125 1.726562 12.480469 L 1.726562 111.328125 C 1.726562 111.824219 1.804688 112.234375 1.953125 112.589844 L 0.300781 109.242188 L 0.304688 109.242188 C 0.140625 108.882812 0.0546875 108.464844 0.0546875 107.960938 L 0.0546875 9.113281 C 0.0546875 7.671875 0.464844 6.046875 1.84375 5.585938 " fill-opacity="1" fill-rule="nonzero"/><path fill="#601116" d="M 3.480469 8.945312 L 1.84375 5.585938 C 2.328125 5.421875 2.925781 5.402344 3.675781 5.585938 L 61.914062 28.964844 L 61.914062 32.332031 L 5.25 8.953125 C 4.53125 8.773438 3.949219 8.789062 3.480469 8.945312 " fill-opacity="1" fill-rule="nonzero"/><path fill="#520e12" d="M 95.273438 36.933594 L 95.273438 65.28125 L 142.914062 46.4375 L 142.914062 18.101562 L 95.273438 36.933594 " fill-opacity="1" fill-rule="nonzero"/><path fill="#520e12" d="M 95.273438 68.046875 L 95.273438 72.804688 L 142.914062 53.964844 L 142.914062 49.214844 L 95.273438 68.046875 " fill-opacity="1" fill-rule="nonzero"/></svg>