<svg xmlns="http://www.w3.org/2000/svg" xmlns:xlink="http://www.w3.org/1999/xlink" width="200" zoomAndPan="magnify" viewBox="0 0 150 149.999998" height="200" preserveAspectRatio="xMidYMid meet" version="1.0"><defs><clipPath id="id1"><path d="M 7 117 L 144 117 L 144 128.332031 L 7 128.332031 Z M 7 117 " clip-rule="nonzero"/></clipPath><clipPath id="id2"><path d="M 36 11.332031 L 40 11.332031 L 40 16 L 36 16 Z M 36 11.332031 " clip-rule="nonzero"/></clipPath><clipPath id="id3"><path d="M 39 11.332031 L 44 11.332031 L 44 17 L 39 17 Z M 39 11.332031 " clip-rule="nonzero"/></clipPath><clipPath id="id4"><path d="M 43 11.332031 L 47 11.332031 L 47 17 L 43 17 Z M 43 11.332031 " clip-rule="nonzero"/></clipPath><clipPath id="id5"><path d="M 52 11.332031 L 54 11.332031 L 54 17 L 52 17 Z M 52 11.332031 " clip-rule="nonzero"/></clipPath><clipPath id="id6"><path d="M 53 11.332031 L 58 11.332031 L 58 16 L 53 16 Z M 53 11.332031 " clip-rule="nonzero"/></clipPath><clipPath id="id7"><path d="M 89 11.332031 L 93 11.332031 L 93 16 L 89 16 Z M 89 11.332031 " clip-rule="nonzero"/></clipPath><clipPath id="id8"><path d="M 93 11.332031 L 97 11.332031 L 97 17 L 93 17 Z M 93 11.332031 " clip-rule="nonzero"/></clipPath><clipPath id="id9"><path d="M 96 11.332031 L 100 11.332031 L 100 17 L 96 17 Z M 96 11.332031 " clip-rule="nonzero"/></clipPath><clipPath id="id10"><path d="M 105 11.332031 L 107 11.332031 L 107 17 L 105 17 Z M 105 11.332031 " clip-rule="nonzero"/></clipPath><clipPath id="id11"><path d="M 107 11.332031 L 111 11.332031 L 111 17 L 107 17 Z M 107 11.332031 " clip-rule="nonzero"/></clipPath><clipPath id="id12"><path d="M 110 11.332031 L 114 11.332031 L 114 16 L 110 16 Z M 110 11.332031 " clip-rule="nonzero"/></clipPath></defs><rect x="-15" width="180" fill="#ffffff" y="-15" height="179.999997" fill-opacity="1"/><rect x="-15" width="180" fill="#000000" y="-15" height="179.999997" fill-opacity="1"/><rect x="-15" width="180" fill="#ffffff" y="-15" height="179.999997" fill-opacity="1"/><rect x="-15" width="180" fill="#000000" y="-15" height="179.999997" fill-opacity="1"/><g clip-path="url(#id1)"><path fill="#a4c6d4" d="M 143.5 122.808594 C 143.5 125.84375 113.046875 128.304688 75.480469 128.304688 C 37.917969 128.304688 7.460938 125.84375 7.460938 122.808594 C 7.460938 119.773438 37.917969 117.3125 75.480469 117.3125 C 113.046875 117.3125 143.5 119.773438 143.5 122.808594 " fill-opacity="1" fill-rule="nonzero"/></g><path fill="#1b181d" d="M 128.4375 111.058594 C 128.4375 112.1875 127.523438 113.101562 126.402344 113.101562 L 23.347656 113.101562 C 22.222656 113.101562 21.3125 112.1875 21.3125 111.058594 L 21.3125 40.867188 C 21.3125 39.738281 22.222656 38.828125 23.347656 38.828125 L 126.402344 38.828125 C 127.523438 38.828125 128.4375 39.738281 128.4375 40.867188 L 128.4375 111.058594 " fill-opacity="1" fill-rule="nonzero"/><path fill="#ffffff" d="M 124.085938 107.769531 C 124.085938 108.136719 123.785156 108.433594 123.417969 108.433594 L 26.332031 108.433594 C 25.960938 108.433594 25.664062 108.136719 25.664062 107.769531 L 25.664062 44.15625 C 25.664062 43.789062 25.960938 43.492188 26.332031 43.492188 L 123.417969 43.492188 C 123.785156 43.492188 124.085938 43.789062 124.085938 44.15625 L 124.085938 107.769531 " fill-opacity="1" fill-rule="nonzero"/><path fill="#15151e" d="M 30.484375 108.476562 L 119.261719 108.476562 L 119.261719 48.429688 L 30.484375 48.429688 Z M 30.484375 108.476562 " fill-opacity="1" fill-rule="nonzero"/><path fill="#ffffff" d="M 35.871094 108.476562 L 36.238281 108.476562 L 36.238281 48.429688 L 35.871094 48.429688 Z M 35.871094 108.476562 " fill-opacity="1" fill-rule="nonzero"/><path fill="#333650" d="M 30.484375 48.402344 L 119.261719 48.402344 L 119.261719 43.449219 L 30.484375 43.449219 Z M 30.484375 48.402344 " fill-opacity="1" fill-rule="nonzero"/><path fill="#ed3947" d="M 108.699219 45.925781 C 108.699219 46.855469 107.949219 47.609375 107.019531 47.609375 C 106.09375 47.609375 105.339844 46.855469 105.339844 45.925781 C 105.339844 44.996094 106.09375 44.246094 107.019531 44.246094 C 107.949219 44.246094 108.699219 44.996094 108.699219 45.925781 " fill-opacity="1" fill-rule="nonzero"/><path fill="#80cc28" d="M 113.121094 45.925781 C 113.121094 46.855469 112.371094 47.609375 111.441406 47.609375 C 110.515625 47.609375 109.761719 46.855469 109.761719 45.925781 C 109.761719 44.996094 110.515625 44.246094 111.441406 44.246094 C 112.371094 44.246094 113.121094 44.996094 113.121094 45.925781 " fill-opacity="1" fill-rule="nonzero"/><path fill="#ebb72e" d="M 117.503906 45.925781 C 117.503906 46.855469 116.75 47.609375 115.824219 47.609375 C 114.894531 47.609375 114.144531 46.855469 114.144531 45.925781 C 114.144531 44.996094 114.894531 44.246094 115.824219 44.246094 C 116.75 44.246094 117.503906 44.996094 117.503906 45.925781 " fill-opacity="1" fill-rule="nonzero"/><path fill="#ffffff" d="M 31.796875 50.726562 L 34.742188 50.726562 L 34.742188 49.824219 L 31.796875 49.824219 Z M 31.796875 50.726562 " fill-opacity="1" fill-rule="nonzero"/><path fill="#ffffff" d="M 31.796875 53.679688 L 34.742188 53.679688 L 34.742188 52.777344 L 31.796875 52.777344 Z M 31.796875 53.679688 " fill-opacity="1" fill-rule="nonzero"/><path fill="#ffffff" d="M 31.796875 56.632812 L 34.742188 56.632812 L 34.742188 55.730469 L 31.796875 55.730469 Z M 31.796875 56.632812 " fill-opacity="1" fill-rule="nonzero"/><path fill="#ffffff" d="M 31.796875 59.585938 L 34.742188 59.585938 L 34.742188 58.683594 L 31.796875 58.683594 Z M 31.796875 59.585938 " fill-opacity="1" fill-rule="nonzero"/><path fill="#ffffff" d="M 31.796875 62.539062 L 34.742188 62.539062 L 34.742188 61.636719 L 31.796875 61.636719 Z M 31.796875 62.539062 " fill-opacity="1" fill-rule="nonzero"/><path fill="#ffffff" d="M 31.796875 65.492188 L 34.742188 65.492188 L 34.742188 64.589844 L 31.796875 64.589844 Z M 31.796875 65.492188 " fill-opacity="1" fill-rule="nonzero"/><path fill="#ffffff" d="M 31.796875 68.445312 L 34.742188 68.445312 L 34.742188 67.542969 L 31.796875 67.542969 Z M 31.796875 68.445312 " fill-opacity="1" fill-rule="nonzero"/><path fill="#ffffff" d="M 31.796875 71.398438 L 34.742188 71.398438 L 34.742188 70.496094 L 31.796875 70.496094 Z M 31.796875 71.398438 " fill-opacity="1" fill-rule="nonzero"/><path fill="#ffffff" d="M 31.796875 74.351562 L 34.742188 74.351562 L 34.742188 73.449219 L 31.796875 73.449219 Z M 31.796875 74.351562 " fill-opacity="1" fill-rule="nonzero"/><path fill="#ffffff" d="M 31.796875 77.304688 L 34.742188 77.304688 L 34.742188 76.402344 L 31.796875 76.402344 Z M 31.796875 77.304688 " fill-opacity="1" fill-rule="nonzero"/><path fill="#ffffff" d="M 31.796875 80.257812 L 34.742188 80.257812 L 34.742188 79.355469 L 31.796875 79.355469 Z M 31.796875 80.257812 " fill-opacity="1" fill-rule="nonzero"/><path fill="#ffffff" d="M 31.796875 83.210938 L 34.742188 83.210938 L 34.742188 82.308594 L 31.796875 82.308594 Z M 31.796875 83.210938 " fill-opacity="1" fill-rule="nonzero"/><path fill="#ffffff" d="M 31.796875 86.164062 L 34.742188 86.164062 L 34.742188 85.261719 L 31.796875 85.261719 Z M 31.796875 86.164062 " fill-opacity="1" fill-rule="nonzero"/><path fill="#ffffff" d="M 31.796875 89.117188 L 34.742188 89.117188 L 34.742188 88.214844 L 31.796875 88.214844 Z M 31.796875 89.117188 " fill-opacity="1" fill-rule="nonzero"/><path fill="#ffffff" d="M 31.796875 92.070312 L 34.742188 92.070312 L 34.742188 91.167969 L 31.796875 91.167969 Z M 31.796875 92.070312 " fill-opacity="1" fill-rule="nonzero"/><path fill="#ffffff" d="M 31.796875 95.023438 L 34.742188 95.023438 L 34.742188 94.121094 L 31.796875 94.121094 Z M 31.796875 95.023438 " fill-opacity="1" fill-rule="nonzero"/><path fill="#ffffff" d="M 31.796875 97.976562 L 34.742188 97.976562 L 34.742188 97.074219 L 31.796875 97.074219 Z M 31.796875 97.976562 " fill-opacity="1" fill-rule="nonzero"/><path fill="#ffffff" d="M 31.796875 100.929688 L 34.742188 100.929688 L 34.742188 100.027344 L 31.796875 100.027344 Z M 31.796875 100.929688 " fill-opacity="1" fill-rule="nonzero"/><path fill="#ffffff" d="M 31.796875 103.882812 L 34.742188 103.882812 L 34.742188 102.980469 L 31.796875 102.980469 Z M 31.796875 103.882812 " fill-opacity="1" fill-rule="nonzero"/><path fill="#ffffff" d="M 31.796875 106.835938 L 34.742188 106.835938 L 34.742188 105.933594 L 31.796875 105.933594 Z M 31.796875 106.835938 " fill-opacity="1" fill-rule="nonzero"/><path fill="#ed3947" d="M 37.855469 50.726562 L 49.320312 50.726562 L 49.320312 49.824219 L 37.855469 49.824219 Z M 37.855469 50.726562 " fill-opacity="1" fill-rule="nonzero"/><path fill="#ed3947" d="M 49.777344 83.660156 L 61.242188 83.660156 L 61.242188 82.757812 L 49.777344 82.757812 Z M 49.777344 83.660156 " fill-opacity="1" fill-rule="nonzero"/><path fill="#ed3947" d="M 49.777344 80.257812 L 54.117188 80.257812 L 54.117188 79.355469 L 49.777344 79.355469 Z M 49.777344 80.257812 " fill-opacity="1" fill-rule="nonzero"/><path fill="#3bbec5" d="M 37.855469 53.679688 L 42.195312 53.679688 L 42.195312 52.777344 L 37.855469 52.777344 Z M 37.855469 53.679688 " fill-opacity="1" fill-rule="nonzero"/><path fill="#3bbec5" d="M 37.855469 56.632812 L 44.285156 56.632812 L 44.285156 55.730469 L 37.855469 55.730469 Z M 37.855469 56.632812 " fill-opacity="1" fill-rule="nonzero"/><path fill="#ffffff" d="M 45.390625 59.585938 L 58.289062 59.585938 L 58.289062 58.683594 L 45.390625 58.683594 Z M 45.390625 59.585938 " fill-opacity="1" fill-rule="nonzero"/><path fill="#ffffff" d="M 83.472656 59.585938 L 64.800781 59.585938 L 64.800781 58.683594 L 83.472656 58.683594 L 83.472656 59.585938 " fill-opacity="1" fill-rule="nonzero"/><path fill="#ffffff" d="M 62.835938 59.585938 L 59.515625 59.585938 L 59.515625 58.683594 L 62.835938 58.683594 L 62.835938 59.585938 " fill-opacity="1" fill-rule="nonzero"/><path fill="#ffffff" d="M 48.214844 65.039062 L 61.113281 65.039062 L 61.113281 64.136719 L 48.214844 64.136719 Z M 48.214844 65.039062 " fill-opacity="1" fill-rule="nonzero"/><path fill="#ffffff" d="M 86.300781 65.039062 L 67.625 65.039062 L 67.625 64.136719 L 86.300781 64.136719 L 86.300781 65.039062 " fill-opacity="1" fill-rule="nonzero"/><path fill="#ffffff" d="M 65.660156 65.039062 L 62.34375 65.039062 L 62.34375 64.136719 L 65.660156 64.136719 L 65.660156 65.039062 " fill-opacity="1" fill-rule="nonzero"/><path fill="#ffffff" d="M 48.214844 62.085938 L 56.445312 62.085938 L 56.445312 61.183594 L 48.214844 61.183594 Z M 48.214844 62.085938 " fill-opacity="1" fill-rule="nonzero"/><path fill="#ffffff" d="M 57.921875 61.183594 L 57.921875 62.085938 L 61.113281 62.085938 L 61.113281 61.183594 L 57.921875 61.183594 " fill-opacity="1" fill-rule="nonzero"/><path fill="#ffffff" d="M 74.136719 62.085938 L 67.625 62.085938 L 67.625 61.183594 L 74.136719 61.183594 L 74.136719 62.085938 " fill-opacity="1" fill-rule="nonzero"/><path fill="#ffffff" d="M 65.660156 62.085938 L 62.34375 62.085938 L 62.34375 61.183594 L 65.660156 61.183594 L 65.660156 62.085938 " fill-opacity="1" fill-rule="nonzero"/><path fill="#ffffff" d="M 58.742188 93.773438 L 66.972656 93.773438 L 66.972656 92.871094 L 58.742188 92.871094 Z M 58.742188 93.773438 " fill-opacity="1" fill-rule="nonzero"/><path fill="#ffffff" d="M 68.445312 93.773438 L 71.640625 93.773438 L 71.640625 92.871094 L 68.445312 92.871094 Z M 68.445312 93.773438 " fill-opacity="1" fill-rule="nonzero"/><path fill="#ffffff" d="M 78.152344 93.773438 L 84.660156 93.773438 L 84.660156 92.871094 L 78.152344 92.871094 Z M 78.152344 93.773438 " fill-opacity="1" fill-rule="nonzero"/><path fill="#ffffff" d="M 72.867188 93.773438 L 76.183594 93.773438 L 76.183594 92.871094 L 72.867188 92.871094 Z M 72.867188 93.773438 " fill-opacity="1" fill-rule="nonzero"/><path fill="#00adef" d="M 45.390625 56.632812 L 47.601562 56.632812 L 47.601562 55.730469 L 45.390625 55.730469 Z M 45.390625 56.632812 " fill-opacity="1" fill-rule="nonzero"/><path fill="#3bbec5" d="M 49.859375 86.164062 L 54.199219 86.164062 L 54.199219 85.261719 L 49.859375 85.261719 Z M 49.859375 86.164062 " fill-opacity="1" fill-rule="nonzero"/><path fill="#3bbec5" d="M 49.859375 89.117188 L 56.289062 89.117188 L 56.289062 88.214844 L 49.859375 88.214844 Z M 49.859375 89.117188 " fill-opacity="1" fill-rule="nonzero"/><path fill="#00adef" d="M 57.394531 89.117188 L 59.605469 89.117188 L 59.605469 88.214844 L 57.394531 88.214844 Z M 57.394531 89.117188 " fill-opacity="1" fill-rule="nonzero"/><path fill="#3bbec5" d="M 49.859375 101.953125 L 54.199219 101.953125 L 54.199219 101.050781 L 49.859375 101.050781 Z M 49.859375 101.953125 " fill-opacity="1" fill-rule="nonzero"/><path fill="#3bbec5" d="M 49.859375 104.90625 L 56.289062 104.90625 L 56.289062 104.003906 L 49.859375 104.003906 Z M 49.859375 104.90625 " fill-opacity="1" fill-rule="nonzero"/><path fill="#00adef" d="M 57.394531 104.90625 L 59.605469 104.90625 L 59.605469 104.003906 L 57.394531 104.003906 Z M 57.394531 104.90625 " fill-opacity="1" fill-rule="nonzero"/><path fill="#3bbec5" d="M 37.855469 71.398438 L 44.285156 71.398438 L 44.285156 70.496094 L 37.855469 70.496094 Z M 37.855469 71.398438 " fill-opacity="1" fill-rule="nonzero"/><path fill="#00adef" d="M 45.390625 71.398438 L 47.601562 71.398438 L 47.601562 70.496094 L 45.390625 70.496094 Z M 45.390625 71.398438 " fill-opacity="1" fill-rule="nonzero"/><path fill="#80cc28" d="M 53.90625 50.726562 L 50.960938 50.726562 L 50.960938 49.824219 L 53.90625 49.824219 L 53.90625 50.726562 " fill-opacity="1" fill-rule="nonzero"/><path fill="#80cc28" d="M 45.390625 75.253906 L 57.921875 75.253906 L 57.921875 74.351562 L 45.390625 74.351562 Z M 45.390625 75.253906 " fill-opacity="1" fill-rule="nonzero"/><path fill="#ffffff" d="M 48.214844 68.445312 L 67.132812 68.445312 L 67.132812 67.542969 L 48.214844 67.542969 Z M 48.214844 68.445312 " fill-opacity="1" fill-rule="nonzero"/><path fill="#ffffff" d="M 82.738281 68.445312 L 68.238281 68.445312 L 68.238281 67.542969 L 82.738281 67.542969 L 82.738281 68.445312 " fill-opacity="1" fill-rule="nonzero"/><path fill="#ffffff" d="M 58.738281 97.074219 L 69.714844 97.074219 L 69.714844 96.171875 L 58.738281 96.171875 Z M 58.738281 97.074219 " fill-opacity="1" fill-rule="nonzero"/><path fill="#ffffff" d="M 70.859375 97.074219 L 86.257812 97.074219 L 86.257812 96.171875 L 70.859375 96.171875 Z M 70.859375 97.074219 " fill-opacity="1" fill-rule="nonzero"/><path fill="#ffffff" d="M 58.738281 100.027344 L 63.488281 100.027344 L 63.488281 99.125 L 58.738281 99.125 Z M 58.738281 100.027344 " fill-opacity="1" fill-rule="nonzero"/><path fill="#ffffff" d="M 64.882812 100.027344 L 69.714844 100.027344 L 69.714844 99.125 L 64.882812 99.125 Z M 64.882812 100.027344 " fill-opacity="1" fill-rule="nonzero"/><path fill="#ffffff" d="M 83.472656 100.027344 L 86.257812 100.027344 L 86.257812 99.125 L 83.472656 99.125 Z M 83.472656 100.027344 " fill-opacity="1" fill-rule="nonzero"/><path fill="#ffffff" d="M 70.859375 100.027344 L 82.410156 100.027344 L 82.410156 99.125 L 70.859375 99.125 Z M 70.859375 100.027344 " fill-opacity="1" fill-rule="nonzero"/><path fill="#ffffff" d="M 126.40625 113.101562 C 126.40625 113.101562 126.40625 113.101562 126.410156 113.101562 C 126.40625 113.101562 126.40625 113.101562 126.40625 113.101562 M 126.414062 113.101562 C 126.414062 113.101562 126.414062 113.101562 126.417969 113.101562 C 126.414062 113.101562 126.414062 113.101562 126.414062 113.101562 M 126.421875 113.101562 L 126.421875 113.101562 M 126.425781 113.097656 C 126.429688 113.097656 126.429688 113.097656 126.429688 113.097656 C 126.429688 113.097656 126.429688 113.097656 126.425781 113.097656 M 126.433594 113.097656 C 126.433594 113.097656 126.4375 113.097656 126.4375 113.097656 C 126.4375 113.097656 126.433594 113.097656 126.433594 113.097656 M 126.441406 113.097656 C 126.441406 113.097656 126.441406 113.097656 126.445312 113.097656 C 126.441406 113.097656 126.441406 113.097656 126.441406 113.097656 M 126.449219 113.097656 L 126.449219 113.097656 M 126.457031 113.097656 L 126.457031 113.097656 M 126.460938 113.097656 C 126.460938 113.097656 126.464844 113.097656 126.464844 113.097656 C 126.464844 113.097656 126.460938 113.097656 126.460938 113.097656 M 126.46875 113.097656 C 126.46875 113.097656 126.472656 113.097656 126.472656 113.097656 C 126.472656 113.097656 126.46875 113.097656 126.46875 113.097656 M 126.476562 113.097656 L 126.476562 113.097656 M 126.484375 113.097656 C 126.484375 113.097656 126.488281 113.097656 126.488281 113.097656 C 126.488281 113.097656 126.484375 113.097656 126.484375 113.097656 M 126.492188 113.097656 C 126.492188 113.097656 126.496094 113.097656 126.496094 113.097656 C 126.496094 113.097656 126.492188 113.097656 126.492188 113.097656 M 126.5 113.097656 C 126.5 113.097656 126.5 113.097656 126.503906 113.097656 C 126.5 113.097656 126.5 113.097656 126.5 113.097656 M 126.503906 113.097656 C 126.507812 113.097656 126.507812 113.097656 126.511719 113.097656 C 126.507812 113.097656 126.507812 113.097656 126.503906 113.097656 M 126.511719 113.097656 C 126.511719 113.097656 126.515625 113.097656 126.515625 113.097656 C 126.515625 113.097656 126.511719 113.097656 126.511719 113.097656 M 126.519531 113.097656 C 126.519531 113.097656 126.523438 113.097656 126.523438 113.097656 C 126.523438 113.097656 126.519531 113.097656 126.519531 113.097656 M 126.527344 113.097656 C 126.527344 113.097656 126.527344 113.097656 126.53125 113.097656 C 126.527344 113.097656 126.527344 113.097656 126.527344 113.097656 M 126.53125 113.097656 C 126.53125 113.097656 126.535156 113.097656 126.539062 113.097656 C 126.535156 113.097656 126.53125 113.097656 126.53125 113.097656 M 126.539062 113.09375 C 126.539062 113.09375 126.542969 113.09375 126.542969 113.09375 C 126.542969 113.09375 126.539062 113.09375 126.539062 113.09375 M 126.542969 113.09375 C 126.5625 113.09375 126.578125 113.089844 126.59375 113.089844 C 126.578125 113.089844 126.5625 113.09375 126.542969 113.09375 M 126.59375 113.089844 C 126.597656 113.089844 126.597656 113.089844 126.601562 113.089844 C 126.597656 113.089844 126.597656 113.089844 126.59375 113.089844 M 126.601562 113.089844 C 126.605469 113.089844 126.605469 113.089844 126.609375 113.089844 C 126.605469 113.089844 126.605469 113.089844 126.601562 113.089844 M 126.609375 113.089844 C 127.132812 113.035156 127.601562 112.78125 127.933594 112.402344 C 127.601562 112.78125 127.132812 113.035156 126.609375 113.089844 M 21.3125 40.851562 C 21.316406 40.296875 21.542969 39.789062 21.90625 39.425781 C 21.542969 39.789062 21.316406 40.296875 21.3125 40.851562 " fill-opacity="1" fill-rule="nonzero"/><path fill="#352f38" d="M 126.402344 113.101562 L 23.347656 113.101562 C 22.222656 113.101562 21.3125 112.1875 21.3125 111.058594 L 21.3125 40.867188 C 21.3125 40.863281 21.3125 40.855469 21.3125 40.851562 C 21.316406 40.296875 21.542969 39.789062 21.90625 39.425781 L 27.816406 43.492188 L 26.332031 43.492188 C 25.960938 43.492188 25.664062 43.789062 25.664062 44.15625 L 25.664062 107.769531 C 25.664062 108.136719 25.960938 108.433594 26.332031 108.433594 L 30.484375 108.433594 L 30.484375 108.476562 L 119.261719 108.476562 L 119.261719 108.433594 L 122.167969 108.433594 L 127.933594 112.402344 C 127.601562 112.78125 127.132812 113.035156 126.609375 113.089844 C 126.605469 113.089844 126.605469 113.089844 126.601562 113.089844 C 126.597656 113.089844 126.597656 113.089844 126.59375 113.089844 C 126.578125 113.089844 126.5625 113.09375 126.542969 113.09375 C 126.542969 113.09375 126.539062 113.09375 126.539062 113.09375 C 126.539062 113.097656 126.539062 113.097656 126.539062 113.097656 C 126.535156 113.097656 126.53125 113.097656 126.53125 113.097656 C 126.527344 113.097656 126.527344 113.097656 126.527344 113.097656 C 126.523438 113.097656 126.523438 113.097656 126.523438 113.097656 C 126.523438 113.097656 126.519531 113.097656 126.519531 113.097656 C 126.515625 113.097656 126.515625 113.097656 126.515625 113.097656 C 126.515625 113.097656 126.511719 113.097656 126.511719 113.097656 C 126.507812 113.097656 126.507812 113.097656 126.503906 113.097656 C 126.5 113.097656 126.5 113.097656 126.5 113.097656 C 126.496094 113.097656 126.496094 113.097656 126.496094 113.097656 C 126.496094 113.097656 126.492188 113.097656 126.492188 113.097656 C 126.492188 113.097656 126.488281 113.097656 126.488281 113.097656 C 126.488281 113.097656 126.484375 113.097656 126.484375 113.097656 C 126.480469 113.097656 126.480469 113.097656 126.476562 113.097656 C 126.472656 113.097656 126.472656 113.097656 126.472656 113.097656 C 126.472656 113.097656 126.46875 113.097656 126.46875 113.097656 C 126.46875 113.097656 126.46875 113.097656 126.464844 113.097656 C 126.464844 113.097656 126.460938 113.097656 126.460938 113.097656 C 126.460938 113.097656 126.460938 113.097656 126.457031 113.097656 C 126.453125 113.097656 126.453125 113.097656 126.449219 113.097656 C 126.445312 113.097656 126.445312 113.097656 126.445312 113.097656 C 126.441406 113.097656 126.441406 113.097656 126.441406 113.097656 C 126.441406 113.097656 126.4375 113.097656 126.4375 113.097656 C 126.4375 113.097656 126.433594 113.097656 126.433594 113.097656 C 126.433594 113.097656 126.433594 113.097656 126.429688 113.097656 C 126.429688 113.097656 126.429688 113.097656 126.425781 113.097656 C 126.425781 113.101562 126.425781 113.101562 126.421875 113.101562 C 126.417969 113.101562 126.417969 113.101562 126.417969 113.101562 C 126.414062 113.101562 126.414062 113.101562 126.414062 113.101562 C 126.414062 113.101562 126.410156 113.101562 126.410156 113.101562 C 126.40625 113.101562 126.40625 113.101562 126.40625 113.101562 C 126.40625 113.101562 126.402344 113.101562 126.402344 113.101562 " fill-opacity="1" fill-rule="nonzero"/><path fill="#ffffff" d="M 122.167969 108.433594 L 119.261719 108.433594 L 119.261719 106.4375 L 122.167969 108.433594 M 30.484375 108.433594 L 26.332031 108.433594 C 25.960938 108.433594 25.664062 108.136719 25.664062 107.769531 L 25.664062 44.15625 C 25.664062 43.789062 25.960938 43.492188 26.332031 43.492188 L 27.816406 43.492188 L 30.484375 45.328125 L 30.484375 48.402344 L 34.953125 48.402344 L 34.988281 48.429688 L 30.484375 48.429688 L 30.484375 108.433594 " fill-opacity="1" fill-rule="nonzero"/><path fill="#2f2d3b" d="M 119.261719 108.476562 L 36.238281 108.476562 L 36.238281 49.289062 L 37.855469 50.402344 L 37.855469 50.726562 L 38.328125 50.726562 L 41.304688 52.777344 L 37.855469 52.777344 L 37.855469 53.679688 L 42.195312 53.679688 L 42.195312 53.390625 L 45.597656 55.730469 L 45.390625 55.730469 L 45.390625 56.632812 L 46.90625 56.632812 L 49.886719 58.683594 L 45.390625 58.683594 L 45.390625 59.585938 L 51.195312 59.585938 L 53.519531 61.183594 L 48.214844 61.183594 L 48.214844 62.085938 L 54.832031 62.085938 L 57.8125 64.136719 L 48.214844 64.136719 L 48.214844 65.039062 L 59.121094 65.039062 L 62.757812 67.542969 L 48.214844 67.542969 L 48.214844 68.445312 L 64.070312 68.445312 L 119.261719 106.4375 L 119.261719 108.476562 M 57.394531 104.003906 L 57.394531 104.90625 L 59.605469 104.90625 L 59.605469 104.003906 L 57.394531 104.003906 M 49.859375 104.003906 L 49.859375 104.90625 L 56.289062 104.90625 L 56.289062 104.003906 L 49.859375 104.003906 M 49.859375 101.050781 L 49.859375 101.953125 L 54.199219 101.953125 L 54.199219 101.050781 L 49.859375 101.050781 M 83.472656 99.125 L 83.472656 100.027344 L 86.257812 100.027344 L 86.257812 99.125 L 83.472656 99.125 M 70.859375 99.125 L 70.859375 100.027344 L 82.410156 100.027344 L 82.410156 99.125 L 70.859375 99.125 M 64.882812 99.125 L 64.882812 100.027344 L 69.714844 100.027344 L 69.714844 99.125 L 64.882812 99.125 M 58.738281 99.125 L 58.738281 100.027344 L 63.488281 100.027344 L 63.488281 99.125 L 58.738281 99.125 M 70.859375 96.171875 L 70.859375 97.074219 L 86.257812 97.074219 L 86.257812 96.171875 L 70.859375 96.171875 M 58.738281 96.171875 L 58.738281 97.074219 L 69.714844 97.074219 L 69.714844 96.171875 L 58.738281 96.171875 M 78.152344 92.871094 L 78.152344 93.773438 L 84.660156 93.773438 L 84.660156 92.871094 L 78.152344 92.871094 M 72.867188 92.871094 L 72.867188 93.773438 L 76.183594 93.773438 L 76.183594 92.871094 L 72.867188 92.871094 M 68.445312 92.871094 L 68.445312 93.773438 L 71.640625 93.773438 L 71.640625 92.871094 L 68.445312 92.871094 M 58.742188 92.871094 L 58.742188 93.773438 L 66.972656 93.773438 L 66.972656 92.871094 L 58.742188 92.871094 M 57.394531 88.214844 L 57.394531 89.117188 L 59.605469 89.117188 L 59.605469 88.214844 L 57.394531 88.214844 M 49.859375 88.214844 L 49.859375 89.117188 L 56.289062 89.117188 L 56.289062 88.214844 L 49.859375 88.214844 M 49.859375 85.261719 L 49.859375 86.164062 L 54.199219 86.164062 L 54.199219 85.261719 L 49.859375 85.261719 M 49.777344 82.757812 L 49.777344 83.660156 L 61.242188 83.660156 L 61.242188 82.757812 L 49.777344 82.757812 M 49.777344 79.355469 L 49.777344 80.257812 L 54.117188 80.257812 L 54.117188 79.355469 L 49.777344 79.355469 M 45.390625 74.351562 L 45.390625 75.253906 L 57.921875 75.253906 L 57.921875 74.351562 L 45.390625 74.351562 M 45.390625 70.496094 L 45.390625 71.398438 L 47.601562 71.398438 L 47.601562 70.496094 L 45.390625 70.496094 M 37.855469 70.496094 L 37.855469 71.398438 L 44.285156 71.398438 L 44.285156 70.496094 L 37.855469 70.496094 M 37.855469 55.730469 L 37.855469 56.632812 L 44.285156 56.632812 L 44.285156 55.730469 L 37.855469 55.730469 M 35.871094 108.476562 L 30.484375 108.476562 L 30.484375 48.429688 L 34.988281 48.429688 L 35.871094 49.035156 L 35.871094 108.476562 M 31.796875 105.933594 L 31.796875 106.835938 L 34.742188 106.835938 L 34.742188 105.933594 L 31.796875 105.933594 M 31.796875 102.980469 L 31.796875 103.882812 L 34.742188 103.882812 L 34.742188 102.980469 L 31.796875 102.980469 M 31.796875 100.027344 L 31.796875 100.929688 L 34.742188 100.929688 L 34.742188 100.027344 L 31.796875 100.027344 M 31.796875 97.074219 L 31.796875 97.976562 L 34.742188 97.976562 L 34.742188 97.074219 L 31.796875 97.074219 M 31.796875 94.121094 L 31.796875 95.023438 L 34.742188 95.023438 L 34.742188 94.121094 L 31.796875 94.121094 M 31.796875 91.167969 L 31.796875 92.070312 L 34.742188 92.070312 L 34.742188 91.167969 L 31.796875 91.167969 M 31.796875 88.214844 L 31.796875 89.117188 L 34.742188 89.117188 L 34.742188 88.214844 L 31.796875 88.214844 M 31.796875 85.261719 L 31.796875 86.164062 L 34.742188 86.164062 L 34.742188 85.261719 L 31.796875 85.261719 M 31.796875 82.308594 L 31.796875 83.210938 L 34.742188 83.210938 L 34.742188 82.308594 L 31.796875 82.308594 M 31.796875 79.355469 L 31.796875 80.257812 L 34.742188 80.257812 L 34.742188 79.355469 L 31.796875 79.355469 M 31.796875 76.402344 L 31.796875 77.304688 L 34.742188 77.304688 L 34.742188 76.402344 L 31.796875 76.402344 M 31.796875 73.449219 L 31.796875 74.351562 L 34.742188 74.351562 L 34.742188 73.449219 L 31.796875 73.449219 M 31.796875 70.496094 L 31.796875 71.398438 L 34.742188 71.398438 L 34.742188 70.496094 L 31.796875 70.496094 M 31.796875 67.542969 L 31.796875 68.445312 L 34.742188 68.445312 L 34.742188 67.542969 L 31.796875 67.542969 M 31.796875 64.589844 L 31.796875 65.492188 L 34.742188 65.492188 L 34.742188 64.589844 L 31.796875 64.589844 M 31.796875 61.636719 L 31.796875 62.539062 L 34.742188 62.539062 L 34.742188 61.636719 L 31.796875 61.636719 M 31.796875 58.683594 L 31.796875 59.585938 L 34.742188 59.585938 L 34.742188 58.683594 L 31.796875 58.683594 M 31.796875 55.730469 L 31.796875 56.632812 L 34.742188 56.632812 L 34.742188 55.730469 L 31.796875 55.730469 M 31.796875 52.777344 L 31.796875 53.679688 L 34.742188 53.679688 L 34.742188 52.777344 L 31.796875 52.777344 M 31.796875 49.824219 L 31.796875 50.726562 L 34.742188 50.726562 L 34.742188 49.824219 L 31.796875 49.824219 " fill-opacity="1" fill-rule="nonzero"/><path fill="#ffffff" d="M 36.238281 108.476562 L 35.871094 108.476562 L 35.871094 49.035156 L 36.238281 49.289062 L 36.238281 108.476562 " fill-opacity="1" fill-rule="nonzero"/><path fill="#4e4d67" d="M 34.953125 48.402344 L 30.484375 48.402344 L 30.484375 45.328125 L 34.953125 48.402344 " fill-opacity="1" fill-rule="nonzero"/><path fill="#ffffff" d="M 31.796875 50.726562 L 34.742188 50.726562 L 34.742188 49.824219 L 31.796875 49.824219 Z M 31.796875 50.726562 " fill-opacity="1" fill-rule="nonzero"/><path fill="#ffffff" d="M 31.796875 53.679688 L 34.742188 53.679688 L 34.742188 52.777344 L 31.796875 52.777344 Z M 31.796875 53.679688 " fill-opacity="1" fill-rule="nonzero"/><path fill="#ffffff" d="M 31.796875 56.632812 L 34.742188 56.632812 L 34.742188 55.730469 L 31.796875 55.730469 Z M 31.796875 56.632812 " fill-opacity="1" fill-rule="nonzero"/><path fill="#ffffff" d="M 31.796875 59.585938 L 34.742188 59.585938 L 34.742188 58.683594 L 31.796875 58.683594 Z M 31.796875 59.585938 " fill-opacity="1" fill-rule="nonzero"/><path fill="#ffffff" d="M 31.796875 62.539062 L 34.742188 62.539062 L 34.742188 61.636719 L 31.796875 61.636719 Z M 31.796875 62.539062 " fill-opacity="1" fill-rule="nonzero"/><path fill="#ffffff" d="M 31.796875 65.492188 L 34.742188 65.492188 L 34.742188 64.589844 L 31.796875 64.589844 Z M 31.796875 65.492188 " fill-opacity="1" fill-rule="nonzero"/><path fill="#ffffff" d="M 31.796875 68.445312 L 34.742188 68.445312 L 34.742188 67.542969 L 31.796875 67.542969 Z M 31.796875 68.445312 " fill-opacity="1" fill-rule="nonzero"/><path fill="#ffffff" d="M 31.796875 71.398438 L 34.742188 71.398438 L 34.742188 70.496094 L 31.796875 70.496094 Z M 31.796875 71.398438 " fill-opacity="1" fill-rule="nonzero"/><path fill="#ffffff" d="M 31.796875 74.351562 L 34.742188 74.351562 L 34.742188 73.449219 L 31.796875 73.449219 Z M 31.796875 74.351562 " fill-opacity="1" fill-rule="nonzero"/><path fill="#ffffff" d="M 31.796875 77.304688 L 34.742188 77.304688 L 34.742188 76.402344 L 31.796875 76.402344 Z M 31.796875 77.304688 " fill-opacity="1" fill-rule="nonzero"/><path fill="#ffffff" d="M 31.796875 80.257812 L 34.742188 80.257812 L 34.742188 79.355469 L 31.796875 79.355469 Z M 31.796875 80.257812 " fill-opacity="1" fill-rule="nonzero"/><path fill="#ffffff" d="M 31.796875 83.210938 L 34.742188 83.210938 L 34.742188 82.308594 L 31.796875 82.308594 Z M 31.796875 83.210938 " fill-opacity="1" fill-rule="nonzero"/><path fill="#ffffff" d="M 31.796875 86.164062 L 34.742188 86.164062 L 34.742188 85.261719 L 31.796875 85.261719 Z M 31.796875 86.164062 " fill-opacity="1" fill-rule="nonzero"/><path fill="#ffffff" d="M 31.796875 89.117188 L 34.742188 89.117188 L 34.742188 88.214844 L 31.796875 88.214844 Z M 31.796875 89.117188 " fill-opacity="1" fill-rule="nonzero"/><path fill="#ffffff" d="M 31.796875 92.070312 L 34.742188 92.070312 L 34.742188 91.167969 L 31.796875 91.167969 Z M 31.796875 92.070312 " fill-opacity="1" fill-rule="nonzero"/><path fill="#ffffff" d="M 31.796875 95.023438 L 34.742188 95.023438 L 34.742188 94.121094 L 31.796875 94.121094 Z M 31.796875 95.023438 " fill-opacity="1" fill-rule="nonzero"/><path fill="#ffffff" d="M 31.796875 97.976562 L 34.742188 97.976562 L 34.742188 97.074219 L 31.796875 97.074219 Z M 31.796875 97.976562 " fill-opacity="1" fill-rule="nonzero"/><path fill="#ffffff" d="M 31.796875 100.929688 L 34.742188 100.929688 L 34.742188 100.027344 L 31.796875 100.027344 Z M 31.796875 100.929688 " fill-opacity="1" fill-rule="nonzero"/><path fill="#ffffff" d="M 31.796875 103.882812 L 34.742188 103.882812 L 34.742188 102.980469 L 31.796875 102.980469 Z M 31.796875 103.882812 " fill-opacity="1" fill-rule="nonzero"/><path fill="#ffffff" d="M 31.796875 106.835938 L 34.742188 106.835938 L 34.742188 105.933594 L 31.796875 105.933594 Z M 31.796875 106.835938 " fill-opacity="1" fill-rule="nonzero"/><path fill="#f05d5e" d="M 38.328125 50.726562 L 37.855469 50.726562 L 37.855469 50.402344 L 38.328125 50.726562 " fill-opacity="1" fill-rule="nonzero"/><path fill="#f05d5e" d="M 49.777344 83.660156 L 61.242188 83.660156 L 61.242188 82.757812 L 49.777344 82.757812 Z M 49.777344 83.660156 " fill-opacity="1" fill-rule="nonzero"/><path fill="#f05d5e" d="M 49.777344 80.257812 L 54.117188 80.257812 L 54.117188 79.355469 L 49.777344 79.355469 Z M 49.777344 80.257812 " fill-opacity="1" fill-rule="nonzero"/><path fill="#62cbcd" d="M 42.195312 53.679688 L 37.855469 53.679688 L 37.855469 52.777344 L 41.304688 52.777344 L 42.195312 53.390625 L 42.195312 53.679688 " fill-opacity="1" fill-rule="nonzero"/><path fill="#62cbcd" d="M 37.855469 56.632812 L 44.285156 56.632812 L 44.285156 55.730469 L 37.855469 55.730469 Z M 37.855469 56.632812 " fill-opacity="1" fill-rule="nonzero"/><path fill="#ffffff" d="M 51.195312 59.585938 L 45.390625 59.585938 L 45.390625 58.683594 L 49.886719 58.683594 L 51.195312 59.585938 " fill-opacity="1" fill-rule="nonzero"/><path fill="#ffffff" d="M 59.121094 65.039062 L 48.214844 65.039062 L 48.214844 64.136719 L 57.8125 64.136719 L 59.121094 65.039062 " fill-opacity="1" fill-rule="nonzero"/><path fill="#ffffff" d="M 54.832031 62.085938 L 48.214844 62.085938 L 48.214844 61.183594 L 53.519531 61.183594 L 54.832031 62.085938 " fill-opacity="1" fill-rule="nonzero"/><path fill="#ffffff" d="M 58.742188 93.773438 L 66.972656 93.773438 L 66.972656 92.871094 L 58.742188 92.871094 Z M 58.742188 93.773438 " fill-opacity="1" fill-rule="nonzero"/><path fill="#ffffff" d="M 68.445312 93.773438 L 71.640625 93.773438 L 71.640625 92.871094 L 68.445312 92.871094 Z M 68.445312 93.773438 " fill-opacity="1" fill-rule="nonzero"/><path fill="#ffffff" d="M 78.152344 93.773438 L 84.660156 93.773438 L 84.660156 92.871094 L 78.152344 92.871094 Z M 78.152344 93.773438 " fill-opacity="1" fill-rule="nonzero"/><path fill="#ffffff" d="M 72.867188 93.773438 L 76.183594 93.773438 L 76.183594 92.871094 L 72.867188 92.871094 Z M 72.867188 93.773438 " fill-opacity="1" fill-rule="nonzero"/><path fill="#33bdf2" d="M 46.90625 56.632812 L 45.390625 56.632812 L 45.390625 55.730469 L 45.597656 55.730469 L 46.90625 56.632812 " fill-opacity="1" fill-rule="nonzero"/><path fill="#62cbcd" d="M 49.859375 86.164062 L 54.199219 86.164062 L 54.199219 85.261719 L 49.859375 85.261719 Z M 49.859375 86.164062 " fill-opacity="1" fill-rule="nonzero"/><path fill="#62cbcd" d="M 49.859375 89.117188 L 56.289062 89.117188 L 56.289062 88.214844 L 49.859375 88.214844 Z M 49.859375 89.117188 " fill-opacity="1" fill-rule="nonzero"/><path fill="#33bdf2" d="M 57.394531 89.117188 L 59.605469 89.117188 L 59.605469 88.214844 L 57.394531 88.214844 Z M 57.394531 89.117188 " fill-opacity="1" fill-rule="nonzero"/><path fill="#62cbcd" d="M 49.859375 101.953125 L 54.199219 101.953125 L 54.199219 101.050781 L 49.859375 101.050781 Z M 49.859375 101.953125 " fill-opacity="1" fill-rule="nonzero"/><path fill="#62cbcd" d="M 49.859375 104.90625 L 56.289062 104.90625 L 56.289062 104.003906 L 49.859375 104.003906 Z M 49.859375 104.90625 " fill-opacity="1" fill-rule="nonzero"/><path fill="#33bdf2" d="M 57.394531 104.90625 L 59.605469 104.90625 L 59.605469 104.003906 L 57.394531 104.003906 Z M 57.394531 104.90625 " fill-opacity="1" fill-rule="nonzero"/><path fill="#62cbcd" d="M 37.855469 71.398438 L 44.285156 71.398438 L 44.285156 70.496094 L 37.855469 70.496094 Z M 37.855469 71.398438 " fill-opacity="1" fill-rule="nonzero"/><path fill="#33bdf2" d="M 45.390625 71.398438 L 47.601562 71.398438 L 47.601562 70.496094 L 45.390625 70.496094 Z M 45.390625 71.398438 " fill-opacity="1" fill-rule="nonzero"/><path fill="#99d64b" d="M 45.390625 75.253906 L 57.921875 75.253906 L 57.921875 74.351562 L 45.390625 74.351562 Z M 45.390625 75.253906 " fill-opacity="1" fill-rule="nonzero"/><path fill="#ffffff" d="M 64.070312 68.445312 L 48.214844 68.445312 L 48.214844 67.542969 L 62.757812 67.542969 L 64.070312 68.445312 " fill-opacity="1" fill-rule="nonzero"/><path fill="#ffffff" d="M 58.738281 97.074219 L 69.714844 97.074219 L 69.714844 96.171875 L 58.738281 96.171875 Z M 58.738281 97.074219 " fill-opacity="1" fill-rule="nonzero"/><path fill="#ffffff" d="M 70.859375 97.074219 L 86.257812 97.074219 L 86.257812 96.171875 L 70.859375 96.171875 Z M 70.859375 97.074219 " fill-opacity="1" fill-rule="nonzero"/><path fill="#ffffff" d="M 58.738281 100.027344 L 63.488281 100.027344 L 63.488281 99.125 L 58.738281 99.125 Z M 58.738281 100.027344 " fill-opacity="1" fill-rule="nonzero"/><path fill="#ffffff" d="M 64.882812 100.027344 L 69.714844 100.027344 L 69.714844 99.125 L 64.882812 99.125 Z M 64.882812 100.027344 " fill-opacity="1" fill-rule="nonzero"/><path fill="#ffffff" d="M 83.472656 100.027344 L 86.257812 100.027344 L 86.257812 99.125 L 83.472656 99.125 Z M 83.472656 100.027344 " fill-opacity="1" fill-rule="nonzero"/><path fill="#ffffff" d="M 70.859375 100.027344 L 82.410156 100.027344 L 82.410156 99.125 L 70.859375 99.125 Z M 70.859375 100.027344 " fill-opacity="1" fill-rule="nonzero"/><path fill="#1b181e" d="M 133.417969 120.546875 L 15.539062 120.546875 L 13.449219 113.101562 L 136.550781 113.101562 L 133.417969 120.546875 " fill-opacity="1" fill-rule="nonzero"/><path fill="#3b3949" d="M 83.511719 120.546875 L 66.488281 120.546875 L 66.488281 116.824219 L 83.511719 116.824219 L 83.511719 120.546875 " fill-opacity="1" fill-rule="nonzero"/><path fill="#3bbec5" d="M 88.519531 31.746094 C 88.464844 39.222656 82.371094 45.242188 74.902344 45.1875 C 67.433594 45.136719 61.425781 39.027344 61.480469 31.550781 C 61.535156 24.070312 67.632812 18.050781 75.097656 18.105469 C 82.566406 18.160156 88.574219 24.265625 88.519531 31.746094 " fill-opacity="1" fill-rule="nonzero"/><path fill="#1a2523" d="M 74.96875 36.050781 L 74.972656 35.496094 C 72.859375 35.480469 71.15625 33.757812 71.15625 31.644531 L 71.15625 31.636719 L 70.875 31.632812 L 71.15625 31.652344 L 71.15625 31.636719 L 70.875 31.632812 L 71.15625 31.652344 L 71.15625 31.617188 C 71.171875 29.503906 72.890625 27.796875 75 27.796875 L 75.027344 27.796875 C 77.140625 27.8125 78.84375 29.535156 78.84375 31.644531 L 78.84375 31.6875 L 79.394531 31.675781 L 78.84375 31.675781 C 78.828125 33.789062 77.109375 35.496094 75 35.496094 L 74.972656 35.496094 L 74.96875 36.050781 L 74.964844 36.601562 L 75 36.601562 C 77.71875 36.601562 79.925781 34.40625 79.949219 31.683594 L 79.949219 31.644531 C 79.949219 28.925781 77.757812 26.710938 75.035156 26.691406 L 75 26.691406 C 72.28125 26.691406 70.070312 28.886719 70.050781 31.609375 L 70.601562 31.613281 L 70.050781 31.578125 C 70.050781 31.617188 70.050781 31.640625 70.050781 31.644531 C 70.050781 34.367188 72.242188 36.582031 74.964844 36.601562 Z M 83.507812 32.359375 L 84.058594 32.402344 C 84.078125 32.179688 84.089844 31.949219 84.09375 31.714844 L 84.09375 31.664062 C 84.09375 31.441406 84.082031 31.230469 84.070312 31.023438 L 84.050781 30.703125 L 83.765625 30.5625 C 83.320312 30.339844 83.023438 30.121094 82.859375 29.933594 C 82.773438 29.839844 82.722656 29.753906 82.691406 29.671875 C 82.660156 29.589844 82.644531 29.511719 82.644531 29.414062 C 82.644531 29.289062 82.671875 29.132812 82.753906 28.9375 C 82.832031 28.738281 82.960938 28.507812 83.144531 28.246094 L 83.328125 27.976562 L 83.191406 27.6875 C 83 27.292969 82.78125 26.914062 82.539062 26.554688 L 82.355469 26.285156 L 82.03125 26.3125 C 81.882812 26.324219 81.746094 26.332031 81.621094 26.332031 C 81.351562 26.332031 81.136719 26.300781 80.980469 26.253906 C 80.867188 26.21875 80.78125 26.175781 80.71875 26.125 C 80.621094 26.050781 80.554688 25.96875 80.496094 25.816406 C 80.441406 25.664062 80.402344 25.441406 80.402344 25.144531 C 80.402344 25.003906 80.410156 24.851562 80.425781 24.683594 L 80.460938 24.355469 L 80.191406 24.171875 C 79.835938 23.921875 79.460938 23.699219 79.070312 23.503906 L 78.78125 23.355469 L 78.515625 23.539062 C 78.253906 23.714844 78.023438 23.839844 77.828125 23.917969 C 77.632812 23.996094 77.472656 24.027344 77.347656 24.023438 C 77.25 24.023438 77.171875 24.007812 77.089844 23.976562 C 76.96875 23.925781 76.832031 23.832031 76.683594 23.652344 C 76.53125 23.476562 76.371094 23.222656 76.210938 22.882812 L 76.074219 22.597656 L 75.757812 22.570312 C 75.53125 22.554688 75.304688 22.539062 75.066406 22.539062 L 75.015625 22.539062 C 74.796875 22.539062 74.582031 22.546875 74.375 22.5625 L 74.058594 22.582031 L 73.917969 22.867188 C 73.699219 23.3125 73.480469 23.609375 73.289062 23.773438 C 73.195312 23.859375 73.109375 23.910156 73.027344 23.945312 C 72.945312 23.976562 72.867188 23.992188 72.773438 23.992188 C 72.648438 23.992188 72.488281 23.960938 72.292969 23.882812 C 72.097656 23.800781 71.863281 23.671875 71.601562 23.488281 L 71.335938 23.300781 L 71.046875 23.445312 C 70.652344 23.632812 70.273438 23.851562 69.914062 24.09375 L 69.644531 24.277344 L 69.671875 24.601562 C 69.6875 24.75 69.691406 24.886719 69.691406 25.015625 C 69.691406 25.285156 69.664062 25.5 69.617188 25.652344 C 69.578125 25.769531 69.535156 25.855469 69.488281 25.917969 C 69.414062 26.015625 69.332031 26.082031 69.179688 26.140625 C 69.027344 26.199219 68.804688 26.238281 68.507812 26.234375 C 68.371094 26.234375 68.214844 26.226562 68.042969 26.210938 L 67.722656 26.179688 L 67.535156 26.445312 C 67.289062 26.800781 67.066406 27.175781 66.867188 27.570312 L 66.722656 27.855469 L 66.90625 28.125 C 67.082031 28.386719 67.207031 28.621094 67.285156 28.8125 C 67.359375 29.011719 67.390625 29.167969 67.390625 29.292969 C 67.390625 29.390625 67.375 29.472656 67.339844 29.554688 C 67.292969 29.675781 67.199219 29.808594 67.019531 29.960938 C 66.84375 30.109375 66.589844 30.273438 66.25 30.433594 L 65.964844 30.570312 L 65.941406 30.886719 C 65.921875 31.113281 65.910156 31.34375 65.90625 31.582031 L 66.457031 31.582031 L 65.90625 31.574219 L 65.90625 31.648438 C 65.90625 31.863281 65.914062 32.070312 65.929688 32.273438 L 65.949219 32.589844 L 66.234375 32.730469 C 66.675781 32.953125 66.976562 33.167969 67.140625 33.359375 C 67.222656 33.453125 67.277344 33.539062 67.308594 33.621094 C 67.339844 33.703125 67.355469 33.78125 67.355469 33.878906 C 67.355469 34.003906 67.328125 34.160156 67.246094 34.355469 C 67.167969 34.554688 67.039062 34.785156 66.855469 35.050781 L 66.667969 35.316406 L 66.808594 35.609375 C 67 36 67.21875 36.378906 67.460938 36.738281 L 67.644531 37.007812 L 67.96875 36.980469 C 68.113281 36.96875 68.253906 36.960938 68.378906 36.960938 C 68.648438 36.960938 68.863281 36.992188 69.015625 37.039062 C 69.132812 37.074219 69.214844 37.117188 69.28125 37.167969 C 69.378906 37.238281 69.441406 37.324219 69.503906 37.476562 C 69.558594 37.628906 69.597656 37.851562 69.597656 38.148438 C 69.597656 38.289062 69.589844 38.441406 69.574219 38.617188 L 69.542969 38.9375 L 69.804688 39.125 C 70.164062 39.371094 70.535156 39.59375 70.929688 39.792969 L 71.214844 39.9375 L 71.484375 39.757812 C 71.746094 39.578125 71.976562 39.453125 72.171875 39.375 C 72.367188 39.296875 72.527344 39.265625 72.652344 39.265625 C 72.75 39.269531 72.828125 39.285156 72.910156 39.316406 C 73.03125 39.367188 73.164062 39.460938 73.316406 39.636719 C 73.464844 39.816406 73.628906 40.070312 73.789062 40.410156 L 73.925781 40.695312 L 74.242188 40.722656 C 74.464844 40.742188 74.695312 40.753906 74.933594 40.753906 L 74.992188 40.753906 C 75.210938 40.753906 75.417969 40.746094 75.625 40.730469 L 75.941406 40.707031 L 76.082031 40.425781 C 76.304688 39.980469 76.519531 39.683594 76.710938 39.519531 C 76.804688 39.433594 76.890625 39.382812 76.96875 39.351562 C 77.050781 39.316406 77.132812 39.300781 77.226562 39.300781 C 77.351562 39.300781 77.507812 39.332031 77.707031 39.410156 C 77.902344 39.492188 78.132812 39.621094 78.398438 39.804688 L 78.664062 39.988281 L 78.953125 39.851562 C 79.347656 39.65625 79.726562 39.441406 80.085938 39.195312 L 80.355469 39.015625 L 80.328125 38.691406 C 80.3125 38.542969 80.304688 38.402344 80.304688 38.277344 C 80.304688 38.007812 80.335938 37.792969 80.382812 37.640625 C 80.417969 37.523438 80.464844 37.4375 80.511719 37.375 C 80.582031 37.277344 80.667969 37.210938 80.820312 37.152344 C 80.972656 37.09375 81.195312 37.054688 81.488281 37.054688 C 81.628906 37.054688 81.785156 37.066406 81.957031 37.082031 L 82.277344 37.113281 L 82.464844 36.847656 C 82.710938 36.492188 82.933594 36.117188 83.128906 35.726562 L 83.277344 35.4375 L 83.09375 35.167969 C 82.917969 34.90625 82.792969 34.675781 82.714844 34.476562 C 82.636719 34.28125 82.609375 34.125 82.609375 34 C 82.609375 33.902344 82.625 33.824219 82.660156 33.738281 C 82.707031 33.617188 82.800781 33.484375 82.976562 33.332031 C 83.152344 33.183594 83.410156 33.019531 83.75 32.859375 L 84.035156 32.722656 L 84.058594 32.402344 L 83.507812 32.359375 L 83.269531 31.859375 C 82.742188 32.117188 82.320312 32.390625 82.003906 32.738281 C 81.847656 32.914062 81.71875 33.109375 81.632812 33.324219 C 81.546875 33.539062 81.503906 33.769531 81.503906 34 C 81.503906 34.296875 81.574219 34.59375 81.6875 34.886719 C 81.804688 35.179688 81.972656 35.476562 82.179688 35.785156 L 82.636719 35.476562 L 82.144531 35.230469 C 81.972656 35.574219 81.773438 35.902344 81.554688 36.214844 L 82.011719 36.53125 L 82.066406 35.980469 C 81.863281 35.960938 81.671875 35.949219 81.488281 35.949219 C 81.144531 35.949219 80.832031 35.988281 80.539062 36.078125 C 80.320312 36.148438 80.117188 36.25 79.941406 36.390625 C 79.671875 36.597656 79.476562 36.886719 79.363281 37.210938 C 79.246094 37.53125 79.203125 37.886719 79.199219 38.277344 C 79.199219 38.441406 79.210938 38.609375 79.222656 38.785156 L 79.773438 38.738281 L 79.464844 38.28125 C 79.152344 38.492188 78.816406 38.683594 78.472656 38.851562 L 78.714844 39.351562 L 79.027344 38.898438 C 78.71875 38.679688 78.421875 38.507812 78.125 38.386719 C 77.828125 38.265625 77.527344 38.195312 77.226562 38.195312 C 77 38.195312 76.769531 38.238281 76.558594 38.324219 C 76.242188 38.453125 75.964844 38.667969 75.730469 38.941406 C 75.492188 39.210938 75.289062 39.542969 75.09375 39.933594 L 75.585938 40.179688 L 75.550781 39.625 C 75.363281 39.640625 75.175781 39.648438 74.992188 39.648438 L 74.941406 39.648438 C 74.742188 39.648438 74.539062 39.636719 74.335938 39.617188 L 74.289062 40.167969 L 74.785156 39.929688 C 74.53125 39.402344 74.257812 38.980469 73.910156 38.664062 C 73.734375 38.507812 73.539062 38.378906 73.324219 38.292969 C 73.109375 38.203125 72.882812 38.160156 72.652344 38.160156 C 72.351562 38.160156 72.058594 38.230469 71.765625 38.347656 C 71.472656 38.464844 71.175781 38.628906 70.867188 38.839844 L 71.175781 39.296875 L 71.421875 38.800781 C 71.078125 38.628906 70.75 38.433594 70.4375 38.214844 L 70.121094 38.667969 L 70.671875 38.722656 C 70.691406 38.519531 70.703125 38.332031 70.703125 38.148438 C 70.703125 37.804688 70.664062 37.488281 70.574219 37.195312 C 70.503906 36.976562 70.402344 36.773438 70.261719 36.59375 C 70.054688 36.324219 69.765625 36.128906 69.445312 36.015625 C 69.125 35.902344 68.769531 35.855469 68.378906 35.855469 C 68.21875 35.855469 68.050781 35.863281 67.871094 35.878906 L 67.917969 36.429688 L 68.378906 36.121094 C 68.164062 35.804688 67.972656 35.472656 67.804688 35.125 L 67.308594 35.367188 L 67.761719 35.679688 C 67.976562 35.371094 68.148438 35.074219 68.269531 34.777344 C 68.390625 34.480469 68.460938 34.179688 68.460938 33.878906 C 68.464844 33.648438 68.421875 33.421875 68.332031 33.207031 C 68.207031 32.886719 67.988281 32.613281 67.71875 32.378906 C 67.445312 32.140625 67.117188 31.9375 66.726562 31.742188 L 66.480469 32.234375 L 67.03125 32.199219 C 67.019531 32.011719 67.011719 31.828125 67.011719 31.648438 L 67.011719 31.589844 C 67.011719 31.386719 67.023438 31.183594 67.042969 30.980469 L 66.492188 30.933594 L 66.730469 31.433594 C 67.257812 31.175781 67.679688 30.902344 67.996094 30.554688 C 68.152344 30.378906 68.277344 30.183594 68.367188 29.96875 C 68.453125 29.753906 68.496094 29.523438 68.496094 29.292969 C 68.496094 28.996094 68.425781 28.699219 68.3125 28.40625 C 68.195312 28.113281 68.027344 27.816406 67.820312 27.507812 L 67.363281 27.816406 L 67.855469 28.0625 C 68.027344 27.71875 68.222656 27.390625 68.441406 27.078125 L 67.988281 26.761719 L 67.933594 27.3125 C 68.136719 27.332031 68.328125 27.34375 68.507812 27.34375 C 68.851562 27.34375 69.167969 27.304688 69.460938 27.214844 C 69.675781 27.144531 69.878906 27.042969 70.058594 26.902344 C 70.328125 26.695312 70.523438 26.40625 70.636719 26.085938 C 70.753906 25.761719 70.796875 25.40625 70.796875 25.015625 C 70.796875 24.851562 70.789062 24.683594 70.777344 24.507812 L 70.226562 24.554688 L 70.535156 25.011719 C 70.847656 24.800781 71.179688 24.609375 71.527344 24.441406 L 71.285156 23.941406 L 70.96875 24.394531 C 71.28125 24.613281 71.578125 24.785156 71.875 24.90625 C 72.171875 25.027344 72.46875 25.097656 72.773438 25.097656 C 73 25.097656 73.230469 25.054688 73.441406 24.96875 C 73.757812 24.839844 74.035156 24.625 74.269531 24.351562 C 74.507812 24.082031 74.710938 23.75 74.90625 23.363281 L 74.410156 23.113281 L 74.449219 23.667969 C 74.640625 23.652344 74.828125 23.644531 75.015625 23.644531 L 75.058594 23.644531 C 75.257812 23.648438 75.460938 23.660156 75.664062 23.675781 L 75.710938 23.125 L 75.214844 23.363281 C 75.46875 23.890625 75.742188 24.3125 76.089844 24.628906 C 76.265625 24.785156 76.460938 24.914062 76.675781 25 C 76.886719 25.089844 77.117188 25.132812 77.347656 25.132812 C 77.648438 25.132812 77.941406 25.0625 78.234375 24.945312 C 78.527344 24.832031 78.824219 24.664062 79.132812 24.457031 L 78.824219 23.996094 L 78.578125 24.492188 C 78.921875 24.664062 79.25 24.859375 79.5625 25.078125 L 79.878906 24.625 L 79.328125 24.566406 C 79.304688 24.769531 79.296875 24.964844 79.296875 25.144531 C 79.296875 25.488281 79.332031 25.804688 79.425781 26.097656 C 79.496094 26.316406 79.59375 26.519531 79.734375 26.699219 C 79.941406 26.96875 80.234375 27.164062 80.554688 27.277344 C 80.875 27.394531 81.230469 27.4375 81.621094 27.4375 C 81.78125 27.4375 81.949219 27.429688 82.125 27.414062 L 82.082031 26.863281 L 81.621094 27.171875 C 81.835938 27.492188 82.027344 27.820312 82.195312 28.167969 L 82.691406 27.925781 L 82.238281 27.613281 C 82.023438 27.921875 81.851562 28.21875 81.730469 28.515625 C 81.609375 28.8125 81.539062 29.113281 81.539062 29.414062 C 81.535156 29.644531 81.578125 29.875 81.664062 30.085938 C 81.792969 30.402344 82.011719 30.679688 82.28125 30.914062 C 82.554688 31.152344 82.882812 31.359375 83.273438 31.550781 L 83.519531 31.058594 L 82.964844 31.09375 C 82.980469 31.285156 82.988281 31.476562 82.988281 31.664062 L 82.988281 31.707031 L 82.988281 31.703125 C 82.988281 31.90625 82.976562 32.109375 82.957031 32.316406 L 83.507812 32.359375 L 83.269531 31.859375 L 83.507812 32.359375 " fill-opacity="1" fill-rule="nonzero"/><path fill="#ed3947" d="M 126.355469 39.425781 C 126.355469 46.902344 120.300781 52.96875 112.835938 52.96875 C 105.367188 52.96875 99.316406 46.902344 99.316406 39.425781 C 99.316406 31.945312 105.367188 25.882812 112.835938 25.882812 C 120.300781 25.882812 126.355469 31.945312 126.355469 39.425781 " fill-opacity="1" fill-rule="nonzero"/><path fill="#1a2523" d="M 110.351562 42.328125 L 104.429688 38.792969 L 110.351562 35.257812 L 109.785156 34.304688 L 102.269531 38.792969 L 109.785156 43.277344 L 110.351562 42.328125 " fill-opacity="1" fill-rule="nonzero"/><path fill="#1a2523" d="M 115.882812 43.277344 L 123.398438 38.792969 L 115.882812 34.304688 L 115.320312 35.257812 L 121.238281 38.792969 L 115.320312 42.328125 L 115.882812 43.277344 " fill-opacity="1" fill-rule="nonzero"/><path fill="#1a2523" d="M 114.582031 29.257812 L 110.011719 48.0625 L 111.085938 48.324219 L 115.65625 29.519531 " fill-opacity="1" fill-rule="nonzero"/><path fill="#f9a72b" d="M 50.6875 39.425781 C 50.6875 46.902344 44.632812 52.96875 37.164062 52.96875 C 29.699219 52.96875 23.644531 46.902344 23.644531 39.425781 C 23.644531 31.945312 29.699219 25.882812 37.164062 25.882812 C 44.632812 25.882812 50.6875 31.945312 50.6875 39.425781 " fill-opacity="1" fill-rule="nonzero"/><path fill="#1a2523" d="M 41.757812 34.582031 L 41.207031 34.582031 C 41.207031 35.703125 40.753906 36.710938 40.023438 37.445312 C 39.289062 38.179688 38.285156 38.632812 37.164062 38.632812 C 36.046875 38.632812 35.042969 38.179688 34.308594 37.445312 C 33.574219 36.710938 33.125 35.703125 33.125 34.582031 C 33.125 33.464844 33.574219 32.457031 34.308594 31.722656 C 35.042969 30.988281 36.046875 30.539062 37.164062 30.535156 C 38.285156 30.539062 39.289062 30.988281 40.023438 31.722656 C 40.753906 32.457031 41.207031 33.464844 41.207031 34.582031 L 42.3125 34.582031 C 42.3125 31.738281 40.007812 29.429688 37.164062 29.429688 C 34.324219 29.429688 32.019531 31.738281 32.019531 34.582031 C 32.019531 37.429688 34.324219 39.738281 37.164062 39.738281 C 40.007812 39.738281 42.3125 37.429688 42.3125 34.582031 L 41.757812 34.582031 " fill-opacity="1" fill-rule="nonzero"/><path fill="#1a2523" d="M 39.140625 32.894531 C 39.5625 33.386719 39.742188 33.949219 39.746094 34.519531 C 39.746094 35.195312 39.476562 35.875 39.019531 36.371094 C 38.558594 36.867188 37.929688 37.183594 37.164062 37.1875 L 37.164062 38.292969 C 38.253906 38.292969 39.191406 37.820312 39.832031 37.117188 C 40.476562 36.417969 40.847656 35.484375 40.847656 34.519531 C 40.851562 33.710938 40.578125 32.871094 39.980469 32.175781 L 39.140625 32.894531 " fill-opacity="1" fill-rule="nonzero"/><path fill="#1a2523" d="M 37.164062 31.980469 C 37.558594 31.980469 37.957031 32.074219 38.308594 32.246094 L 38.792969 31.253906 C 38.285156 31.003906 37.726562 30.875 37.164062 30.875 L 37.164062 31.980469 " fill-opacity="1" fill-rule="nonzero"/><path fill="#1a2523" d="M 43.386719 34.582031 L 42.832031 34.582031 C 42.832031 36.152344 42.199219 37.570312 41.171875 38.597656 C 40.144531 39.625 38.734375 40.261719 37.164062 40.261719 C 35.597656 40.261719 34.183594 39.625 33.15625 38.597656 C 32.128906 37.570312 31.496094 36.152344 31.496094 34.582031 C 31.496094 33.015625 32.128906 31.597656 33.15625 30.570312 C 34.183594 29.542969 35.597656 28.90625 37.164062 28.90625 C 38.734375 28.90625 40.144531 29.542969 41.171875 30.570312 C 42.199219 31.597656 42.832031 33.015625 42.832031 34.582031 L 43.9375 34.582031 C 43.9375 30.835938 40.90625 27.800781 37.164062 27.800781 C 33.425781 27.800781 30.390625 30.835938 30.390625 34.582031 C 30.390625 38.332031 33.425781 41.367188 37.164062 41.367188 C 40.90625 41.367188 43.9375 38.332031 43.9375 34.582031 L 43.386719 34.582031 " fill-opacity="1" fill-rule="nonzero"/><path fill="#1a2523" d="M 37.820312 42.972656 L 37.820312 42.417969 L 37.0625 42.417969 L 37.0625 41.332031 L 37.269531 41.332031 L 37.269531 42.972656 L 37.820312 42.972656 L 37.820312 42.417969 L 37.820312 42.972656 L 38.371094 42.972656 L 38.371094 40.222656 L 35.957031 40.222656 L 35.957031 43.527344 L 38.371094 43.527344 L 38.371094 42.972656 L 37.820312 42.972656 " fill-opacity="1" fill-rule="nonzero"/><path fill="#1a2523" d="M 38.734375 50.496094 L 38.734375 49.941406 L 36.148438 49.941406 L 36.148438 43.527344 L 38.179688 43.527344 L 38.179688 50.496094 L 38.734375 50.496094 L 38.734375 49.941406 L 38.734375 50.496094 L 39.285156 50.496094 L 39.285156 42.417969 L 35.042969 42.417969 L 35.042969 51.046875 L 39.285156 51.046875 L 39.285156 50.496094 L 38.734375 50.496094 " fill-opacity="1" fill-rule="nonzero"/><path fill="#f46f3f" d="M 28.648438 68.859375 C 28.648438 76.335938 22.59375 82.402344 15.125 82.402344 C 7.65625 82.402344 1.605469 76.335938 1.605469 68.859375 C 1.605469 61.378906 7.65625 55.316406 15.125 55.316406 C 22.59375 55.316406 28.648438 61.378906 28.648438 68.859375 " fill-opacity="1" fill-rule="nonzero"/><path fill="#1a2523" d="M 15.125 61.386719 L 15.125 60.832031 C 12.648438 60.835938 10.398438 61.613281 8.746094 62.90625 C 7.917969 63.546875 7.242188 64.324219 6.769531 65.199219 C 6.296875 66.066406 6.03125 67.039062 6.035156 68.058594 C 6.03125 69.984375 6.980469 71.71875 8.476562 72.988281 L 8.832031 72.566406 L 8.300781 72.410156 L 6.917969 77.171875 L 13.414062 75.089844 L 13.242188 74.5625 L 13.148438 75.109375 C 13.785156 75.21875 14.445312 75.28125 15.125 75.28125 C 17.601562 75.28125 19.851562 74.5 21.503906 73.210938 C 22.332031 72.566406 23.007812 71.789062 23.480469 70.917969 C 23.953125 70.046875 24.21875 69.074219 24.21875 68.058594 C 24.21875 67.039062 23.953125 66.066406 23.480469 65.199219 C 22.773438 63.886719 21.605469 62.800781 20.160156 62.035156 C 18.710938 61.273438 16.980469 60.832031 15.125 60.832031 L 15.125 61.941406 C 17.367188 61.9375 19.386719 62.652344 20.824219 63.777344 C 21.542969 64.339844 22.117188 65 22.507812 65.726562 C 22.902344 66.449219 23.113281 67.234375 23.113281 68.058594 C 23.113281 68.882812 22.902344 69.664062 22.507812 70.390625 C 21.921875 71.472656 20.925781 72.425781 19.644531 73.097656 C 18.363281 73.773438 16.808594 74.175781 15.125 74.175781 C 14.511719 74.175781 13.914062 74.121094 13.339844 74.019531 L 13.207031 73.992188 L 8.558594 75.484375 L 9.464844 72.375 L 9.191406 72.144531 C 7.894531 71.039062 7.136719 69.609375 7.136719 68.058594 C 7.136719 67.234375 7.351562 66.449219 7.742188 65.726562 C 8.328125 64.640625 9.328125 63.691406 10.609375 63.015625 C 11.886719 62.339844 13.445312 61.941406 15.125 61.941406 L 15.125 61.386719 " fill-opacity="1" fill-rule="nonzero"/><path fill="#1a2523" d="M 10.257812 66.359375 L 19.992188 66.359375 L 19.992188 65.253906 L 10.257812 65.253906 Z M 10.257812 66.359375 " fill-opacity="1" fill-rule="nonzero"/><path fill="#1a2523" d="M 10.257812 68.773438 L 19.992188 68.773438 L 19.992188 67.667969 L 10.257812 67.667969 Z M 10.257812 68.773438 " fill-opacity="1" fill-rule="nonzero"/><path fill="#1a2523" d="M 10.257812 71.1875 L 19.992188 71.1875 L 19.992188 70.082031 L 10.257812 70.082031 Z M 10.257812 71.1875 " fill-opacity="1" fill-rule="nonzero"/><path fill="#c2e354" d="M 148.394531 68.859375 C 148.394531 76.335938 142.339844 82.402344 134.875 82.402344 C 127.40625 82.402344 121.355469 76.335938 121.355469 68.859375 C 121.355469 61.378906 127.40625 55.316406 134.875 55.316406 C 142.339844 55.316406 148.394531 61.378906 148.394531 68.859375 " fill-opacity="1" fill-rule="nonzero"/><path fill="#1a2523" d="M 143.5625 68.859375 L 143.007812 68.859375 C 143.007812 71.109375 142.097656 73.144531 140.625 74.621094 C 139.152344 76.09375 137.121094 77.007812 134.875 77.007812 C 132.625 77.007812 130.59375 76.09375 129.121094 74.621094 C 127.648438 73.144531 126.738281 71.109375 126.738281 68.859375 C 126.738281 66.605469 127.648438 64.570312 129.121094 63.097656 C 130.59375 61.621094 132.625 60.710938 134.875 60.710938 C 137.121094 60.710938 139.152344 61.621094 140.625 63.097656 C 142.097656 64.570312 143.007812 66.605469 143.007812 68.859375 L 144.113281 68.859375 C 144.113281 63.746094 139.976562 59.605469 134.875 59.605469 C 129.769531 59.605469 125.632812 63.746094 125.632812 68.859375 C 125.632812 73.96875 129.769531 78.113281 134.875 78.113281 C 139.976562 78.113281 144.113281 73.96875 144.113281 68.859375 L 143.5625 68.859375 " fill-opacity="1" fill-rule="nonzero"/><path fill="#1a2523" d="M 138.191406 68.859375 L 137.640625 68.859375 C 137.640625 71.203125 137.273438 73.324219 136.703125 74.8125 C 136.421875 75.554688 136.085938 76.136719 135.753906 76.503906 C 135.589844 76.6875 135.429688 76.816406 135.28125 76.894531 C 135.132812 76.972656 135.003906 77.003906 134.875 77.007812 C 134.742188 77.003906 134.613281 76.972656 134.464844 76.894531 C 134.207031 76.757812 133.90625 76.460938 133.621094 76.003906 C 133.191406 75.320312 132.804688 74.300781 132.535156 73.070312 C 132.265625 71.839844 132.109375 70.398438 132.109375 68.859375 C 132.105469 66.511719 132.476562 64.390625 133.042969 62.902344 C 133.328125 62.160156 133.660156 61.578125 133.992188 61.210938 C 134.15625 61.027344 134.320312 60.898438 134.464844 60.820312 C 134.613281 60.742188 134.742188 60.710938 134.875 60.710938 C 135.003906 60.710938 135.132812 60.742188 135.28125 60.820312 C 135.539062 60.957031 135.84375 61.253906 136.125 61.710938 C 136.558594 62.394531 136.945312 63.414062 137.214844 64.644531 C 137.484375 65.875 137.640625 67.320312 137.640625 68.859375 L 138.746094 68.859375 C 138.746094 66.398438 138.367188 64.167969 137.738281 62.507812 C 137.417969 61.675781 137.039062 60.984375 136.574219 60.46875 C 136.34375 60.210938 136.089844 60 135.804688 59.847656 C 135.519531 59.691406 135.203125 59.601562 134.875 59.605469 C 134.546875 59.601562 134.230469 59.691406 133.945312 59.847656 C 133.445312 60.117188 133.039062 60.5625 132.683594 61.121094 C 132.15625 61.964844 131.746094 63.085938 131.457031 64.40625 C 131.164062 65.726562 131.003906 67.242188 131.003906 68.859375 C 131.003906 71.320312 131.378906 73.546875 132.011719 75.207031 C 132.328125 76.039062 132.710938 76.730469 133.171875 77.246094 C 133.402344 77.503906 133.660156 77.714844 133.945312 77.871094 C 134.230469 78.023438 134.546875 78.113281 134.875 78.113281 C 135.203125 78.113281 135.519531 78.023438 135.804688 77.871094 C 136.300781 77.601562 136.710938 77.15625 137.0625 76.59375 C 137.589844 75.75 138 74.628906 138.292969 73.308594 C 138.582031 71.988281 138.746094 70.472656 138.746094 68.859375 L 138.191406 68.859375 " fill-opacity="1" fill-rule="nonzero"/><path fill="#1a2523" d="M 126.1875 69.410156 L 144.132812 69.410156 L 144.132812 68.304688 L 126.1875 68.304688 Z M 126.1875 69.410156 " fill-opacity="1" fill-rule="nonzero"/><path fill="#1a2523" d="M 140.28125 62.191406 C 139.210938 64.070312 137.191406 65.34375 134.875 65.339844 C 132.554688 65.34375 130.539062 64.070312 129.464844 62.191406 L 128.507812 62.738281 C 129.761719 64.953125 132.144531 66.449219 134.875 66.449219 C 137.601562 66.449219 139.984375 64.953125 141.242188 62.738281 L 140.28125 62.191406 " fill-opacity="1" fill-rule="nonzero"/><path fill="#1a2523" d="M 129.464844 75.527344 C 130.539062 73.644531 132.554688 72.371094 134.875 72.375 C 137.191406 72.371094 139.210938 73.644531 140.28125 75.527344 L 141.242188 74.980469 C 139.984375 72.765625 137.601562 71.265625 134.875 71.265625 C 132.144531 71.265625 129.761719 72.765625 128.507812 74.980469 L 129.464844 75.527344 " fill-opacity="1" fill-rule="nonzero"/><g clip-path="url(#id2)"><path fill="#1a2523" d="M 36 14.121094 L 36 13.433594 L 39.457031 11.960938 L 39.457031 12.726562 L 36.777344 13.777344 L 39.457031 14.828125 L 39.457031 15.59375 L 36 14.121094 " fill-opacity="1" fill-rule="nonzero"/></g><g clip-path="url(#id3)"><path fill="#1a2523" d="M 42.140625 16.300781 L 42.140625 14.058594 C 42.140625 13.511719 41.957031 13.34375 41.523438 13.34375 C 41.046875 13.34375 40.78125 13.742188 40.78125 14.226562 L 40.78125 16.300781 L 39.828125 16.300781 L 39.828125 11.359375 L 40.78125 11.359375 L 40.78125 13.152344 C 40.921875 12.828125 41.359375 12.585938 41.847656 12.585938 C 42.585938 12.585938 43.101562 13.019531 43.101562 13.742188 L 43.101562 16.300781 L 42.140625 16.300781 " fill-opacity="1" fill-rule="nonzero"/></g><g clip-path="url(#id4)"><path fill="#1a2523" d="M 45.53125 13.917969 L 46.421875 13.917969 L 46.421875 14.945312 C 46.421875 15.710938 45.980469 16.394531 44.960938 16.394531 C 43.902344 16.394531 43.484375 15.71875 43.484375 14.941406 L 43.484375 11.703125 L 44.421875 11.703125 L 44.421875 12.683594 L 46.421875 12.683594 L 46.421875 13.359375 L 44.421875 13.359375 L 44.421875 14.84375 C 44.421875 15.300781 44.585938 15.566406 44.976562 15.566406 C 45.355469 15.566406 45.53125 15.308594 45.53125 14.859375 L 45.53125 13.917969 " fill-opacity="1" fill-rule="nonzero"/></g><path fill="#1a2523" d="M 51.003906 16.300781 L 51.003906 14.109375 C 51.003906 13.675781 50.777344 13.367188 50.4375 13.367188 C 50.085938 13.367188 49.828125 13.699219 49.828125 14.140625 L 49.828125 16.300781 L 48.875 16.300781 L 48.875 14.121094 C 48.875 13.542969 48.71875 13.394531 48.300781 13.394531 C 47.921875 13.394531 47.722656 13.632812 47.722656 14.101562 L 47.722656 16.300781 L 46.765625 16.300781 L 46.765625 12.683594 L 47.664062 12.683594 L 47.664062 13.210938 C 47.90625 12.734375 48.242188 12.585938 48.71875 12.585938 C 49.210938 12.585938 49.449219 12.742188 49.726562 13.160156 C 49.921875 12.765625 50.246094 12.585938 50.703125 12.585938 C 51.429688 12.585938 51.933594 13.117188 51.933594 13.792969 L 51.933594 16.300781 L 51.003906 16.300781 " fill-opacity="1" fill-rule="nonzero"/><g clip-path="url(#id5)"><path fill="#1a2523" d="M 52.320312 16.300781 L 52.320312 11.359375 L 53.273438 11.359375 L 53.273438 16.300781 L 52.320312 16.300781 " fill-opacity="1" fill-rule="nonzero"/></g><g clip-path="url(#id6)"><path fill="#1a2523" d="M 53.625 15.59375 L 53.625 14.828125 L 56.308594 13.777344 L 53.625 12.726562 L 53.625 11.960938 L 57.085938 13.433594 L 57.085938 14.121094 L 53.625 15.59375 " fill-opacity="1" fill-rule="nonzero"/></g><g clip-path="url(#id7)"><path fill="#1a2523" d="M 89.351562 14.085938 L 89.351562 13.394531 L 92.8125 11.925781 L 92.8125 12.691406 L 90.132812 13.742188 L 92.8125 14.792969 L 92.8125 15.558594 L 89.351562 14.085938 " fill-opacity="1" fill-rule="nonzero"/></g><g clip-path="url(#id8)"><path fill="#1a2523" d="M 95.492188 16.265625 L 95.492188 14.019531 C 95.492188 13.476562 95.308594 13.308594 94.875 13.308594 C 94.398438 13.308594 94.132812 13.703125 94.132812 14.191406 L 94.132812 16.265625 L 93.179688 16.265625 L 93.179688 11.320312 L 94.132812 11.320312 L 94.132812 13.117188 C 94.273438 12.792969 94.714844 12.550781 95.199219 12.550781 C 95.941406 12.550781 96.453125 12.984375 96.453125 13.703125 L 96.453125 16.265625 L 95.492188 16.265625 " fill-opacity="1" fill-rule="nonzero"/></g><g clip-path="url(#id9)"><path fill="#1a2523" d="M 98.882812 13.878906 L 99.773438 13.878906 L 99.773438 14.910156 C 99.773438 15.675781 99.332031 16.359375 98.3125 16.359375 C 97.253906 16.359375 96.835938 15.683594 96.835938 14.902344 L 96.835938 11.667969 L 97.777344 11.667969 L 97.777344 12.644531 L 99.773438 12.644531 L 99.773438 13.320312 L 97.777344 13.320312 L 97.777344 14.808594 C 97.777344 15.265625 97.9375 15.527344 98.328125 15.527344 C 98.710938 15.527344 98.882812 15.269531 98.882812 14.820312 L 98.882812 13.878906 " fill-opacity="1" fill-rule="nonzero"/></g><path fill="#1a2523" d="M 104.355469 16.265625 L 104.355469 14.074219 C 104.355469 13.636719 104.128906 13.332031 103.792969 13.332031 C 103.4375 13.332031 103.179688 13.660156 103.179688 14.101562 L 103.179688 16.265625 L 102.226562 16.265625 L 102.226562 14.085938 C 102.226562 13.507812 102.074219 13.359375 101.65625 13.359375 C 101.273438 13.359375 101.074219 13.59375 101.074219 14.066406 L 101.074219 16.265625 L 100.121094 16.265625 L 100.121094 12.644531 L 101.015625 12.644531 L 101.015625 13.175781 C 101.257812 12.699219 101.59375 12.550781 102.074219 12.550781 C 102.566406 12.550781 102.800781 12.703125 103.078125 13.125 C 103.277344 12.726562 103.601562 12.550781 104.054688 12.550781 C 104.78125 12.550781 105.289062 13.078125 105.289062 13.757812 L 105.289062 16.265625 L 104.355469 16.265625 " fill-opacity="1" fill-rule="nonzero"/><g clip-path="url(#id10)"><path fill="#1a2523" d="M 105.671875 16.265625 L 105.671875 11.320312 L 106.625 11.320312 L 106.625 16.265625 L 105.671875 16.265625 " fill-opacity="1" fill-rule="nonzero"/></g><g clip-path="url(#id11)"><path fill="#1a2523" d="M 107.015625 14.34375 L 107.117188 11.378906 L 110.121094 11.378906 L 110.121094 12.191406 L 107.972656 12.191406 L 107.925781 13.5 C 108.183594 13.226562 108.535156 13.152344 108.894531 13.152344 C 109.6875 13.152344 110.304688 13.710938 110.304688 14.6875 C 110.304688 15.742188 109.613281 16.433594 108.625 16.433594 C 107.734375 16.433594 107.039062 15.84375 107 15.007812 L 107.957031 15.007812 C 107.992188 15.410156 108.242188 15.652344 108.625 15.652344 C 109.152344 15.652344 109.351562 15.285156 109.351562 14.734375 C 109.351562 14.226562 109.132812 13.925781 108.683594 13.925781 C 108.339844 13.925781 108.132812 14.074219 108 14.34375 L 107.015625 14.34375 " fill-opacity="1" fill-rule="nonzero"/></g><g clip-path="url(#id12)"><path fill="#1a2523" d="M 110.539062 15.558594 L 110.539062 14.792969 L 113.222656 13.742188 L 110.539062 12.691406 L 110.539062 11.925781 L 114 13.394531 L 114 14.085938 L 110.539062 15.558594 " fill-opacity="1" fill-rule="nonzero"/></g><path fill="#1a2523" d="M 130.03125 39.753906 L 130.03125 39.203125 L 132.785156 38.03125 L 132.785156 38.640625 L 130.648438 39.476562 L 132.785156 40.316406 L 132.785156 40.925781 L 130.03125 39.753906 " fill-opacity="1" fill-rule="nonzero"/><path fill="#1a2523" d="M 134.808594 39.476562 C 134.773438 39.214844 134.621094 39.097656 134.296875 39.097656 C 133.984375 39.097656 133.820312 39.160156 133.820312 39.34375 C 133.820312 39.5 133.984375 39.582031 134.289062 39.664062 C 135.296875 39.941406 135.621094 39.992188 135.621094 40.667969 C 135.621094 41.183594 135.183594 41.5625 134.347656 41.5625 C 133.523438 41.5625 132.988281 41.171875 132.976562 40.5625 L 133.761719 40.5625 C 133.761719 40.832031 134.003906 40.988281 134.339844 40.988281 C 134.628906 40.988281 134.867188 40.902344 134.867188 40.714844 C 134.867188 40.503906 134.714844 40.433594 134.40625 40.363281 C 133.289062 40.117188 133.082031 39.828125 133.082031 39.34375 C 133.082031 38.910156 133.417969 38.53125 134.316406 38.53125 C 135.140625 38.53125 135.503906 38.886719 135.539062 39.476562 L 134.808594 39.476562 " fill-opacity="1" fill-rule="nonzero"/><path fill="#1a2523" d="M 138.402344 40.445312 C 138.320312 41.113281 137.773438 41.5625 137.078125 41.5625 C 136.296875 41.5625 135.757812 41.042969 135.757812 40.011719 C 135.757812 38.980469 136.296875 38.53125 137.101562 38.53125 C 137.851562 38.53125 138.359375 38.957031 138.40625 39.636719 L 137.640625 39.636719 C 137.597656 39.339844 137.382812 39.160156 137.097656 39.160156 C 136.773438 39.160156 136.511719 39.367188 136.511719 39.992188 C 136.511719 40.621094 136.773438 40.925781 137.074219 40.925781 C 137.371094 40.925781 137.605469 40.753906 137.636719 40.445312 L 138.402344 40.445312 " fill-opacity="1" fill-rule="nonzero"/><path fill="#1a2523" d="M 138.59375 41.488281 L 138.59375 38.605469 L 139.308594 38.605469 L 139.308594 38.949219 C 139.558594 38.5625 139.851562 38.53125 140.160156 38.53125 L 140.261719 38.53125 L 140.261719 39.308594 C 140.191406 39.296875 140.121094 39.289062 140.050781 39.289062 C 139.582031 39.289062 139.355469 39.527344 139.355469 39.988281 L 139.355469 41.488281 L 138.59375 41.488281 " fill-opacity="1" fill-rule="nonzero"/><path fill="#1a2523" d="M 140.457031 41.488281 L 140.457031 38.605469 L 141.214844 38.605469 L 141.214844 41.488281 Z M 140.457031 38.257812 L 140.457031 37.550781 L 141.214844 37.550781 L 141.214844 38.257812 L 140.457031 38.257812 " fill-opacity="1" fill-rule="nonzero"/><path fill="#1a2523" d="M 143.550781 40.023438 C 143.550781 39.507812 143.28125 39.148438 142.898438 39.148438 C 142.539062 39.148438 142.257812 39.488281 142.257812 39.976562 C 142.257812 40.605469 142.472656 40.914062 142.894531 40.914062 C 143.339844 40.914062 143.550781 40.613281 143.550781 40.023438 Z M 141.539062 42.851562 L 141.539062 38.605469 L 142.269531 38.605469 L 142.273438 38.957031 C 142.457031 38.664062 142.722656 38.53125 143.074219 38.53125 C 143.800781 38.53125 144.320312 39.101562 144.320312 40.074219 C 144.320312 40.949219 143.882812 41.5625 143.140625 41.5625 C 142.785156 41.5625 142.503906 41.417969 142.285156 41.113281 L 142.285156 42.851562 L 141.539062 42.851562 " fill-opacity="1" fill-rule="nonzero"/><path fill="#1a2523" d="M 146.199219 39.589844 L 146.90625 39.589844 L 146.90625 40.410156 C 146.90625 41.019531 146.554688 41.5625 145.742188 41.5625 C 144.902344 41.5625 144.566406 41.023438 144.566406 40.402344 L 144.566406 37.828125 L 145.316406 37.828125 L 145.316406 38.605469 L 146.90625 38.605469 L 146.90625 39.144531 L 145.316406 39.144531 L 145.316406 40.328125 C 145.316406 40.691406 145.445312 40.902344 145.753906 40.902344 C 146.058594 40.902344 146.199219 40.695312 146.199219 40.339844 L 146.199219 39.589844 " fill-opacity="1" fill-rule="nonzero"/><path fill="#1a2523" d="M 147.164062 40.925781 L 147.164062 40.316406 L 149.300781 39.476562 L 147.164062 38.640625 L 147.164062 38.03125 L 149.917969 39.203125 L 149.917969 39.753906 L 147.164062 40.925781 " fill-opacity="1" fill-rule="nonzero"/><path fill="#1a2523" d="M 0.0820312 39.753906 L 0.0820312 39.203125 L 2.835938 38.03125 L 2.835938 38.640625 L 0.699219 39.476562 L 2.835938 40.316406 L 2.835938 40.925781 L 0.0820312 39.753906 " fill-opacity="1" fill-rule="nonzero"/><path fill="#1a2523" d="M 5.140625 40.023438 C 5.140625 39.507812 4.871094 39.148438 4.492188 39.148438 C 4.128906 39.148438 3.847656 39.488281 3.847656 39.976562 C 3.847656 40.605469 4.0625 40.914062 4.484375 40.914062 C 4.929688 40.914062 5.140625 40.613281 5.140625 40.023438 Z M 3.128906 42.851562 L 3.128906 38.605469 L 3.859375 38.605469 L 3.863281 38.957031 C 4.046875 38.664062 4.316406 38.53125 4.667969 38.53125 C 5.390625 38.53125 5.914062 39.101562 5.914062 40.074219 C 5.914062 40.949219 5.472656 41.5625 4.730469 41.5625 C 4.375 41.5625 4.09375 41.417969 3.878906 41.113281 L 3.878906 42.851562 L 3.128906 42.851562 " fill-opacity="1" fill-rule="nonzero"/><path fill="#1a2523" d="M 8 41.488281 L 8 39.699219 C 8 39.265625 7.855469 39.132812 7.511719 39.132812 C 7.128906 39.132812 6.917969 39.449219 6.917969 39.835938 L 6.917969 41.488281 L 6.160156 41.488281 L 6.160156 37.550781 L 6.917969 37.550781 L 6.917969 38.980469 C 7.03125 38.722656 7.378906 38.53125 7.765625 38.53125 C 8.355469 38.53125 8.765625 38.875 8.765625 39.449219 L 8.765625 41.488281 L 8 41.488281 " fill-opacity="1" fill-rule="nonzero"/><path fill="#1a2523" d="M 11.085938 40.023438 C 11.085938 39.507812 10.816406 39.148438 10.433594 39.148438 C 10.070312 39.148438 9.792969 39.488281 9.792969 39.976562 C 9.792969 40.605469 10.007812 40.914062 10.429688 40.914062 C 10.875 40.914062 11.085938 40.613281 11.085938 40.023438 Z M 9.074219 42.851562 L 9.074219 38.605469 L 9.800781 38.605469 L 9.808594 38.957031 C 9.992188 38.664062 10.257812 38.53125 10.609375 38.53125 C 11.335938 38.53125 11.855469 39.101562 11.855469 40.074219 C 11.855469 40.949219 11.417969 41.5625 10.675781 41.5625 C 10.316406 41.5625 10.035156 41.417969 9.820312 41.113281 L 9.820312 42.851562 L 9.074219 42.851562 " fill-opacity="1" fill-rule="nonzero"/><path fill="#1a2523" d="M 12.085938 40.925781 L 12.085938 40.316406 L 14.21875 39.476562 L 12.085938 38.640625 L 12.085938 38.03125 L 14.839844 39.203125 L 14.839844 39.753906 L 12.085938 40.925781 " fill-opacity="1" fill-rule="nonzero"/><path fill="#1a2523" d="M 133.117188 92.738281 L 133.117188 92.1875 L 135.871094 91.015625 L 135.871094 91.625 L 133.738281 92.460938 L 135.871094 93.300781 L 135.871094 93.910156 L 133.117188 92.738281 " fill-opacity="1" fill-rule="nonzero"/><path fill="#1a2523" d="M 138.175781 93.007812 C 138.175781 92.492188 137.910156 92.132812 137.527344 92.132812 C 137.164062 92.132812 136.886719 92.472656 136.886719 92.960938 C 136.886719 93.585938 137.101562 93.898438 137.523438 93.898438 C 137.964844 93.898438 138.175781 93.597656 138.175781 93.007812 Z M 136.164062 95.835938 L 136.164062 91.589844 L 136.898438 91.589844 L 136.902344 91.941406 C 137.082031 91.648438 137.351562 91.511719 137.703125 91.511719 C 138.429688 91.511719 138.949219 92.085938 138.949219 93.058594 C 138.949219 93.933594 138.511719 94.546875 137.765625 94.546875 C 137.410156 94.546875 137.132812 94.402344 136.914062 94.097656 L 136.914062 95.835938 L 136.164062 95.835938 " fill-opacity="1" fill-rule="nonzero"/><path fill="#1a2523" d="M 141.039062 94.472656 L 141.039062 92.6875 C 141.039062 92.25 140.894531 92.117188 140.546875 92.117188 C 140.167969 92.117188 139.957031 92.433594 139.957031 92.820312 L 139.957031 94.472656 L 139.195312 94.472656 L 139.195312 90.535156 L 139.957031 90.535156 L 139.957031 91.964844 C 140.066406 91.707031 140.417969 91.511719 140.804688 91.511719 C 141.394531 91.511719 141.804688 91.859375 141.804688 92.433594 L 141.804688 94.472656 L 141.039062 94.472656 " fill-opacity="1" fill-rule="nonzero"/><path fill="#1a2523" d="M 144.121094 93.007812 C 144.121094 92.492188 143.851562 92.132812 143.472656 92.132812 C 143.109375 92.132812 142.828125 92.472656 142.828125 92.960938 C 142.828125 93.585938 143.046875 93.898438 143.46875 93.898438 C 143.910156 93.898438 144.121094 93.597656 144.121094 93.007812 Z M 142.109375 95.835938 L 142.109375 91.589844 L 142.839844 91.589844 L 142.84375 91.941406 C 143.027344 91.648438 143.296875 91.511719 143.648438 91.511719 C 144.375 91.511719 144.894531 92.085938 144.894531 93.058594 C 144.894531 93.933594 144.453125 94.546875 143.710938 94.546875 C 143.355469 94.546875 143.074219 94.402344 142.859375 94.097656 L 142.859375 95.835938 L 142.109375 95.835938 " fill-opacity="1" fill-rule="nonzero"/><path fill="#1a2523" d="M 145.121094 93.910156 L 145.121094 93.300781 L 147.253906 92.460938 L 145.121094 91.625 L 145.121094 91.015625 L 147.878906 92.1875 L 147.878906 92.738281 L 145.121094 93.910156 " fill-opacity="1" fill-rule="nonzero"/><path fill="#1a2523" d="M 2.125 93.382812 L 2.125 92.832031 L 4.878906 91.660156 L 4.878906 92.269531 L 2.742188 93.105469 L 4.878906 93.945312 L 4.878906 94.554688 L 2.125 93.382812 " fill-opacity="1" fill-rule="nonzero"/><path fill="#1a2523" d="M 7.175781 93.746094 C 7.175781 93.117188 6.960938 92.808594 6.539062 92.808594 C 6.09375 92.808594 5.886719 93.105469 5.886719 93.699219 C 5.886719 94.214844 6.152344 94.570312 6.535156 94.570312 C 6.898438 94.570312 7.175781 94.230469 7.175781 93.746094 Z M 7.164062 95.117188 L 7.160156 94.765625 C 6.980469 95.058594 6.710938 95.191406 6.359375 95.191406 C 5.632812 95.191406 5.113281 94.617188 5.113281 93.644531 C 5.113281 92.773438 5.550781 92.15625 6.292969 92.15625 C 6.652344 92.15625 6.929688 92.304688 7.148438 92.609375 L 7.148438 91.179688 L 7.898438 91.179688 L 7.898438 95.117188 L 7.164062 95.117188 " fill-opacity="1" fill-rule="nonzero"/><path fill="#1a2523" d="M 8.21875 95.117188 L 8.21875 92.234375 L 8.980469 92.234375 L 8.980469 95.117188 Z M 8.21875 91.886719 L 8.21875 91.179688 L 8.980469 91.179688 L 8.980469 91.886719 L 8.21875 91.886719 " fill-opacity="1" fill-rule="nonzero"/><path fill="#1a2523" d="M 10.195312 95.117188 L 9.167969 92.234375 L 10.015625 92.234375 L 10.617188 94.136719 L 11.226562 92.234375 L 12.027344 92.234375 L 10.992188 95.117188 L 10.195312 95.117188 " fill-opacity="1" fill-rule="nonzero"/><path fill="#1a2523" d="M 12.183594 94.554688 L 12.183594 93.945312 L 14.320312 93.105469 L 12.183594 92.269531 L 12.183594 91.660156 L 14.9375 92.832031 L 14.9375 93.382812 L 12.183594 94.554688 " fill-opacity="1" fill-rule="nonzero"/></svg>