<svg xmlns="http://www.w3.org/2000/svg" xmlns:xlink="http://www.w3.org/1999/xlink" width="200" zoomAndPan="magnify" viewBox="0 0 150 149.999998" height="200" preserveAspectRatio="xMidYMid meet" version="1.0"><path fill="#b54e37" d="M 133.546875 118.996094 C 127.542969 117.804688 105.335938 117.359375 105.335938 117.359375 C 105.335938 117.359375 108.753906 108.324219 111.25 97.53125 C 113.777344 86.710938 111.847656 85.167969 111.25 80.738281 C 110.65625 76.308594 110.746094 78.597656 112.945312 71.253906 C 115.175781 63.910156 108.664062 58.738281 108.664062 58.738281 C 105.632812 55.113281 93.117188 49.941406 90.234375 48.664062 C 87.351562 47.414062 85.804688 43.488281 85.804688 43.488281 C 85.597656 25.503906 78.226562 12.632812 78.226562 12.632812 C 76.351562 8.652344 72.992188 5.320312 71.328125 2.675781 C 69.664062 0 67.285156 1.25 66.335938 1.695312 C 65.382812 2.140625 61.191406 4.609375 57.65625 6.332031 C 54.117188 8.054688 38.75 17.925781 38.75 17.925781 C 36.132812 19.796875 29.710938 22.949219 29.710938 22.949219 C 28.820312 23.394531 22.667969 27.4375 21.773438 28.179688 C 20.882812 28.925781 19.695312 29.964844 19.070312 31.035156 C 18.414062 32.132812 15.917969 34.75 15.265625 35.316406 C 14.609375 35.910156 12.707031 37.484375 11.964844 38.910156 C 11.222656 40.339844 13.925781 40.160156 13.925781 40.160156 C 12.796875 41.648438 11.847656 41.882812 10.566406 44.113281 C 9.289062 46.34375 12.5 45.691406 12.5 45.691406 C 12.5 45.691406 12.203125 45.925781 11.757812 46.730469 C 11.3125 47.53125 12.261719 48.214844 12.855469 48.425781 C 13.453125 48.632812 15.472656 47.53125 15.472656 47.53125 C 14.730469 48.574219 15.472656 49.199219 15.472656 49.199219 C 16.898438 49.792969 18.773438 47.710938 18.773438 47.710938 C 18.773438 47.710938 17.851562 51.011719 17.492188 53.238281 C 17.136719 55.46875 16.246094 59.15625 15.652344 66.648438 C 15.054688 74.136719 14.609375 79.460938 14.609375 79.460938 C 14.074219 86.710938 2.75 123.066406 2.75 123.066406 C 0.015625 132.757812 2.957031 143.132812 7.121094 144.976562 C 11.25 146.820312 35.328125 146.164062 35.328125 146.164062 C 55.515625 146.847656 74.894531 140.457031 74.894531 140.457031 C 80.542969 142.449219 84.765625 142.566406 84.765625 142.566406 C 84.765625 142.566406 84.261719 144.234375 85.480469 145.988281 C 86.699219 147.742188 89.3125 146.285156 89.3125 146.285156 C 90.175781 147.980469 92.136719 146.460938 92.136719 146.460938 C 93.027344 148.097656 94.992188 147.027344 94.992188 147.027344 C 96.746094 148.363281 97.902344 146.402344 97.902344 146.402344 C 98.558594 147.59375 99.984375 147.621094 99.984375 147.621094 C 102.691406 148.039062 102.75 144.855469 102.75 144.855469 C 102.75 144.855469 116.957031 143.222656 122.429688 143.015625 C 127.898438 142.804688 134.558594 141.617188 134.558594 141.617188 C 138.332031 140.070312 143.148438 138.050781 144.695312 130.082031 C 146.300781 122.027344 139.550781 120.183594 133.546875 118.996094 Z M 78.136719 102.792969 C 78.136719 102.792969 70.882812 104.90625 67.878906 105.707031 C 64.878906 106.511719 58.960938 109.691406 55.929688 116.320312 C 55.929688 116.320312 53.164062 116.972656 50.015625 118.429688 C 46.863281 119.917969 39.640625 119.679688 34.882812 121.046875 C 30.128906 122.414062 24.359375 123.511719 23.527344 123.574219 C 23.527344 123.574219 26.054688 117.835938 25.402344 110.195312 C 24.746094 102.554688 26.085938 86.503906 26.085938 86.503906 C 26.085938 86.503906 25.578125 79.933594 28.253906 77.855469 C 30.929688 75.773438 34.4375 76.039062 35.0625 72.027344 C 35.0625 72.027344 34.972656 68.667969 32.59375 65.605469 C 30.21875 62.542969 28.464844 59.929688 27.601562 54.074219 C 26.769531 48.1875 27.542969 49.078125 26.945312 47.769531 C 26.945312 47.769531 27.691406 45.453125 26.261719 44.769531 C 26.261719 44.769531 26.648438 44.085938 26.648438 43.519531 C 26.648438 43.519531 27.394531 41.199219 28.226562 40.816406 C 28.226562 40.816406 29.800781 40.726562 30.929688 38.882812 C 32.058594 37.070312 34.882812 33.117188 35.65625 31.984375 C 35.65625 31.984375 43.742188 25.265625 50.253906 22.621094 C 50.253906 22.621094 55.632812 21.285156 57.742188 20.75 C 59.855469 20.214844 64.105469 18.726562 64.105469 18.726562 C 64.105469 18.726562 65.085938 24.703125 65.738281 25.980469 C 66.394531 27.257812 66.214844 30.261719 66.214844 30.261719 C 66.214844 30.261719 65.589844 29.132812 65.652344 28.003906 C 65.710938 26.871094 64.519531 24.257812 61.757812 25.03125 C 58.992188 25.800781 59.140625 25.566406 58.457031 25.355469 C 58.457031 25.355469 57.445312 24.644531 56.910156 26.21875 C 56.910156 26.21875 55.515625 25.328125 54.800781 26.308594 C 54.117188 27.289062 53.671875 27.40625 53.671875 27.40625 C 53.671875 27.40625 52.660156 25.714844 51.351562 26.128906 C 50.042969 26.546875 50.28125 27.644531 48.945312 29.042969 C 47.605469 30.441406 47.964844 30.765625 46.386719 31.300781 C 46.386719 31.300781 46.03125 31.363281 44.277344 31.511719 C 42.554688 31.628906 38.390625 34.394531 37.855469 35.078125 C 37.855469 35.078125 35.597656 37.394531 34.945312 40.753906 C 34.945312 40.753906 32.980469 59.097656 45.527344 62.097656 C 58.070312 65.101562 66.214844 54.488281 66.214844 54.488281 C 66.214844 54.488281 66.691406 65.695312 71.863281 68.460938 C 71.863281 68.460938 72.398438 68.101562 73.261719 72.503906 C 74.125 76.902344 80.484375 84.929688 81.226562 91.4375 C 82.03125 97.917969 79.472656 101.871094 78.136719 102.792969 Z M 78.136719 102.792969 " fill-opacity="1" fill-rule="nonzero"/><path fill="#722817" d="M 34.410156 41.113281 C 35.628906 39.507812 37.765625 38.761719 39.789062 38.851562 C 41.808594 38.941406 43.710938 39.773438 45.4375 40.84375 C 46.386719 41.4375 47.398438 42.121094 48.5 42.0625 C 50.222656 42.003906 51.382812 40.339844 52.808594 39.359375 C 53.820312 38.644531 55.039062 38.257812 56.257812 38.257812 C 56.019531 39.832031 54.980469 41.113281 54.355469 42.570312 C 53.761719 43.964844 53.582031 45.601562 54.207031 46.996094 C 54.832031 48.394531 56.375 49.375 57.863281 49.078125 C 58.695312 48.898438 59.410156 48.363281 60.152344 47.949219 C 61.578125 47.117188 63.628906 46.671875 64.671875 47.917969 C 65.117188 48.453125 65.265625 49.136719 65.382812 49.820312 C 65.589844 50.863281 65.800781 51.933594 65.679688 53.003906 C 65.53125 54.191406 64.96875 55.292969 64.699219 56.480469 C 64.222656 58.5625 64.671875 60.730469 64.402344 62.871094 C 64.222656 64.210938 63.777344 65.488281 63.066406 66.648438 C 62.617188 67.390625 62.023438 68.074219 61.28125 68.519531 C 59.792969 69.410156 57.953125 69.261719 56.226562 69.054688 C 49.867188 68.3125 43.238281 67.507812 37.796875 64.089844 C 36.371094 63.199219 35.0625 62.128906 34.023438 60.789062 C 32.058594 58.234375 32 54.816406 31.464844 51.636719 C 30.960938 48.453125 31.941406 44.261719 34.410156 41.113281 " fill-opacity="1" fill-rule="nonzero"/><path fill="#722817" d="M 34.496094 41.199219 C 36.191406 39.238281 38.777344 38.734375 41.214844 39.296875 C 43.414062 39.804688 45.019531 41.230469 47.042969 42.035156 C 48.410156 42.570312 49.597656 42.269531 50.757812 41.4375 C 52.601562 40.070312 53.789062 38.644531 56.289062 38.554688 C 56.199219 38.464844 56.136719 38.347656 56.050781 38.257812 C 55.542969 40.875 53.34375 42.835938 53.640625 45.660156 C 53.847656 47.621094 55.394531 49.523438 57.507812 49.433594 C 59.824219 49.347656 63.71875 45.035156 65.054688 49.136719 C 65.589844 50.773438 65.769531 52.617188 65.265625 54.28125 C 64.820312 55.765625 64.402344 57.074219 64.34375 58.652344 C 64.253906 61.980469 64.582031 66.347656 61.222656 68.371094 C 59.882812 69.171875 58.21875 69.054688 56.734375 68.90625 C 54.980469 68.726562 53.253906 68.488281 51.53125 68.253906 C 45.554688 67.390625 38.152344 65.785156 34.289062 60.671875 C 32.296875 58.027344 31.882812 53.925781 31.644531 50.683594 C 31.375 47.324219 32.59375 43.9375 34.617188 41.261719 C 34.824219 40.992188 34.378906 40.726562 34.171875 40.992188 C 32.386719 43.371094 31.257812 46.226562 31.136719 49.226562 C 31.078125 50.503906 31.289062 51.695312 31.464844 52.941406 C 31.703125 54.609375 31.882812 56.300781 32.386719 57.9375 C 34.261719 64.0625 41.484375 66.707031 47.160156 67.925781 C 50.402344 68.636719 53.699219 69.054688 57 69.351562 C 59.855469 69.621094 62.113281 68.9375 63.539062 66.320312 C 65.265625 63.140625 64.195312 59.898438 64.9375 56.570312 C 65.292969 55.023438 66.039062 53.625 65.949219 51.992188 C 65.890625 50.714844 65.738281 48.898438 64.878906 47.859375 C 62.945312 45.480469 60.179688 48.15625 58.21875 48.78125 C 55.097656 49.792969 53.671875 46.074219 54.265625 43.636719 C 54.710938 41.765625 56.109375 40.28125 56.496094 38.347656 C 56.523438 38.199219 56.4375 38.019531 56.257812 38.050781 C 54.445312 38.109375 53.046875 38.792969 51.679688 39.980469 C 50.757812 40.785156 49.808594 41.824219 48.5 41.855469 C 47.011719 41.914062 45.703125 40.695312 44.457031 40.042969 C 41.1875 38.347656 36.875 37.902344 34.320312 41.050781 C 34.230469 41.171875 34.378906 41.320312 34.496094 41.199219 Z M 34.496094 41.199219 " fill-opacity="1" fill-rule="nonzero"/><path fill="#722817" d="M 58.339844 68.789062 C 57.832031 69.707031 58.101562 70.988281 58.960938 71.609375 C 59.289062 71.847656 59.707031 72.027344 59.945312 72.355469 C 60.328125 72.980469 59.914062 73.78125 59.914062 74.523438 C 59.945312 75.773438 61.28125 76.8125 61.011719 78.0625 C 60.925781 78.417969 60.6875 78.773438 60.628906 79.132812 C 60.539062 79.757812 60.925781 80.378906 60.863281 81.003906 C 60.835938 81.660156 60.359375 82.164062 60.003906 82.730469 C 59.140625 84.097656 59.023438 85.851562 59.644531 87.335938 C 60.003906 88.167969 60.597656 89 60.390625 89.863281 C 60.269531 90.367188 59.882812 90.785156 59.644531 91.230469 C 59.261719 91.914062 59.140625 92.71875 59.320312 93.460938 C 59.496094 94.203125 59.914062 94.917969 59.882812 95.691406 C 59.824219 96.699219 58.933594 97.59375 59.050781 98.601562 C 59.109375 99.046875 59.347656 99.433594 59.378906 99.851562 C 59.46875 100.773438 58.726562 101.574219 58.636719 102.46875 C 58.574219 102.941406 58.726562 103.449219 58.636719 103.925781 C 58.546875 104.457031 58.160156 104.90625 57.953125 105.378906 C 57.714844 105.855469 57.683594 106.539062 58.101562 106.867188 C 56.792969 107.222656 55.871094 108.5 55.601562 109.839844 C 55.335938 111.175781 55.574219 112.542969 55.902344 113.882812 C 56.167969 112.632812 57.683594 112.097656 58.308594 110.96875 C 58.605469 110.433594 58.664062 109.808594 58.785156 109.183594 C 59.082031 107.28125 59.707031 105.46875 60.597656 103.773438 C 60.804688 103.417969 61.015625 103.0625 61.132812 102.644531 C 61.371094 101.902344 61.339844 101.070312 61.699219 100.386719 C 62.113281 99.582031 63.09375 98.988281 63.066406 98.097656 C 63.066406 97.621094 62.765625 97.175781 62.765625 96.699219 C 62.796875 95.925781 63.539062 95.421875 63.75 94.679688 C 63.925781 93.996094 63.628906 93.28125 63.660156 92.566406 C 63.75 91.46875 64.671875 90.636719 64.878906 89.566406 C 65.054688 88.527344 64.519531 87.484375 64.609375 86.414062 C 64.699219 85.226562 65.589844 84.183594 65.5625 82.996094 C 65.53125 82.28125 65.175781 81.570312 65.234375 80.855469 C 65.324219 79.90625 66.15625 79.101562 66.15625 78.152344 C 66.15625 77.050781 65.117188 76.160156 65.207031 75.058594 C 65.234375 74.613281 65.472656 74.226562 65.5625 73.8125 C 65.800781 72.828125 65.292969 71.730469 64.433594 71.226562 C 64.195312 71.074219 63.898438 70.988281 63.6875 70.808594 C 63.453125 70.601562 63.363281 70.304688 63.214844 70.035156 C 62.707031 69.113281 61.785156 68.550781 60.894531 68.015625 " fill-opacity="1" fill-rule="nonzero"/><path fill="#722817" d="M 58.160156 68.699219 C 57.625 69.917969 57.980469 70.808594 58.84375 71.761719 C 59.496094 72.472656 59.792969 71.136719 59.882812 73.601562 C 59.882812 73.898438 59.734375 74.226562 59.765625 74.554688 C 59.792969 75.179688 60.09375 75.683594 60.359375 76.25 C 60.449219 76.425781 60.539062 76.605469 60.628906 76.753906 C 60.984375 77.40625 60.984375 78.03125 60.597656 78.6875 C 60.566406 78.835938 60.480469 78.984375 60.480469 79.132812 C 60.417969 80.261719 60.746094 81.242188 60.09375 82.28125 C 59.199219 83.710938 58.8125 85.253906 59.320312 86.921875 C 59.707031 88.167969 60.480469 89.03125 59.945312 90.457031 C 59.644531 91.230469 59.171875 91.617188 59.082031 92.507812 C 59.023438 93.371094 59.410156 94.023438 59.585938 94.855469 C 59.882812 96.253906 59.023438 96.878906 58.875 98.128906 C 58.84375 98.304688 58.84375 98.511719 58.875 98.691406 C 58.960938 99.554688 59.171875 100.179688 58.902344 101.101562 C 58.753906 101.574219 58.515625 101.960938 58.457031 102.4375 C 58.398438 102.792969 58.515625 103.121094 58.488281 103.476562 C 58.367188 104.726562 56.972656 105.914062 58.011719 107.105469 C 58.042969 106.957031 58.101562 106.777344 58.128906 106.628906 C 54.980469 107.730469 55.039062 111.296875 55.691406 114 C 55.78125 114.328125 56.226562 114.296875 56.316406 114 C 56.671875 112.84375 57.832031 112.394531 58.488281 111.472656 C 59.140625 110.523438 59.140625 109.363281 59.378906 108.265625 C 59.707031 106.746094 60.269531 105.320312 60.953125 103.953125 C 61.398438 103.089844 61.546875 102.320312 61.785156 101.367188 C 62.082031 100.265625 63.125 99.613281 63.390625 98.574219 C 63.511719 98.128906 63.363281 98.007812 63.363281 97.5625 C 63.332031 96.699219 63.300781 96.285156 63.75 95.539062 C 64.136719 94.855469 64.195312 94.410156 64.136719 93.578125 C 64.046875 92.332031 64.285156 91.882812 64.789062 90.875 C 64.996094 90.488281 65.175781 90.101562 65.265625 89.65625 C 65.53125 88.289062 64.789062 87.039062 65.175781 85.640625 C 65.414062 84.75 65.949219 83.976562 65.917969 82.996094 C 65.917969 82.519531 65.710938 82.105469 65.652344 81.628906 C 65.503906 80.527344 65.949219 80.023438 66.273438 79.101562 C 66.511719 78.449219 66.511719 77.882812 66.273438 77.230469 C 65.976562 76.335938 65.382812 75.773438 65.589844 74.734375 C 65.679688 74.316406 65.890625 73.960938 65.917969 73.542969 C 65.976562 72.828125 65.738281 72.117188 65.265625 71.582031 C 65.027344 71.3125 64.847656 71.226562 64.582031 71.015625 C 63.957031 70.539062 63.6875 70.15625 63.242188 69.53125 C 62.679688 68.757812 61.847656 68.28125 61.042969 67.804688 C 60.714844 67.628906 60.449219 68.101562 60.746094 68.3125 C 61.339844 68.667969 61.996094 69.054688 62.46875 69.558594 C 62.855469 70.007812 63.035156 70.570312 63.421875 70.988281 C 64.34375 71.9375 65.503906 72.117188 65.265625 73.75 C 65.144531 74.582031 64.789062 75.089844 65.027344 75.953125 C 65.144531 76.367188 65.414062 76.753906 65.589844 77.140625 C 65.949219 78.089844 65.769531 78.625 65.382812 79.546875 C 65.144531 80.171875 64.90625 80.679688 64.96875 81.363281 C 65.027344 82.222656 65.382812 82.878906 65.175781 83.769531 C 65.054688 84.214844 64.847656 84.601562 64.699219 85.019531 C 64.371094 85.910156 64.285156 86.59375 64.433594 87.515625 C 64.582031 88.496094 64.757812 89.238281 64.371094 90.160156 C 64.164062 90.664062 63.835938 91.082031 63.660156 91.585938 C 63.300781 92.507812 63.660156 93.164062 63.570312 94.113281 C 63.480469 95.09375 62.558594 95.691406 62.53125 96.640625 C 62.5 96.996094 62.738281 97.324219 62.765625 97.652344 C 62.855469 98.871094 62.203125 99.078125 61.726562 99.851562 C 61.191406 100.683594 61.222656 101.605469 60.925781 102.527344 C 60.566406 103.566406 59.914062 104.519531 59.527344 105.527344 C 59.082031 106.660156 58.785156 107.847656 58.574219 109.035156 C 58.339844 110.316406 57.953125 111.058594 57 111.949219 C 56.40625 112.515625 55.960938 112.960938 55.691406 113.734375 C 55.902344 113.734375 56.109375 113.734375 56.316406 113.734375 C 55.753906 111.386719 55.484375 108.117188 58.277344 107.105469 C 58.488281 107.015625 58.546875 106.777344 58.398438 106.628906 C 57.683594 105.828125 58.8125 104.757812 58.992188 103.953125 C 59.199219 102.941406 59.023438 102.230469 59.410156 101.21875 C 59.585938 100.683594 59.765625 100.296875 59.707031 99.734375 C 59.644531 99.046875 59.320312 98.484375 59.46875 97.769531 C 59.558594 97.324219 59.855469 96.96875 59.972656 96.550781 C 60.628906 94.621094 58.933594 93.074219 60.003906 91.113281 C 60.6875 89.894531 60.835938 89.328125 60.269531 87.960938 C 59.765625 86.742188 59.347656 85.789062 59.585938 84.453125 C 59.792969 83.324219 60.390625 82.699219 60.835938 81.746094 C 61.074219 81.242188 61.074219 80.914062 61.042969 80.410156 C 61.015625 79.667969 60.953125 79.132812 61.074219 78.390625 C 61.132812 78.089844 61.222656 77.941406 61.222656 77.617188 C 61.222656 77.140625 61.015625 76.722656 60.804688 76.308594 C 60.65625 76.011719 60.480469 75.742188 60.359375 75.445312 C 59.972656 74.523438 60.300781 74.019531 60.242188 73.15625 C 60.152344 71.285156 57.507812 71.046875 58.488281 68.816406 C 58.636719 68.667969 58.277344 68.429688 58.160156 68.699219 Z M 58.160156 68.699219 " fill-opacity="1" fill-rule="nonzero"/><path fill="#d6a72e" d="M 81.078125 94.472656 C 81.078125 94.472656 104.535156 103.863281 108.160156 110.226562 L 105.988281 117.035156 C 105.988281 117.035156 135.628906 115.785156 142.792969 121.996094 C 149.984375 128.210938 142.34375 138.140625 138.273438 140.28125 C 134.199219 142.417969 124.0625 143.699219 114.074219 144.171875 C 104.085938 144.648438 104.980469 145.035156 104.980469 145.035156 C 104.980469 145.035156 108.011719 138.347656 103.285156 134.273438 C 103.285156 134.273438 100.699219 132.9375 99.449219 132.816406 C 98.203125 132.699219 96.625 132.402344 95.199219 129.90625 C 95.199219 129.90625 94.097656 127.792969 91.542969 130.796875 C 88.988281 133.800781 87.738281 133.710938 87.589844 134.632812 C 87.441406 135.582031 87.054688 138.289062 86.460938 139.625 C 85.863281 140.964844 84.792969 142.539062 84.792969 142.539062 C 84.792969 142.539062 77.214844 142.449219 74.835938 140.933594 C 74.835938 140.933594 44.871094 150 9.289062 145.925781 C 9.289062 145.925781 1.085938 145.183594 1.441406 132.519531 C 1.796875 119.855469 5.574219 112.902344 7.148438 106.09375 C 7.148438 106.09375 14.285156 83.53125 14.640625 79.457031 C 14.640625 79.457031 25.3125 79.695312 26.53125 81.09375 C 26.53125 81.09375 25.3125 104.84375 25.667969 108.710938 C 25.667969 108.710938 26.261719 116.882812 25.28125 119.144531 C 24.300781 121.402344 24.183594 123.128906 24.183594 123.128906 C 24.183594 123.128906 33.25 121.105469 34.410156 120.808594 C 35.539062 120.511719 42.167969 119.707031 44.632812 119.171875 C 44.632812 119.171875 53.316406 117.566406 55.304688 116.199219 C 57.269531 114.832031 56.019531 111.535156 61.847656 108.117188 C 67.644531 104.695312 77.628906 102.4375 77.628906 102.4375 C 77.628906 102.4375 80.601562 100.566406 81.078125 94.472656 Z M 81.078125 94.472656 " fill-opacity="1" fill-rule="nonzero"/><path fill="#f2f0e5" d="M 68.5625 51.722656 C 68.5625 51.722656 66.574219 54.875 69.308594 62.070312 C 72.042969 69.261719 77.15625 73.574219 75.667969 78.625 C 75.667969 78.625 80.78125 87.21875 81.289062 91.410156 C 81.289062 91.410156 95.199219 94.738281 111.164062 79.933594 C 111.164062 79.933594 110.746094 77.855469 111.488281 76.753906 C 112.234375 75.652344 117.582031 66.140625 109.230469 58.679688 C 109.230469 58.679688 101.710938 51.871094 90.234375 48.664062 C 90.234375 48.664062 98.558594 58.085938 98.945312 62.1875 C 99.332031 66.289062 97.578125 70.777344 93.710938 71.820312 C 89.847656 72.859375 83.339844 71.3125 77.394531 65.933594 C 71.449219 60.554688 68.5625 57.550781 68.5625 51.722656 Z M 68.5625 51.722656 " fill-opacity="1" fill-rule="nonzero"/><path fill="#722817" d="M 46.507812 34.632812 C 45.941406 34.273438 45.378906 33.886719 45.019531 33.324219 C 44.871094 33.054688 44.695312 32.816406 44.546875 32.582031 C 44.367188 32.3125 44.277344 32.046875 44.128906 31.777344 C 43.921875 31.363281 43.179688 31.421875 43.089844 31.925781 C 42.910156 32.757812 43.683594 33.441406 44.21875 33.976562 C 44.84375 34.570312 45.527344 34.839844 46.386719 34.957031 C 46.566406 34.957031 46.65625 34.75 46.507812 34.632812 Z M 46.507812 34.632812 " fill-opacity="1" fill-rule="nonzero"/><path fill="#722817" d="M 49.390625 33.324219 C 49.570312 32.640625 49.597656 31.6875 49.125 31.125 C 49.003906 30.976562 48.796875 31.152344 48.824219 31.300781 C 48.886719 31.597656 49.035156 31.898438 49.0625 32.222656 C 49.125 32.582031 49.09375 32.90625 49.003906 33.265625 C 48.972656 33.441406 49.332031 33.5625 49.390625 33.324219 Z M 49.390625 33.324219 " fill-opacity="1" fill-rule="nonzero"/><path fill="#722817" d="M 47.933594 31.925781 C 47.992188 32.164062 48.023438 32.371094 48.054688 32.609375 C 48.054688 32.699219 48.203125 32.699219 48.230469 32.609375 C 48.289062 32.371094 48.261719 32.105469 48.203125 31.835938 C 48.140625 31.6875 47.875 31.777344 47.933594 31.925781 Z M 47.933594 31.925781 " fill-opacity="1" fill-rule="nonzero"/><path fill="#722817" d="M 52.71875 27.050781 C 52.898438 27.40625 53.136719 27.824219 53.492188 28.03125 C 53.582031 28.089844 53.699219 27.972656 53.640625 27.882812 C 53.402344 27.554688 53.164062 27.257812 52.988281 26.902344 C 52.898438 26.722656 52.628906 26.871094 52.71875 27.050781 Z M 52.71875 27.050781 " fill-opacity="1" fill-rule="nonzero"/><path fill="#722817" d="M 52.273438 28.863281 C 52.808594 29.011719 53.730469 29.160156 53.96875 28.507812 C 54 28.417969 53.878906 28.359375 53.789062 28.417969 C 53.34375 28.835938 52.867188 28.773438 52.332031 28.597656 C 52.183594 28.539062 52.097656 28.804688 52.273438 28.863281 Z M 52.273438 28.863281 " fill-opacity="1" fill-rule="nonzero"/><path fill="#7f4339" d="M 58.515625 25.238281 C 58.277344 24.941406 57.921875 24.820312 57.566406 24.941406 C 57.058594 25.117188 56.882812 25.59375 56.761719 26.070312 C 56.703125 26.277344 56.941406 26.398438 57.089844 26.335938 L 58.070312 28.179688 C 58.070312 28.210938 58.042969 28.269531 58.042969 28.300781 C 57.980469 28.417969 58.21875 28.507812 58.277344 28.390625 C 58.546875 27.855469 58.636719 27.257812 58.695312 26.664062 C 58.726562 26.25 58.8125 25.652344 58.515625 25.238281 Z M 58.515625 25.238281 " fill-opacity="1" fill-rule="nonzero"/><path fill="#722817" d="M 54.652344 44.382812 C 54.414062 45.777344 53.820312 48.128906 55.128906 49.199219 C 56.257812 50.148438 58.21875 49.644531 59.347656 49.019531 C 60.953125 48.128906 66.542969 42.210938 62.171875 41.617188 C 61.875 41.585938 61.726562 42.035156 62.054688 42.09375 C 64.34375 42.539062 62.796875 44.558594 62.113281 45.511719 C 61.3125 46.640625 60.359375 47.917969 59.140625 48.601562 C 57.832031 49.347656 55.601562 49.761719 54.859375 48.066406 C 54.382812 47.027344 54.710938 45.453125 54.832031 44.382812 C 54.832031 44.320312 54.683594 44.320312 54.652344 44.382812 Z M 54.652344 44.382812 " fill-opacity="1" fill-rule="nonzero"/><path fill="#722817" d="M 55.753906 45.601562 C 55.484375 46.820312 55.367188 48.246094 56.851562 48.574219 C 58.398438 48.898438 59.765625 47.742188 60.65625 46.640625 C 60.777344 46.492188 60.597656 46.285156 60.449219 46.433594 C 59.644531 47.175781 58.933594 48.039062 57.804688 48.277344 C 57.179688 48.425781 56.226562 48.304688 55.929688 47.621094 C 55.691406 47.085938 55.839844 46.226562 55.960938 45.660156 C 55.988281 45.511719 55.78125 45.453125 55.753906 45.601562 Z M 55.753906 45.601562 " fill-opacity="1" fill-rule="nonzero"/><path fill="#722817" d="M 57.148438 46.226562 C 58.21875 46.730469 59.855469 46.105469 60.65625 45.363281 C 60.804688 45.242188 60.628906 45.007812 60.449219 45.09375 C 59.617188 45.660156 58.308594 46.460938 57.238281 46.015625 C 57.121094 45.957031 57 46.136719 57.148438 46.226562 Z M 57.148438 46.226562 " fill-opacity="1" fill-rule="nonzero"/><path fill="#722817" d="M 58.785156 46.226562 C 58.960938 45.09375 59.320312 43.996094 60.507812 43.609375 C 60.714844 43.550781 60.628906 43.222656 60.417969 43.28125 C 59.082031 43.519531 58.664062 45.035156 58.546875 46.195312 C 58.515625 46.3125 58.753906 46.34375 58.785156 46.226562 Z M 58.785156 46.226562 " fill-opacity="1" fill-rule="nonzero"/><path fill="#722817" d="M 64.9375 29.28125 C 64.789062 32.28125 64.433594 35.402344 64.582031 38.40625 C 64.582031 38.527344 64.757812 38.527344 64.789062 38.40625 C 65.175781 35.402344 65.054688 32.28125 65.144531 29.28125 C 65.144531 29.132812 64.9375 29.132812 64.9375 29.28125 Z M 64.9375 29.28125 " fill-opacity="1" fill-rule="nonzero"/><path fill="#722817" d="M 64.074219 18.90625 C 65.890625 18.699219 66.125 22.265625 66.425781 23.515625 C 66.78125 25.058594 67.167969 26.605469 67.671875 28.121094 C 68.625 31.035156 69.457031 33.710938 68.949219 36.800781 C 68.179688 41.675781 67.582031 46.847656 68.503906 51.722656 C 68.503906 51.753906 68.59375 51.753906 68.5625 51.722656 C 68.238281 48.214844 68.238281 44.796875 68.625 41.320312 C 68.863281 39.210938 69.367188 37.097656 69.425781 34.988281 C 69.515625 31.480469 67.878906 28.328125 67.019531 25 C 66.542969 23.1875 66.363281 21.226562 65.769531 19.472656 C 65.472656 18.609375 64.9375 18.460938 64.046875 18.578125 C 63.867188 18.609375 63.867188 18.9375 64.074219 18.90625 Z M 64.074219 18.90625 " fill-opacity="1" fill-rule="nonzero"/><path fill="#722817" d="M 66.660156 30.976562 C 67.40625 32.3125 68.238281 33.5625 69.160156 34.78125 C 69.277344 34.929688 69.515625 34.78125 69.367188 34.601562 C 68.386719 33.441406 67.554688 32.195312 66.78125 30.886719 C 66.75 30.828125 66.632812 30.886719 66.660156 30.976562 Z M 66.660156 30.976562 " fill-opacity="1" fill-rule="nonzero"/><path fill="#722817" d="M 86.371094 46.761719 C 88.035156 49.851562 89.730469 52.941406 92.316406 55.351562 C 92.433594 55.441406 92.582031 55.292969 92.464844 55.203125 C 90.027344 52.675781 88.273438 49.671875 86.578125 46.640625 C 86.519531 46.492188 86.28125 46.640625 86.371094 46.761719 Z M 86.371094 46.761719 " fill-opacity="1" fill-rule="nonzero"/><path fill="#722817" d="M 105.871094 86.742188 C 108.664062 90.664062 109.527344 95.480469 108.605469 100.207031 C 108.546875 100.445312 108.933594 100.566406 108.992188 100.328125 C 110.179688 95.570312 109.023438 90.546875 106.109375 86.625 C 106.019531 86.472656 105.78125 86.59375 105.871094 86.742188 Z M 105.871094 86.742188 " fill-opacity="1" fill-rule="nonzero"/><path fill="#722817" d="M 85.925781 145.480469 C 85.449219 144.679688 86.222656 143.636719 87.144531 144.054688 C 87.828125 144.382812 87.917969 145.066406 88.273438 145.628906 C 88.332031 145.71875 88.511719 145.691406 88.511719 145.570312 C 88.390625 144.679688 87.648438 143.550781 86.636719 143.636719 C 85.65625 143.726562 85.210938 144.828125 85.6875 145.628906 C 85.746094 145.808594 86.042969 145.660156 85.925781 145.480469 Z M 85.925781 145.480469 " fill-opacity="1" fill-rule="nonzero"/><path fill="#722817" d="M 89.34375 145.390625 C 89.550781 144.707031 90.265625 144.261719 90.976562 144.441406 C 91.601562 144.621094 91.957031 145.183594 92.078125 145.777344 C 92.109375 145.957031 92.433594 145.925781 92.433594 145.71875 C 92.257812 143.847656 89.582031 143.371094 89.046875 145.273438 C 88.984375 145.511719 89.285156 145.570312 89.34375 145.390625 Z M 89.34375 145.390625 " fill-opacity="1" fill-rule="nonzero"/><path fill="#722817" d="M 92.761719 145.183594 C 93 144.855469 93.625 144.53125 94.011719 144.53125 C 94.484375 144.53125 94.722656 144.828125 94.992188 145.15625 C 95.109375 145.332031 95.4375 145.242188 95.347656 145.007812 C 94.929688 143.699219 93.027344 144.054688 92.433594 145.007812 C 92.34375 145.214844 92.644531 145.363281 92.761719 145.183594 Z M 92.761719 145.183594 " fill-opacity="1" fill-rule="nonzero"/><path fill="#722817" d="M 95.140625 145.925781 C 95.199219 145.183594 95.378906 144.320312 96.359375 144.410156 C 97.011719 144.472656 97.546875 144.855469 97.875 145.421875 C 97.992188 145.628906 98.289062 145.453125 98.171875 145.242188 C 97.785156 144.472656 96.921875 143.847656 96 143.996094 C 95.050781 144.171875 94.871094 145.09375 94.84375 145.898438 C 94.8125 146.136719 95.109375 146.136719 95.140625 145.925781 Z M 95.140625 145.925781 " fill-opacity="1" fill-rule="nonzero"/><path fill="#722817" d="M 98.289062 142.183594 C 99.035156 141.46875 100.164062 141.410156 101.027344 141.972656 C 101.886719 142.539062 102.304688 143.578125 102.453125 144.558594 C 102.480469 144.707031 102.71875 144.679688 102.691406 144.53125 C 102.570312 143.3125 102.066406 142.09375 100.875 141.527344 C 99.925781 141.113281 98.824219 141.261719 98.113281 142.003906 C 97.992188 142.121094 98.171875 142.300781 98.289062 142.183594 Z M 98.289062 142.183594 " fill-opacity="1" fill-rule="nonzero"/><path fill="#722817" d="M 88.660156 140.070312 C 89.878906 139.773438 90.503906 138.910156 91.363281 138.078125 C 93.296875 136.265625 95.941406 136.445312 97.519531 138.585938 C 97.667969 138.792969 97.992188 138.613281 97.875 138.375 C 97.011719 137.097656 95.585938 136.324219 94.039062 136.445312 C 91.511719 136.625 90.859375 139.238281 88.601562 139.832031 C 88.421875 139.863281 88.511719 140.101562 88.660156 140.070312 Z M 88.660156 140.070312 " fill-opacity="1" fill-rule="nonzero"/><path fill="#250d1c" d="M 12.054688 134.601562 C 15.414062 133.800781 18.386719 132.222656 20.941406 129.933594 C 22.902344 128.179688 24.0625 126.722656 23.945312 123.960938 C 23.914062 123.601562 23.351562 123.601562 23.378906 123.960938 C 23.558594 126.785156 22.21875 128.179688 20.257812 129.933594 C 17.910156 132.074219 15.054688 133.53125 11.996094 134.304688 C 11.757812 134.335938 11.847656 134.632812 12.054688 134.601562 Z M 12.054688 134.601562 " fill-opacity="1" fill-rule="nonzero"/><path fill="#250d1c" d="M 56.289062 116.347656 C 59.972656 116.707031 62.082031 119.320312 63.453125 122.503906 C 63.539062 122.679688 63.777344 122.53125 63.75 122.382812 C 63.125 118.90625 59.734375 116.199219 56.289062 116.082031 C 56.109375 116.082031 56.109375 116.320312 56.289062 116.347656 Z M 56.289062 116.347656 " fill-opacity="1" fill-rule="nonzero"/><path fill="#250d1c" d="M 56.792969 115.636719 C 58.84375 115.726562 60.835938 116.410156 62.558594 117.539062 C 64.285156 118.667969 65.265625 120.15625 66.632812 121.609375 C 66.722656 121.730469 66.957031 121.609375 66.898438 121.460938 C 65.414062 117.777344 60.597656 115.339844 56.792969 115.457031 C 56.671875 115.457031 56.671875 115.636719 56.792969 115.636719 Z M 56.792969 115.636719 " fill-opacity="1" fill-rule="nonzero"/><path fill="#250d1c" d="M 78.699219 103.390625 C 82.625 103.238281 86.757812 106.480469 89.046875 109.394531 C 89.253906 109.660156 89.671875 109.304688 89.492188 109.035156 C 88.300781 107.3125 86.667969 106.035156 84.914062 104.933594 C 83.011719 103.746094 80.988281 102.734375 78.699219 102.941406 C 78.402344 102.941406 78.402344 103.390625 78.699219 103.390625 Z M 78.699219 103.390625 " fill-opacity="1" fill-rule="nonzero"/><path fill="#250d1c" d="M 80.453125 100.714844 C 82.625 101.039062 84.675781 102.199219 86.488281 103.359375 C 88.183594 104.457031 89.847656 105.738281 91.097656 107.34375 C 91.246094 107.519531 91.484375 107.28125 91.394531 107.105469 C 90.414062 105.320312 88.421875 103.984375 86.757812 102.914062 C 84.882812 101.695312 82.742188 100.625 80.484375 100.417969 C 80.304688 100.386719 80.277344 100.683594 80.453125 100.714844 Z M 80.453125 100.714844 " fill-opacity="1" fill-rule="nonzero"/><path fill="#250d1c" d="M 81.554688 98.871094 C 85.804688 100.117188 89.046875 102.765625 91.660156 106.273438 C 91.808594 106.480469 92.136719 106.300781 92.019531 106.0625 C 89.820312 102.257812 85.835938 99.671875 81.644531 98.574219 C 81.4375 98.511719 81.375 98.8125 81.554688 98.871094 Z M 81.554688 98.871094 " fill-opacity="1" fill-rule="nonzero"/><path fill="#250d1c" d="M 79.472656 137.515625 C 82.207031 136.859375 85.03125 136.175781 87.351562 134.570312 C 89.847656 132.847656 92.019531 130.527344 94.246094 128.476562 C 94.425781 128.328125 94.160156 128.0625 93.980469 128.210938 C 91.78125 130.230469 89.609375 132.519531 87.144531 134.214844 C 84.824219 135.820312 82.089844 136.5625 79.382812 137.277344 C 79.265625 137.308594 79.324219 137.542969 79.472656 137.515625 Z M 79.472656 137.515625 " fill-opacity="1" fill-rule="nonzero"/><path fill="#250d1c" d="M 95.675781 129.371094 C 99.597656 125.953125 103.433594 122.445312 105.601562 117.628906 C 105.691406 117.390625 105.367188 117.183594 105.246094 117.417969 C 103.105469 122.117188 99.210938 125.714844 95.464844 129.160156 C 95.347656 129.28125 95.527344 129.488281 95.675781 129.371094 Z M 95.675781 129.371094 " fill-opacity="1" fill-rule="nonzero"/><path fill="#722817" d="M 19.128906 47.5625 C 20.824219 46.164062 21.269531 43.816406 22.933594 42.390625 C 23.886719 41.558594 24.925781 40.902344 25.847656 40.011719 C 26.859375 39.03125 28.015625 38.226562 29.058594 37.246094 C 29.175781 37.128906 29.027344 36.890625 28.847656 36.980469 C 27.808594 37.632812 26.828125 38.464844 25.9375 39.328125 C 24.925781 40.25 23.855469 41.082031 22.816406 41.972656 C 21.089844 43.429688 20.675781 45.898438 18.980469 47.382812 C 18.832031 47.503906 18.980469 47.679688 19.128906 47.5625 Z M 19.128906 47.5625 " fill-opacity="1" fill-rule="nonzero"/><path fill="#722817" d="M 25.074219 42.09375 C 25.371094 41.558594 25.667969 41.023438 25.996094 40.515625 C 26.292969 40.042969 26.648438 39.597656 26.828125 39.089844 C 26.859375 38.972656 26.710938 38.882812 26.621094 38.972656 C 26.234375 39.359375 25.996094 39.894531 25.726562 40.367188 C 25.429688 40.902344 25.132812 41.4375 24.867188 42.003906 C 24.835938 42.121094 25.015625 42.242188 25.074219 42.09375 Z M 25.074219 42.09375 " fill-opacity="1" fill-rule="nonzero"/><path fill="#722817" d="M 20.941406 47.292969 C 21.625 46.609375 21.953125 45.75 22.371094 44.855469 C 22.636719 44.292969 22.933594 43.757812 23.378906 43.3125 C 23.648438 43.042969 23.914062 42.804688 24.242188 42.628906 C 24.746094 42.300781 26.5 41.261719 26.441406 43.132812 C 26.441406 43.253906 26.621094 43.3125 26.679688 43.191406 C 27.273438 41.796875 25.371094 41.527344 24.480469 42.003906 C 23.648438 42.449219 22.902344 43.164062 22.429688 43.964844 C 21.804688 45.007812 21.597656 46.226562 20.734375 47.117188 C 20.617188 47.207031 20.824219 47.414062 20.941406 47.292969 Z M 20.941406 47.292969 " fill-opacity="1" fill-rule="nonzero"/><path fill="#722817" d="M 21.894531 50.03125 C 23.140625 48.601562 23.410156 44.054688 26.113281 44.917969 C 26.324219 44.976562 26.410156 44.648438 26.203125 44.589844 C 23.113281 43.550781 22.933594 48.363281 21.714844 49.851562 C 21.597656 49.96875 21.773438 50.148438 21.894531 50.03125 Z M 21.894531 50.03125 " fill-opacity="1" fill-rule="nonzero"/><path fill="#722817" d="M 25.34375 47.800781 C 25.726562 47.917969 26.324219 48.007812 26.621094 47.679688 C 26.679688 47.59375 26.679688 47.445312 26.5625 47.445312 C 26.351562 47.414062 26.234375 47.445312 26.027344 47.472656 C 25.816406 47.503906 25.609375 47.472656 25.429688 47.445312 C 25.191406 47.382812 25.105469 47.742188 25.34375 47.800781 Z M 25.34375 47.800781 " fill-opacity="1" fill-rule="nonzero"/><path fill="#722817" d="M 16.1875 47.117188 C 17.703125 44.171875 19.484375 41.378906 21.152344 38.527344 C 21.238281 38.347656 21 38.226562 20.882812 38.375 C 18.890625 41.023438 17.316406 43.964844 15.828125 46.9375 C 15.710938 47.144531 16.066406 47.324219 16.1875 47.117188 Z M 16.1875 47.117188 " fill-opacity="1" fill-rule="nonzero"/><path fill="#722817" d="M 13.152344 45.09375 C 15.085938 44.171875 15.738281 42.035156 17.109375 40.488281 C 18.445312 39 19.246094 37.515625 19.695312 35.554688 C 19.722656 35.375 19.484375 35.285156 19.398438 35.464844 C 19.039062 36.414062 18.800781 37.367188 18.328125 38.289062 C 17.878906 39.210938 17.195312 39.832031 16.574219 40.605469 C 15.355469 42.0625 14.847656 43.996094 13.035156 44.886719 C 12.886719 44.945312 13.003906 45.15625 13.152344 45.09375 Z M 13.152344 45.09375 " fill-opacity="1" fill-rule="nonzero"/><path fill="#722817" d="M 14.074219 39.894531 C 16.066406 37.929688 18.414062 35.671875 18.863281 32.757812 C 18.890625 32.640625 18.742188 32.609375 18.683594 32.699219 C 17.761719 35.582031 16.007812 37.605469 13.898438 39.714844 C 13.808594 39.832031 13.984375 40.011719 14.074219 39.894531 Z M 14.074219 39.894531 " fill-opacity="1" fill-rule="nonzero"/><path fill="#722817" d="M 32.742188 35.96875 C 33.25 34.871094 33.574219 33.738281 33.933594 32.582031 C 34.527344 30.707031 36.074219 30.082031 37.679688 29.25 C 40.472656 27.855469 43.207031 26.308594 45.914062 24.703125 C 46.0625 24.613281 45.914062 24.40625 45.792969 24.496094 C 42.792969 26.25 39.699219 27.882812 36.578125 29.488281 C 35.6875 29.964844 34.734375 30.46875 34.171875 31.332031 C 33.339844 32.640625 33.160156 34.421875 32.535156 35.820312 C 32.507812 36 32.683594 36.117188 32.742188 35.96875 Z M 32.742188 35.96875 " fill-opacity="1" fill-rule="nonzero"/><path fill="#250d1c" d="M 100.847656 132.699219 C 107.058594 133.886719 112.53125 129.308594 118.207031 127.617188 C 121.417969 126.636719 124.746094 126.128906 128.078125 126.011719 C 131.40625 125.890625 134.585938 126.398438 137.886719 126.664062 C 138.003906 126.664062 138.003906 126.484375 137.917969 126.457031 C 135.0625 125.683594 131.820312 125.59375 128.878906 125.652344 C 125.847656 125.714844 122.84375 126.101562 119.902344 126.84375 C 116.988281 127.585938 114.3125 128.714844 111.609375 130.023438 C 108.25 131.660156 104.710938 133.234375 100.875 132.519531 C 100.757812 132.519531 100.726562 132.699219 100.847656 132.699219 Z M 100.847656 132.699219 " fill-opacity="1" fill-rule="nonzero"/><path fill="#250d1c" d="M 134.914062 126.277344 C 135.953125 125.953125 137.023438 125.714844 138.003906 125.296875 C 138.125 125.238281 138.09375 125.058594 137.945312 125.089844 C 136.90625 125.296875 135.863281 125.742188 134.855469 126.070312 C 134.734375 126.101562 134.792969 126.335938 134.914062 126.277344 Z M 134.914062 126.277344 " fill-opacity="1" fill-rule="nonzero"/><path fill="#722817" d="M 56.882812 26.128906 C 56.523438 25.953125 56.199219 25.921875 55.871094 25.832031 C 55.664062 25.773438 55.367188 25.742188 55.21875 25.921875 C 55.128906 26.039062 55.15625 26.1875 55.1875 26.308594 C 55.246094 26.484375 55.335938 26.664062 55.484375 26.8125 C 55.632812 26.960938 55.8125 27.050781 55.988281 27.171875 C 56.703125 27.585938 57.417969 28.003906 58.128906 28.390625 C 58.042969 27.941406 57.980469 27.46875 57.804688 27.050781 C 57.625 26.636719 57.179688 26.25 56.703125 26.101562 " fill-opacity="1" fill-rule="nonzero"/><path fill="#722817" d="M 56.941406 26.011719 C 56.4375 25.742188 54.742188 25.03125 54.890625 26.25 C 54.949219 26.785156 55.394531 27.109375 55.839844 27.347656 C 56.554688 27.765625 57.296875 28.121094 58.011719 28.539062 C 58.128906 28.597656 58.277344 28.476562 58.25 28.359375 C 58.070312 27.257812 57.804688 26.335938 56.703125 25.921875 C 56.464844 25.832031 56.347656 26.21875 56.585938 26.308594 C 57.566406 26.636719 57.773438 27.554688 57.921875 28.449219 C 58.011719 28.390625 58.070312 28.328125 58.160156 28.269531 C 57.476562 27.855469 56.792969 27.46875 56.136719 27.050781 C 55.871094 26.871094 55.070312 26.277344 55.574219 26.070312 C 55.839844 25.980469 56.554688 26.1875 56.792969 26.277344 C 57 26.308594 57.089844 26.070312 56.941406 26.011719 Z M 56.941406 26.011719 " fill-opacity="1" fill-rule="nonzero"/><path fill="#420b77" d="M 101.5 74.734375 C 102.332031 75.890625 103.820312 76.398438 105.128906 76.84375 C 106.792969 77.40625 108.574219 77.617188 110.269531 77.171875 C 110.507812 77.109375 110.390625 76.785156 110.179688 76.8125 C 107.683594 77.257812 103.433594 76.8125 101.796875 74.582031 C 101.679688 74.40625 101.382812 74.554688 101.5 74.734375 Z M 101.5 74.734375 " fill-opacity="1" fill-rule="nonzero"/><path fill="#420b77" d="M 69.097656 57.816406 C 70.824219 61.921875 73.289062 65.933594 76.679688 68.90625 C 76.796875 69.023438 76.976562 68.847656 76.859375 68.726562 C 73.765625 65.398438 71.089844 61.949219 69.1875 57.789062 C 69.160156 57.730469 69.070312 57.757812 69.097656 57.816406 Z M 69.097656 57.816406 " fill-opacity="1" fill-rule="nonzero"/><path fill="#420b77" d="M 71.683594 63.554688 C 72.992188 66.082031 74.273438 68.609375 75.578125 71.136719 C 76.917969 73.78125 78.015625 76.367188 77.542969 79.371094 C 77.511719 79.546875 77.75 79.609375 77.808594 79.429688 C 78.492188 76.960938 77.628906 74.523438 76.53125 72.292969 C 75.042969 69.292969 73.410156 66.378906 71.835938 63.4375 C 71.804688 63.375 71.65625 63.464844 71.683594 63.554688 Z M 71.683594 63.554688 " fill-opacity="1" fill-rule="nonzero"/><path fill="#722817" d="M 22.726562 69.589844 C 24.0625 69.976562 25.28125 70.957031 24.925781 72.503906 C 24.867188 72.742188 25.191406 72.890625 25.3125 72.652344 C 26.234375 70.898438 24.359375 69.5 22.875 69.085938 C 22.546875 69.023438 22.429688 69.5 22.726562 69.589844 Z M 22.726562 69.589844 " fill-opacity="1" fill-rule="nonzero"/><path fill="#722817" d="M 79.683594 23.691406 C 81.257812 29.488281 81.941406 35.433594 81.734375 41.410156 C 81.734375 41.617188 82.058594 41.617188 82.058594 41.410156 C 82.238281 35.402344 81.523438 29.429688 79.917969 23.601562 C 79.859375 23.453125 79.621094 23.542969 79.683594 23.691406 Z M 79.683594 23.691406 " fill-opacity="1" fill-rule="nonzero"/><path fill="#f2f0e5" d="M 30.039062 122.5625 C 35.835938 127.675781 41.929688 132.757812 48.527344 136.832031 C 54.890625 140.726562 61.90625 143.015625 69.398438 141.855469 C 69.78125 141.796875 69.605469 141.230469 69.246094 141.289062 C 61.546875 142.359375 54.382812 139.863281 47.933594 135.789062 C 41.691406 131.835938 35.925781 127.019531 30.15625 122.414062 C 30.097656 122.324219 29.917969 122.472656 30.039062 122.5625 Z M 30.039062 122.5625 " fill-opacity="1" fill-rule="nonzero"/><path fill="#f2f0e5" d="M 17.375 132.550781 C 20.289062 138.644531 25.34375 143.699219 31.167969 147.027344 C 31.523438 147.234375 31.851562 146.671875 31.496094 146.460938 C 25.609375 143.101562 21.089844 138.257812 17.644531 132.402344 C 17.554688 132.222656 17.316406 132.371094 17.375 132.550781 Z M 17.375 132.550781 " fill-opacity="1" fill-rule="nonzero"/><path fill="#f2f0e5" d="M 96.597656 131.125 C 100.90625 127.585938 106.289062 125.207031 111.371094 122.980469 C 116.75 120.601562 122.371094 118.789062 128.285156 118.402344 C 128.671875 118.371094 128.699219 117.746094 128.285156 117.777344 C 122.457031 118.042969 116.871094 119.855469 111.546875 122.175781 C 106.257812 124.464844 100.667969 126.933594 96.328125 130.828125 C 96.121094 131.003906 96.417969 131.273438 96.597656 131.125 Z M 96.597656 131.125 " fill-opacity="1" fill-rule="nonzero"/><path fill="#f2f0e5" d="M 131.136719 125.683594 C 134.617188 123.8125 138.601562 122.503906 142.582031 122.324219 C 142.820312 122.324219 142.820312 121.9375 142.582031 121.9375 C 138.421875 122.265625 134.617188 123.277344 130.988281 125.386719 C 130.8125 125.503906 130.960938 125.773438 131.136719 125.683594 Z M 131.136719 125.683594 " fill-opacity="1" fill-rule="nonzero"/><path fill="#f2f0e5" d="M 57.714844 107.015625 C 58.21875 106.925781 58.695312 106.777344 59.171875 106.539062 C 59.558594 106.332031 60.0625 106.09375 60.300781 105.679688 C 60.390625 105.527344 60.210938 105.378906 60.0625 105.441406 C 59.675781 105.617188 59.378906 105.976562 58.992188 106.210938 C 58.574219 106.449219 58.128906 106.597656 57.65625 106.71875 C 57.445312 106.746094 57.535156 107.046875 57.714844 107.015625 Z M 57.714844 107.015625 " fill-opacity="1" fill-rule="nonzero"/><path fill="#f2f0e5" d="M 57.742188 105.292969 C 57.953125 106.300781 58.515625 107.3125 59.4375 107.847656 C 59.644531 107.964844 59.882812 107.667969 59.707031 107.519531 C 58.933594 106.867188 58.308594 106.210938 58.011719 105.230469 C 57.921875 105.082031 57.714844 105.144531 57.742188 105.292969 Z M 57.742188 105.292969 " fill-opacity="1" fill-rule="nonzero"/></svg>